<svg width="512" height="512" viewBox="0 0 512 512" fill="none" xmlns="http://www.w3.org/2000/svg">
<path d="M256.1 415.8C215.7 415.8 177.3 398.2 150.1 367.3C135.5 376.6 118.9 381.5 101.7 381.5C51.9 381.5 11.4 341 11.4 291.2C11.4 241.4 51.9 200.9 101.7 200.9C112.1 200.9 122.3 202.7 132.2 206.3C157.3 160.6 204.4 132.3 256.1 132.3C307.8 132.3 354.9 160.5 380 206.3C389.9 202.7 400.1 200.9 410.5 200.9C460.3 200.9 500.8 241.4 500.8 291.2C500.8 341 460.3 381.5 410.5 381.5C393.3 381.5 376.7 376.6 362.1 367.3C334.9 398.1 296.5 415.8 256.1 415.8ZM151.8 355L154.5 358.2C180 389 217 406.7 256.1 406.7C295.2 406.7 332.2 389.1 357.7 358.3L360.4 355.1L363.8 357.5C377.6 367.2 393.8 372.4 410.4 372.4C455.2 372.4 491.6 336 491.6 291.2C491.6 246.4 455.2 210 410.5 210C399.9 210 389.5 212.1 379.6 216.2L375.7 217.8L373.8 214.1C350.9 169.3 305.8 141.5 256.1 141.5C206.5 141.5 161.4 169.3 138.4 214.2L136.5 217.9L132.6 216.3C122.7 212.2 112.3 210.1 101.7 210.1C56.9 210.1 20.5 246.5 20.5 291.3C20.5 336.1 56.9 372.5 101.7 372.5C118.4 372.5 134.5 367.4 148.3 357.6L151.8 355Z" fill="#B0B5B5"/>
<path d="M256.1 410.3C216.6 409.9 180.3 392.7 154 363.4C152.4 361.6 149.3 361.3 147.4 362.5C120.6 379 87.1 380.6 59.7 364.8C35.9 351.1 19.7 326.2 17.3 298.8C11.9 237.1 73.1 191.7 130.9 211.5C133.1 212.3 136 211 137.1 209C161.3 165.8 206.4 137.7 256.2 137.7C306.1 137.7 351.1 165.7 375.3 209C376.4 211 379.2 212.3 381.5 211.5C439.2 191.8 500.5 237 495.1 298.8C492.7 326.2 476.4 351.1 452.7 364.8C425.2 380.6 391.7 379 365 362.5C363 361.3 359.9 361.6 358.4 363.4C331.9 392.7 295.6 409.9 256.1 410.3C249.1 410.4 249 421.3 256.1 421.2C298.4 420.8 337.8 402.5 365.9 371.1C363.7 371.4 361.5 371.7 359.3 372C404.8 400 465.6 386.2 493 339.8C518.5 296.7 505.4 240.1 464.2 211.9C439.1 194.7 407.1 191.1 378.5 200.9C380.6 201.7 382.6 202.6 384.7 203.4C358.7 156.9 309.8 126.7 256.1 126.7C202.5 126.7 153.6 156.9 127.5 203.4C129.6 202.6 131.6 201.7 133.7 200.9C84.1 183.9 29.3 209.7 11.5 259.1C-5.6 306.5 18.8 360.2 65 379.6C93.8 391.7 126.5 388.3 152.9 372C150.7 371.7 148.5 371.4 146.3 371.1C174.5 402.5 213.9 420.8 256.1 421.2C263.1 421.3 263.2 410.4 256.1 410.3Z" fill="#B0B5B5"/>
<path d="M147.9 358.9C174.9 391.5 213.2 412.1 256.1 412.1C298.9 412.1 337.3 391.4 364.3 358.9C362.1 359.2 359.9 359.5 357.7 359.8C378.8 374.7 403.6 381.4 429.2 375.8C452 370.9 472.1 356.3 484.3 336.6C509.9 295.3 495.1 239.3 452.8 215.6C428.1 201.8 400 201.9 374.2 212.5C376.3 213.3 378.3 214.2 380.4 215C356.2 167.8 310 135.9 256.1 135.9C202.2 135.9 156 167.8 131.8 215C133.9 214.2 135.9 213.3 138 212.5C92.3 193.6 39.6 212.7 21 259.8C3.1 305.1 28 357.3 73.8 373.2C101.7 382.9 130.9 376.5 154.6 359.8C160.3 355.8 154.8 346.3 149.1 350.3C125.4 367 96 372.5 69.2 359.5C45.2 347.9 28.4 324 26.3 297.4C24.2 270.9 36.2 244.7 58 229.4C81.3 212.9 109.3 212.3 135.1 223C137.2 223.9 140.3 222.4 141.3 220.5C163.8 176.7 205.9 146.8 256.2 146.8C306.4 146.8 348.6 176.6 371 220.5C372 222.4 375.1 223.9 377.2 223C402.7 212.5 430.2 212.8 453.4 228.7C475.7 244 488.1 270.5 486 297.4C483.9 323.6 467.6 347.2 444.2 358.9C417.1 372.5 387.3 367.2 363.2 350.2C361.4 348.9 358 349.3 356.6 351.1C331.4 381.5 296.3 401.1 256.2 401.1C216.1 401.1 181 381.5 155.8 351.1C151.2 345.7 143.4 353.5 147.9 358.9Z" fill="#B0B5B5"/>
</svg>
