<svg width="120" height="120" viewBox="0 0 512 512" fill="none" xmlns="http://www.w3.org/2000/svg">
<path d="M70.4843 424.106L87.879 441.501L151.589 377.791L134.194 360.396L70.4843 424.106Z" fill="#FFF200"/>
<path d="M268.3 415.9H243.7V506H268.3V415.9Z" fill="#FFF200"/>
<path d="M268.3 6H243.7V96.1H268.3V6Z" fill="#FFF200"/>
<path d="M441.48 87.8923L424.086 70.4977L360.376 134.207L377.771 151.602L441.48 87.8923Z" fill="#FFF200"/>
<path d="M151.605 134.225L87.8955 70.5153L70.5008 87.9099L134.211 151.62L151.605 134.225Z" fill="#FFF200"/>
<path d="M96.1 243.7H6V268.3H96.1V243.7Z" fill="#FFF200"/>
<path d="M506 243.7H415.9V268.3H506V243.7Z" fill="#FFF200"/>
<path d="M360.395 377.809L424.104 441.518L441.499 424.124L377.789 360.414L360.395 377.809Z" fill="#FFF200"/>
<path d="M256 117.7C178.9 117.7 116.1 180.4 116.1 257.6C116.1 334.8 178.9 397.4 256 397.4C333.1 397.4 395.9 334.7 395.9 257.5C395.9 180.3 333.1 117.7 256 117.7ZM256 372.8C192.4 372.8 140.7 321.1 140.7 257.5C140.7 193.9 192.4 142.2 256 142.2C319.6 142.2 371.3 193.9 371.3 257.5C371.3 321.1 319.6 372.8 256 372.8Z" fill="#FFF200"/>
</svg>
