<svg width="120" height="120" viewBox="0 0 512 512" fill="none" xmlns="http://www.w3.org/2000/svg">
<path d="M154.9 5.60001H141V56.7H154.9V5.60001Z" fill="#FFF200"/>
<path d="M253.019 51.9778L243.19 42.1491L207.058 78.2819L216.886 88.1106L253.019 51.9778Z" fill="#FFF200"/>
<path d="M88.8144 78.297L52.6816 42.1642L42.8529 51.9928L78.9857 88.1257L88.8144 78.297Z" fill="#FFF200"/>
<path d="M57.4 140.3H6.29999V154.2H57.4V140.3Z" fill="#FFF200"/>
<path d="M102.9 195.3C90.4 183.4 82.6 166.6 82.6 148.1C82.6 112.1 111.9 82.8 147.9 82.8C180.7 82.8 207.9 107.1 212.5 138.6C216.8 136.8 221.3 135.3 225.8 134C219.2 97 186.8 68.8 148 68.8C104.3 68.8 68.8 104.3 68.8 148C68.8 167.5 75.9 185.3 87.5 199.1C92.5 197.5 97.6 196.2 102.9 195.3Z" fill="#FFF200"/>
<path d="M410.4 200.1C400 200.1 389.7 201.9 379.9 205.5C354.8 159.8 307.8 131.5 256 131.5C204.3 131.5 157.2 159.7 132.1 205.5C122.2 201.9 112 200.1 101.6 200.1C51.8 200.1 11.3 240.6 11.3 290.4C11.3 340.2 51.8 380.7 101.6 380.7C113.4 380.7 125 378.4 135.8 373.9V363.9C125.1 368.9 113.5 371.6 101.6 371.6C56.8 371.6 20.4 335.2 20.4 290.4C20.4 245.6 56.8 209.2 101.6 209.2C112.2 209.2 122.6 211.3 132.5 215.4L136.4 217L138.3 213.3C161.3 168.5 206.4 140.6 256 140.6C305.6 140.6 350.7 168.4 373.7 213.3L375.6 217L379.5 215.4C389.4 211.3 399.8 209.2 410.4 209.2C455.2 209.2 491.6 245.6 491.6 290.4C491.6 335.2 455.2 371.6 410.4 371.6C398.5 371.6 386.9 369 376.2 363.9V373.9C387 378.4 398.6 380.7 410.4 380.7C460.2 380.7 500.7 340.2 500.7 290.4C500.7 240.6 460.2 200.1 410.4 200.1Z" fill="#B0B5B5"/>
<path d="M410.4 194.6C399.4 194.8 388.8 196.6 378.4 200.2C380.5 201 382.5 201.9 384.6 202.7C358.6 156.2 309.6 126 256 126C202.4 126 153.4 156.2 127.4 202.7C129.5 201.9 131.5 201 133.6 200.2C85.9 183.9 32.8 207 13.2 253.7C-4.99999 297.2 12.4 348.9 53 372.9C78.6 388 109.8 390.1 137.3 379.2C139.6 378.3 141.3 376.5 141.3 373.9C141.3 370.6 141.3 367.2 141.3 363.9C141.3 359.4 136.7 357.5 133.1 359.2C81.5 382.3 22.5 341.9 26.1 285.4C27.6 260.8 41.7 238.1 62.8 225.5C85.4 211.9 111.1 212.5 135 222.3C137.1 223.2 140.2 221.7 141.2 219.8C163.6 175.9 205.8 146 256 146C306.2 146 348.4 175.8 370.9 219.7C371.9 221.6 375 223.1 377.1 222.2C401 212.3 426.7 211.8 449.3 225.4C470.4 238 484.5 260.8 486 285.3C489.5 341.8 430.5 382.2 379 359.1C375.3 357.5 370.8 359.3 370.8 363.8C370.8 367.1 370.8 370.5 370.8 373.8C370.8 376.4 372.5 378.2 374.8 379.1C418.4 396.3 469 379.4 493 339C515.4 301.1 508.4 251.2 476.5 220.9C458.5 204 435 194.9 410.4 194.6C403.4 194.5 403.3 205.5 410.4 205.5C461.7 206.2 502.7 252.6 494.2 304C485.3 358.1 427.9 388.3 377.7 368.6C379 370.4 380.4 372.1 381.7 373.9C381.7 370.6 381.7 367.2 381.7 363.9C379 365.5 376.2 367.1 373.5 368.6C417.9 388.5 470.9 369.6 490.2 324.1C507.8 282.8 489.7 233.2 449.6 213C425.5 200.8 398.8 201.4 374.1 211.6C376.2 212.4 378.2 213.3 380.3 214.1C356.1 166.9 309.9 135 256 135C202.1 135 155.9 166.9 131.7 214.1C133.8 213.3 135.8 212.4 137.9 211.6C95 194 44.7 209.3 23.8 252.3C4.10001 292.8 19.3 342.9 58.2 365.5C83 379.9 112.6 380.3 138.5 368.7C135.8 367.1 133 365.5 130.3 364C130.3 367.3 130.3 370.7 130.3 374C131.6 372.2 133 370.5 134.3 368.7C79.5 390.3 17.6 351.7 16.7 291.7C15.9 232.4 75.4 191.8 130.6 210.7C132.8 211.5 135.7 210.2 136.8 208.2C161 165 206.1 136.9 256 136.9C305.9 136.9 350.9 164.9 375.1 208.2C376.2 210.2 379 211.5 381.3 210.7C390.8 207.5 400.3 205.7 410.4 205.5C417.5 205.4 417.5 194.5 410.4 194.6Z" fill="#B0B5B5"/>
<path fill-rule="evenodd" clip-rule="evenodd" d="M287 369.2C292.2 382.3 307 388.8 320.2 383.6C333.3 378.4 339.8 363.6 334.6 350.4C329.4 337.3 292 312.2 292 312.2C292 312.2 281.8 356.1 287 369.2Z" fill="#00AEEF"/>
<path d="M205.8 385.9H200.7C199.6 385.9 198.8 385 198.8 384V318.9C198.8 317.8 199.7 317 200.7 317H205.8C206.9 317 207.7 317.9 207.7 318.9V384C207.7 385 206.9 385.9 205.8 385.9Z" fill="#B0B5B5"/>
<path d="M168.8 353.9V348.8C168.8 347.7 169.7 346.9 170.7 346.9H235.8C236.9 346.9 237.7 347.8 237.7 348.8V353.9C237.7 355 236.8 355.8 235.8 355.8H170.7C169.7 355.9 168.8 355 168.8 353.9Z" fill="#B0B5B5"/>
<path d="M180.7 377.6L177.1 374C176.4 373.3 176.4 372 177.1 371.3L223.1 325.3C223.8 324.6 225.1 324.6 225.8 325.3L229.4 328.9C230.1 329.6 230.1 330.9 229.4 331.6L183.4 377.6C182.7 378.3 181.4 378.3 180.7 377.6Z" fill="#B0B5B5"/>
<path d="M177.1 328.8L180.7 325.2C181.4 324.5 182.7 324.5 183.4 325.2L229.4 371.2C230.1 371.9 230.1 373.2 229.4 373.9L225.8 377.5C225.1 378.2 223.8 378.2 223.1 377.5L177.1 331.5C176.4 330.8 176.4 329.6 177.1 328.8Z" fill="#B0B5B5"/>
</svg>
