<svg width="120" height="120" viewBox="0 0 512 512" fill="none" xmlns="http://www.w3.org/2000/svg">
<path d="M410.4 200.1C400 200.1 389.7 201.9 379.9 205.5C354.8 159.8 307.8 131.5 256 131.5C204.3 131.5 157.2 159.7 132.1 205.5C122.2 201.9 112 200.1 101.6 200.1C51.8 200.1 11.3 240.6 11.3 290.4C11.3 340.2 51.8 380.7 101.6 380.7C113.4 380.7 125 378.4 135.8 373.9V363.9C125.1 368.9 113.5 371.6 101.6 371.6C56.8 371.6 20.4 335.2 20.4 290.4C20.4 245.6 56.8 209.2 101.6 209.2C112.2 209.2 122.6 211.3 132.5 215.4L136.4 217L138.3 213.3C161.3 168.5 206.4 140.6 256 140.6C305.6 140.6 350.7 168.4 373.7 213.3L375.6 217L379.5 215.4C389.4 211.3 399.8 209.2 410.4 209.2C455.2 209.2 491.6 245.6 491.6 290.4C491.6 335.2 455.2 371.6 410.4 371.6C398.5 371.6 386.9 369 376.2 363.9V373.9C387 378.4 398.6 380.7 410.4 380.7C460.2 380.7 500.7 340.2 500.7 290.4C500.7 240.6 460.2 200.1 410.4 200.1Z" fill="#B0B5B5"/>
<path d="M410.4 194.6C399.4 194.8 388.8 196.6 378.4 200.2C380.5 201 382.5 201.9 384.6 202.7C358.6 156.2 309.6 126 256 126C202.4 126 153.4 156.2 127.4 202.7C129.5 201.9 131.5 201 133.6 200.2C85.9 183.9 32.8 207 13.2 253.7C-4.99999 297.2 12.4 348.9 53 372.9C78.6 388 109.8 390.1 137.3 379.2C139.6 378.3 141.3 376.5 141.3 373.9C141.3 370.6 141.3 367.2 141.3 363.9C141.3 359.4 136.7 357.5 133.1 359.2C81.5 382.3 22.5 341.9 26.1 285.4C27.6 260.8 41.7 238.1 62.8 225.5C85.4 211.9 111.1 212.5 135 222.3C137.1 223.2 140.2 221.7 141.2 219.8C163.6 175.9 205.8 146 256 146C306.2 146 348.4 175.8 370.9 219.7C371.9 221.6 375 223.1 377.1 222.2C401 212.3 426.7 211.8 449.3 225.4C470.4 238 484.5 260.8 486 285.3C489.5 341.8 430.5 382.2 379 359.1C375.3 357.5 370.8 359.3 370.8 363.8C370.8 367.1 370.8 370.5 370.8 373.8C370.8 376.4 372.5 378.2 374.8 379.1C418.4 396.3 469 379.4 493 339C515.4 301.1 508.4 251.2 476.5 220.9C458.5 204 435 194.9 410.4 194.6C403.4 194.5 403.3 205.5 410.4 205.5C461.7 206.2 502.7 252.6 494.2 304C485.3 358.1 427.9 388.3 377.7 368.6C379 370.4 380.4 372.1 381.7 373.9C381.7 370.6 381.7 367.2 381.7 363.9C379 365.5 376.2 367.1 373.5 368.6C417.9 388.5 470.9 369.6 490.2 324.1C507.8 282.8 489.7 233.2 449.6 213C425.5 200.8 398.8 201.4 374.1 211.6C376.2 212.4 378.2 213.3 380.3 214.1C356.1 166.9 309.9 135 256 135C202.1 135 155.9 166.9 131.7 214.1C133.8 213.3 135.8 212.4 137.9 211.6C95 194 44.7 209.3 23.8 252.3C4.10001 292.8 19.3 342.9 58.2 365.5C83 379.9 112.6 380.3 138.5 368.7C135.8 367.1 133 365.5 130.3 364C130.3 367.3 130.3 370.7 130.3 374C131.6 372.2 133 370.5 134.3 368.7C79.5 390.3 17.6 351.7 16.7 291.7C15.9 232.4 75.4 191.8 130.6 210.7C132.8 211.5 135.7 210.2 136.8 208.2C161 165 206.1 136.9 256 136.9C305.9 136.9 350.9 164.9 375.1 208.2C376.2 210.2 379 211.5 381.3 210.7C390.8 207.5 400.3 205.7 410.4 205.5C417.5 205.4 417.5 194.5 410.4 194.6Z" fill="#B0B5B5"/>
<path d="M199 376.4H196.4C195.3 376.4 194.5 375.5 194.5 374.5V328.3C194.5 327.2 195.4 326.4 196.4 326.4H199C200.1 326.4 200.9 327.3 200.9 328.3V374.5C200.9 375.6 200.1 376.4 199 376.4Z" fill="#B0B5B5"/>
<path d="M172.7 352.7V350.1C172.7 349 173.6 348.2 174.6 348.2H220.8C221.9 348.2 222.7 349.1 222.7 350.1V352.7C222.7 353.8 221.8 354.6 220.8 354.6H174.6C173.6 354.6 172.7 353.8 172.7 352.7Z" fill="#B0B5B5"/>
<path d="M180.9 370L179 368.1C178.3 367.4 178.3 366.1 179 365.4L211.6 332.8C212.3 332.1 213.6 332.1 214.3 332.8L216.2 334.7C216.9 335.4 216.9 336.7 216.2 337.4L183.7 370C182.9 370.8 181.7 370.8 180.9 370Z" fill="#B0B5B5"/>
<path d="M179.1 334.7L181 332.8C181.7 332.1 183 332.1 183.7 332.8L216.3 365.4C217 366.1 217 367.4 216.3 368.1L214.4 370C213.7 370.7 212.4 370.7 211.7 370L179.1 337.4C178.3 336.6 178.3 335.4 179.1 334.7Z" fill="#B0B5B5"/>
<path d="M315.2 376.4H312.6C311.5 376.4 310.7 375.5 310.7 374.5V328.3C310.7 327.2 311.6 326.4 312.6 326.4H315.2C316.3 326.4 317.1 327.3 317.1 328.3V374.5C317.1 375.6 316.2 376.4 315.2 376.4Z" fill="#B0B5B5"/>
<path d="M288.9 352.7V350.1C288.9 349 289.8 348.2 290.8 348.2H337C338.1 348.2 338.9 349.1 338.9 350.1V352.7C338.9 353.8 338 354.6 337 354.6H290.8C289.7 354.6 288.9 353.8 288.9 352.7Z" fill="#B0B5B5"/>
<path d="M297.1 370L295.2 368.1C294.5 367.4 294.5 366.1 295.2 365.4L327.8 332.8C328.5 332.1 329.8 332.1 330.5 332.8L332.4 334.7C333.1 335.4 333.1 336.7 332.4 337.4L299.8 370C299.1 370.8 297.9 370.8 297.1 370Z" fill="#B0B5B5"/>
<path d="M295.3 334.7L297.2 332.8C297.9 332.1 299.2 332.1 299.9 332.8L332.5 365.4C333.2 366.1 333.2 367.4 332.5 368.1L330.6 370C329.9 370.7 328.6 370.7 327.9 370L295.3 337.4C294.5 336.6 294.5 335.4 295.3 334.7Z" fill="#B0B5B5"/>
<path d="M278.1 387L215.2 309.2L243.5 301L233.8 241.1L296.7 318.9L268.4 327.1L278.1 387ZM226.9 312.8L267.4 362.9L260.8 322.2L285.1 315.2L244.6 265.1L251.2 305.8L226.9 312.8Z" fill="#FCEE23"/>
</svg>
