<svg width="120" height="120" viewBox="0 0 512 512" fill="none" xmlns="http://www.w3.org/2000/svg">
<path fill-rule="evenodd" clip-rule="evenodd" d="M238.3 86.4H261.9H470.2L496.2 48.3H6V52.5L29.2 86.4H238.3Z" fill="#B0B5B5"/>
<path fill-rule="evenodd" clip-rule="evenodd" d="M249.1 239.5H225.5H101.1L118.4 264.9H225.5H249.1H355.4L372.7 239.5H249.1Z" fill="#B0B5B5"/>
<path fill-rule="evenodd" clip-rule="evenodd" d="M282.2 118.8H81.3L98.7 144.2H282.2H305.8H488.6L506 118.8H305.8H282.2Z" fill="#B0B5B5"/>
<path fill-rule="evenodd" clip-rule="evenodd" d="M173.9 414.2H150.3H127.9L161.8 463.7L195.6 414.2H173.9Z" fill="#B0B5B5"/>
<path fill-rule="evenodd" clip-rule="evenodd" d="M217.9 381.9H247.7L265.1 356.5H217.9H194.3H146.4L163.8 381.9H194.3H217.9Z" fill="#B0B5B5"/>
<path fill-rule="evenodd" clip-rule="evenodd" d="M261.9 176.6H238.3H62.8L80.2 201.9H238.3H261.9H419.2L436.5 176.6H261.9Z" fill="#B0B5B5"/>
<path fill-rule="evenodd" clip-rule="evenodd" d="M261.9 324.1H317.1L334.5 298.7H261.9H238.3H164.8L182.2 324.1H238.3H261.9Z" fill="#B0B5B5"/>
</svg>
