<svg width="30" height="30" viewBox="0 0 40 43" fill="none" xmlns="http://www.w3.org/2000/svg">
<path d="M6.71948 25.6712C6.71948 23.9758 7.14962 22.0298 8.0099 19.8334C8.87018 17.637 9.98137 15.4984 11.3435 13.4562C14.1394 9.48724 16.5768 6.48164 18.62 4.45864L19.9642 3.07144C20.4123 3.57238 20.9141 4.03477 21.4518 4.45864C22.1866 5.26784 23.3157 6.59724 24.8212 8.48537C26.3267 10.3735 27.635 12.0497 28.7104 13.591C29.9829 15.537 31.0761 17.637 31.9543 19.8527C32.8325 22.0684 33.2806 24.0143 33.2806 25.6905C33.2806 27.6172 32.9401 29.4475 32.2411 31.2008C31.5421 32.954 30.6102 34.4761 29.4273 35.7477C28.2444 37.0193 26.8285 38.0404 25.1796 38.7918C23.5308 39.5432 21.7923 39.9286 19.9642 39.9286C18.172 39.9286 16.4693 39.5625 14.8384 38.8304C13.2074 38.0982 11.7915 37.1156 10.6087 35.844C9.42578 34.5917 8.47589 33.0696 7.77691 31.3164C7.07793 29.5631 6.71948 27.675 6.71948 25.6712ZM10.77 20.0261C10.77 21.6252 11.0746 22.8968 11.7019 23.8602C12.3292 24.8042 13.2791 25.2859 14.5516 25.2859C15.842 25.2859 16.7919 24.8042 17.4371 23.8602C18.0644 22.9161 18.387 21.6445 18.4049 20.0261C18.3869 18.4077 18.0644 17.1361 17.4371 16.1728C16.8098 15.2287 15.842 14.747 14.5516 14.747C13.2791 14.747 12.3292 15.2287 11.7019 16.1728C11.0746 17.1361 10.77 18.4077 10.77 20.0261ZM13.5838 20.0261C13.5838 19.7371 13.5838 19.5059 13.5838 19.3518C13.5838 19.1977 13.6017 18.9857 13.6196 18.716C13.6376 18.4462 13.6555 18.2343 13.7093 18.0994C13.763 17.9646 13.7989 17.7912 13.8706 17.637C13.9423 17.4829 14.0319 17.3481 14.1394 17.2902C14.2649 17.2132 14.3903 17.1746 14.5516 17.1746C14.8025 17.1746 14.9997 17.2517 15.1431 17.4058C15.2864 17.5599 15.394 17.8104 15.4477 18.138C15.5015 18.4848 15.5373 18.7545 15.5553 19.005C15.5733 19.2554 15.5733 19.583 15.5733 20.0068C15.5733 20.45 15.5733 20.7775 15.5553 21.0087C15.5373 21.2399 15.5015 21.5289 15.4477 21.8757C15.394 22.2032 15.2864 22.4537 15.1431 22.6078C14.9997 22.7619 14.8025 22.839 14.5516 22.839C14.3903 22.839 14.2649 22.8005 14.1394 22.7234C14.0139 22.6463 13.9243 22.5307 13.8706 22.3766C13.7989 22.2225 13.7451 22.0491 13.7093 21.9142C13.6734 21.7601 13.6376 21.5481 13.6196 21.2977C13.6017 21.0279 13.5838 20.816 13.5838 20.6811C13.5838 20.5463 13.5838 20.3151 13.5838 20.0261V20.0261ZM14.6412 34.9578H17.007L25.9503 14.2654H23.5308L14.6412 34.9578ZM22.3479 29.197C22.3659 30.8154 22.7063 32.087 23.3336 33.0504C23.9609 33.9944 24.9287 34.4761 26.2012 34.4761C27.4916 34.4761 28.4415 33.9944 29.0688 33.0504C29.6961 32.1063 30.0008 30.8154 30.0187 29.197C30.0007 27.5786 29.6961 26.307 29.0688 25.363C28.4415 24.4189 27.4916 23.9372 26.2012 23.9372C24.9287 23.9372 23.9609 24.4189 23.3336 25.363C22.6884 26.307 22.3658 27.5786 22.3479 29.197ZM25.1617 29.197C25.1617 28.7539 25.1617 28.4264 25.1797 28.1952C25.1977 27.964 25.2335 27.675 25.2873 27.3282C25.341 26.9814 25.4486 26.7502 25.5919 26.596C25.7353 26.4419 25.9325 26.3649 26.1834 26.3649C26.3447 26.3649 26.4881 26.4034 26.6135 26.4805C26.739 26.5575 26.8286 26.6731 26.9003 26.8465C26.972 27.0199 27.0257 27.1741 27.0795 27.3089C27.1333 27.4438 27.1512 27.6557 27.1691 27.9255L27.1871 28.542V29.1971C27.1871 29.5053 27.1871 29.7365 27.1871 29.8714L27.1691 30.4879L27.0795 31.1045L26.9003 31.5669L26.6135 31.9329L26.1834 32.0485C25.9325 32.0485 25.7353 31.9715 25.5919 31.8174C25.4486 31.6632 25.341 31.4128 25.2873 31.0852C25.2335 30.7384 25.1977 30.4494 25.1797 30.2182C25.1617 29.987 25.1617 29.6402 25.1617 29.1971V29.197Z" fill="#F9A826"/>
</svg>
