<svg width="30" height="30" viewBox="0 0 40 40" fill="none" xmlns="http://www.w3.org/2000/svg">
<path d="M21.9872 27.63L20.0001 15.7143L18.0144 27.63C16.6472 28.3457 15.7144 29.7786 15.7144 31.4286C15.7144 33.7957 17.6329 35.7143 20.0001 35.7143C22.3672 35.7143 24.2858 33.7957 24.2858 31.4286C24.2858 29.7786 23.3544 28.3457 21.9872 27.63Z" fill="#F9A826"/>
<path d="M20 4.28571C8.95429 4.28571 0 13.24 0 24.2857C0 27.2271 0.634286 30.02 1.77429 32.5329C2.55143 32.0871 3.41286 31.6686 4.34571 31.2829C3.38857 29.1457 2.85714 26.7786 2.85714 24.2857C2.85714 14.8186 10.5329 7.14285 20 7.14285C29.4671 7.14285 37.1429 14.8186 37.1429 24.2857C37.1429 26.7786 36.6114 29.1457 35.6543 31.2829C36.5871 31.6686 37.4486 32.0857 38.2257 32.5329C39.3671 30.02 40 27.2271 40 24.2857C40 13.24 31.0457 4.28571 20 4.28571Z" fill="#F9A826"/>
<path d="M5.46859 30.5386L4.58716 27.8228L10.0229 26.0586L10.9043 28.7757L5.46859 30.5386ZM12.9472 17.0414L9.59002 12.4186L11.9043 10.7386L15.2614 15.3628L12.9472 17.0414ZM18.5714 8.57141H21.4286V14.2857H18.5714V8.57141ZM10.0214 22.5728L4.58716 20.8071L5.47144 18.09L10.9057 19.8557L10.0214 22.5728ZM29.9757 22.5714L29.0943 19.8543L34.5315 18.09L35.4129 20.8057L29.9757 22.5714ZM24.7372 15.3614L28.0972 10.74L30.41 12.42L27.0514 17.0428L24.7372 15.3614ZM34.5315 30.5386L29.0957 28.7743L29.9772 26.0586L35.4129 27.8228L34.5315 30.5386Z" fill="#F9A826"/>
</svg>
