<svg width="14" height="30" viewBox="0 0 14 40" fill="none" xmlns="http://www.w3.org/2000/svg">
<path d="M10.9709 28.0076V4.0021C10.9709 1.7361 9.18545 0 6.85503 0C4.52461 0 2.73914 1.86858 2.73914 4.0021V28.0007C1.08992 29.2001 0 31.201 0 33.3346C0 37.0647 3.01879 40.0001 6.85503 40.0001C10.6913 40.0001 13.71 37.0647 13.71 33.3346C13.71 31.201 12.613 29.207 10.9709 28.0076ZM6.85503 38.6753C3.83624 38.6753 1.36957 36.2769 1.36957 33.3415C1.36957 31.3405 2.46666 29.6113 4.10872 28.6771V4.0021C4.10872 2.53792 5.34205 1.33868 6.84786 1.33868C8.35367 1.33868 9.58693 2.53792 9.58693 4.0021V28.67C11.2362 29.6043 12.3261 31.3335 12.3261 33.3345C12.3405 36.2698 9.87375 38.6753 6.85503 38.6753Z" fill="#F9A826"/>
<path d="M8.2248 29.6044C8.2248 29.4719 8.2248 29.4719 8.2248 29.3395V22.6739C8.2248 21.8721 7.67984 21.3422 6.8553 21.3422C6.03069 21.3422 5.48573 21.8721 5.48573 22.6739V29.3395C5.48573 29.4719 5.48573 29.4719 5.48573 29.6044C3.8365 30.1413 2.74658 31.6055 2.74658 33.3346C2.74658 35.6006 4.53205 37.3367 6.86247 37.3367C9.19282 37.3367 10.9783 35.6006 10.9783 33.3346C10.9712 31.6055 9.87403 30.1413 8.2248 29.6044Z" fill="#F9A826"/>
</svg>
