<svg width="30" height="30" viewBox="0 0 40 40" fill="none" xmlns="http://www.w3.org/2000/svg">
<path d="M30.0001 6.66669H10.0001C8.15913 6.66669 6.66675 8.15907 6.66675 10V30C6.66675 31.841 8.15913 33.3333 10.0001 33.3333H30.0001C31.841 33.3333 33.3334 31.841 33.3334 30V10C33.3334 8.15907 31.841 6.66669 30.0001 6.66669Z" stroke="#4F4B4B" stroke-width="3" stroke-linecap="round" stroke-linejoin="round"/>
<path d="M25 15H15V25H25V15Z" stroke="#4F4B4B" stroke-width="3" stroke-linecap="round" stroke-linejoin="round"/>
<path d="M15 1.66669V6.66669" stroke="#4F4B4B" stroke-width="3" stroke-linecap="round" stroke-linejoin="round"/>
<path d="M25 1.66669V6.66669" stroke="#4F4B4B" stroke-width="3" stroke-linecap="round" stroke-linejoin="round"/>
<path d="M15 33.3333V38.3333" stroke="#4F4B4B" stroke-width="3" stroke-linecap="round" stroke-linejoin="round"/>
<path d="M25 33.3333V38.3333" stroke="#4F4B4B" stroke-width="3" stroke-linecap="round" stroke-linejoin="round"/>
<path d="M33.3333 15H38.3333" stroke="#4F4B4B" stroke-width="3" stroke-linecap="round" stroke-linejoin="round"/>
<path d="M33.3333 23.3333H38.3333" stroke="#4F4B4B" stroke-width="3" stroke-linecap="round" stroke-linejoin="round"/>
<path d="M1.66675 15H6.66675" stroke="#4F4B4B" stroke-width="3" stroke-linecap="round" stroke-linejoin="round"/>
<path d="M1.66675 23.3333H6.66675" stroke="#4F4B4B" stroke-width="3" stroke-linecap="round" stroke-linejoin="round"/>
</svg>
