<svg width="30" height="30" viewBox="0 0 1792 1792" fill="none" xmlns="http://www.w3.org/2000/svg">
<path d="M1216 832C1216 708.667 1172.17 603.167 1084.5 515.5C996.833 427.833 891.333 384 768 384C644.667 384 539.167 427.833 451.5 515.5C363.833 603.167 320 708.667 320 832C320 955.333 363.833 1060.83 451.5 1148.5C539.167 1236.17 644.667 1280 768 1280C891.333 1280 996.833 1236.17 1084.5 1148.5C1172.17 1060.83 1216 955.333 1216 832ZM1728 1664C1728 1698.67 1715.33 1728.67 1690 1754C1664.67 1779.33 1634.67 1792 1600 1792C1564 1792 1534 1779.33 1510 1754L1167 1412C1047.67 1494.67 914.667 1536 768 1536C672.667 1536 581.5 1517.5 494.5 1480.5C407.5 1443.5 332.5 1393.5 269.5 1330.5C206.5 1267.5 156.5 1192.5 119.5 1105.5C82.5 1018.5 64 927.333 64 832C64 736.667 82.5 645.5 119.5 558.5C156.5 471.5 206.5 396.5 269.5 333.5C332.5 270.5 407.5 220.5 494.5 183.5C581.5 146.5 672.667 128 768 128C863.333 128 954.5 146.5 1041.5 183.5C1128.5 220.5 1203.5 270.5 1266.5 333.5C1329.5 396.5 1379.5 471.5 1416.5 558.5C1453.5 645.5 1472 736.667 1472 832C1472 978.667 1430.67 1111.67 1348 1231L1691 1574C1715.67 1598.67 1728 1628.67 1728 1664Z" fill="#4F4B4B"/>
</svg>
