<svg width="74" height="74" viewBox="0 0 74 74" fill="none" xmlns="http://www.w3.org/2000/svg">
<path d="M51.8 74H21.83C15.725 74 10.915 69.005 10.915 63.085V29.6C10.915 28.49 11.655 27.75 12.765 27.75C13.875 27.75 14.615 28.49 14.615 29.6V63.085C14.615 67.155 17.945 70.3 21.83 70.3H51.8C55.87 70.3 59.015 66.97 59.015 63.085V29.6C59.015 28.49 59.755 27.75 60.865 27.75C61.975 27.75 62.715 28.49 62.715 29.6V63.085C62.715 69.005 57.72 74 51.8 74Z" fill="#4F4B4B"/>
<path d="M61.605 9.065H47.545C46.62 3.885 42.18 0 36.815 0C31.45 0 27.01 3.885 26.085 9.065H12.025C7.77 9.065 4.44 12.395 4.44 16.65C4.44 20.905 7.77 24.05 12.025 24.05H61.79C66.045 24.05 69.375 20.72 69.375 16.465C69.375 12.21 65.86 9.065 61.605 9.065ZM36.815 3.7C40.145 3.7 42.92 5.92 43.66 9.065H29.785C30.71 5.92 33.485 3.7 36.815 3.7ZM61.605 20.35H12.025C9.99 20.35 8.14 18.685 8.14 16.465C8.14 14.43 9.805 12.58 12.025 12.58H61.79C63.825 12.58 65.675 14.245 65.675 16.465C65.49 18.685 63.825 20.35 61.605 20.35Z" fill="#4F4B4B"/>
<path d="M23.865 64.935C22.755 64.935 22.015 64.195 22.015 63.085V32.19C22.015 31.08 22.755 30.34 23.865 30.34C24.975 30.34 25.715 31.08 25.715 32.19V63.085C25.715 64.01 24.79 64.935 23.865 64.935Z" fill="#4F4B4B"/>
<path d="M49.765 64.935C48.655 64.935 47.915 64.195 47.915 63.085V32.19C47.915 31.08 48.655 30.34 49.765 30.34C50.875 30.34 51.615 31.08 51.615 32.19V63.085C51.615 64.01 50.69 64.935 49.765 64.935Z" fill="#4F4B4B"/>
<path d="M36.815 64.935C35.705 64.935 34.965 64.195 34.965 63.085V32.19C34.965 31.08 35.705 30.34 36.815 30.34C37.925 30.34 38.665 31.08 38.665 32.19V63.085C38.665 64.01 37.74 64.935 36.815 64.935Z" fill="#4F4B4B"/>
</svg>
