<svg width="25" height="25" viewBox="0 0 514 514" fill="none" xmlns="http://www.w3.org/2000/svg">
<g clip-path="url(#clip0_589_16)">
<path d="M346.491 316.547C395.684 286.603 427.766 233.133 427.766 171.107C427.767 76.998 350.768 0 256.66 0C162.552 0 85.553 76.998 85.553 171.107C85.553 233.133 117.635 286.604 166.828 316.547C81.275 348.63 17.11 423.489 0 513.32H42.777C64.165 414.934 151.858 342.213 256.66 342.213C361.462 342.213 449.155 414.933 470.543 513.32H513.32C496.21 421.35 432.045 346.491 346.491 316.547ZM128.33 171.107C128.33 100.526 186.079 42.777 256.66 42.777C327.241 42.777 384.99 100.526 384.99 171.107C384.99 241.688 327.241 299.437 256.66 299.437C186.079 299.437 128.33 241.688 128.33 171.107Z" fill="#4F4B4B"/>
</g>
<defs>
<clipPath id="clip0_589_16">
<rect width="513.32" height="513.32" fill="white"/>
</clipPath>
</defs>
</svg>
