<svg width="30" height="30" viewBox="0 0 40 40" fill="none" xmlns="http://www.w3.org/2000/svg">
<path d="M24.9969 34.9981C24.3058 34.9981 23.7471 35.5518 23.7471 36.2604V38.7351C23.7471 39.4326 24.3008 39.9975 24.9969 39.9975C25.6881 39.9975 26.2468 39.4438 26.2468 38.7351V36.2604C26.2468 35.563 25.6931 34.9981 24.9969 34.9981Z" fill="#4F4B4B"/>
<path d="M14.9981 34.9981C14.307 34.9981 13.7483 35.5518 13.7483 36.2604V38.7351C13.7483 39.4326 14.3032 39.9975 14.9981 39.9975C15.6893 39.9975 16.248 39.4438 16.248 38.7351V36.2604C16.248 35.563 15.693 34.9981 14.9981 34.9981Z" fill="#4F4B4B"/>
<path d="M29.9962 32.4984C29.305 32.4984 28.7463 33.0521 28.7463 33.7608V36.2354C28.7463 36.9329 29.3 37.4978 29.9962 37.4978C30.6873 37.4978 31.246 36.9441 31.246 36.2354V33.7608C31.246 33.0633 30.6923 32.4984 29.9962 32.4984Z" fill="#4F4B4B"/>
<path d="M34.4782 16.5154C34.2632 15.9455 33.987 15.4068 33.6583 14.9069C33.717 14.5294 33.7458 14.1432 33.7458 13.7508C33.7458 9.61004 30.3862 6.25171 26.2467 6.25171C24.3307 6.25171 22.5822 6.97037 21.2573 8.15272C19.4676 6.95287 17.3153 6.25171 14.9981 6.25171C8.86889 6.25171 3.88201 11.1561 3.75203 17.2541C1.50856 18.5527 0 20.9786 0 23.7495C0 27.889 3.35958 31.2486 7.49906 31.2486H32.4959C36.6354 31.2486 39.995 27.8828 39.995 23.7495C39.995 20.2937 37.6578 17.3841 34.4782 16.5154ZM26.2467 8.7514C28.5452 8.7514 30.4824 10.3025 31.0649 12.4172C29.8413 11.6773 28.4077 11.2511 26.8716 11.2511C26.0705 11.2511 25.2968 11.3673 24.5669 11.5835C24.1682 10.9399 23.707 10.3412 23.1921 9.79377C24.0345 9.1401 25.0956 8.7514 26.2467 8.7514ZM32.4997 28.7489H7.49531C4.74191 28.7489 2.49969 26.5104 2.49969 23.7495C2.49969 21.3836 4.14573 19.3976 6.35795 18.8801C6.28546 18.4314 6.24922 17.9702 6.24922 17.5003C6.24922 12.6684 10.1662 8.7514 14.9981 8.7514C18.9501 8.7514 22.2897 11.3723 23.3746 14.9694C24.3357 14.2057 25.5481 13.7508 26.8716 13.7508C29.7663 13.7508 32.1522 15.938 32.4622 18.7501H32.4997C35.2531 18.7501 37.4953 20.9886 37.4953 23.7495C37.4953 26.5054 35.2593 28.7489 32.4997 28.7489Z" fill="#4F4B4B"/>
<path d="M19.9974 32.4984C19.3062 32.4984 18.7476 33.0521 18.7476 33.7608V36.2354C18.7476 36.9329 19.3025 37.4978 19.9974 37.4978C20.6886 37.4978 21.2472 36.9441 21.2472 36.2354V33.7608C21.2472 33.0633 20.6936 32.4984 19.9974 32.4984Z" fill="#4F4B4B"/>
<path d="M34.212 7.55781L35.9618 5.80678C36.4568 5.31434 36.4605 4.52319 35.9718 4.03075C35.4831 3.54331 34.6957 3.53956 34.1946 4.0395L32.4448 5.79053C31.9511 6.28297 31.9448 7.07412 32.436 7.56656C32.9247 8.054 33.7121 8.05775 34.212 7.55781Z" fill="#4F4B4B"/>
<path d="M9.99887 32.4984C9.3077 32.4984 8.74902 33.0521 8.74902 33.7608V36.2354C8.74902 36.9329 9.30395 37.4978 9.99887 37.4978C10.69 37.4978 11.2487 36.9441 11.2487 36.2354V33.7608C11.2487 33.0633 10.6938 32.4984 9.99887 32.4984Z" fill="#4F4B4B"/>
<path d="M26.2467 5.00188C26.9378 5.00188 27.4965 4.4482 27.4965 3.73953V1.26484C27.4965 0.567432 26.9428 0.00250244 26.2467 0.00250244C25.5555 0.00250244 24.9968 0.556183 24.9968 1.26484V3.73953C24.9968 4.43695 25.5505 5.00188 26.2467 5.00188Z" fill="#4F4B4B"/>
<path d="M35.0007 13.7558C35.0007 14.4457 35.5544 15.0056 36.2631 15.0056H38.7378C39.4352 15.0056 40.0001 14.4507 40.0001 13.7558C40.0001 13.0646 39.4464 12.5059 38.7378 12.5059H36.2631C35.5657 12.5059 35.0007 13.0596 35.0007 13.7558Z" fill="#4F4B4B"/>
</svg>
