<svg width="100" height="100" viewBox="0 0 173 126" fill="none" xmlns="http://www.w3.org/2000/svg">
<path d="M-7.15256e-07 109.294C-7.15256e-07 109.294 -7.15256e-07 125.455 15.6818 125.455L156.818 125.455C172.5 125.455 172.5 109.294 172.5 109.294V16.1601C172.5 16.1601 172.5 0 156.818 0L15.6818 0C-7.15256e-07 0 -7.15256e-07 16.1601 -7.15256e-07 16.1601V109.294ZM5.92773 62.5313C5.92773 59.1753 8.56249 56.4545 11.8084 56.4545C15.0545 56.4545 17.6891 59.1753 17.6891 62.5313C17.6891 65.8872 15.0545 68.608 11.8084 68.608C8.55443 68.6001 5.92773 65.8793 5.92773 62.5313ZM31.6302 7.84091L156.544 7.84091C164.659 7.84091 164.659 16.5522 164.659 16.5522V108.902C164.659 108.902 164.659 117.614 156.544 117.614L31.63 117.614C23.5227 117.614 23.5227 108.902 23.5227 108.902V16.5522C23.5227 16.5522 23.5227 7.84091 31.6302 7.84091Z" fill="black"/>
<rect x="4.35612" y="25.4829" width="14.375" height="70.3504" fill="white"/>
<rect x="10.4546" y="23.3048" width="2.17803" height="74.7064" fill="black"/>
<rect x="14.5929" y="23.523" width="2.17803" height="74.7064" fill="black"/>
<rect x="6.31633" y="23.523" width="2.17803" height="74.7064" fill="black"/>
<rect x="29.839" y="19.3844" width="54.233" height="6.09848" fill="black"/>
<rect x="29.839" y="35.0661" width="54.233" height="6.09848" fill="black"/>
<rect x="29.839" y="50.7482" width="54.233" height="6.09848" fill="black"/>
<rect x="29.839" y="66.4298" width="54.233" height="6.09848" fill="black"/>
<rect x="29.839" y="101.714" width="54.233" height="6.09848" fill="black"/>
<rect x="97.3579" y="101.714" width="54.233" height="6.09848" fill="black"/>
<rect x="97.3579" y="66.4298" width="54.233" height="6.09848" fill="black"/>
<rect x="97.3579" y="50.7482" width="54.233" height="6.09848" fill="black"/>
</svg>
