<svg width="700" height="550" viewBox="0 0 1528 1101" fill="none" xmlns="http://www.w3.org/2000/svg">
<g clip-path="url(#clip0_3:8)">
<path d="M1150.21 540.135C1142.54 539.816 1135.55 536.721 1132.39 531.927C1132.24 531.702 1132.1 531.475 1131.97 531.244C1130.82 529.201 1130.46 526.852 1131.72 524.839C1132.98 522.826 1136.13 521.297 1139.3 521.615C1142.46 521.932 1144.93 524.457 1143.62 526.455C1143.33 522.417 1143.09 518.174 1146.35 514.659C1148.14 512.822 1150.48 511.614 1153.01 511.214C1159.57 510.06 1163.93 513.77 1164.8 517.515C1165.45 520.28 1164.56 523.092 1163.67 525.826C1166.4 522.599 1172.89 521.164 1177.86 522.688C1182.83 524.211 1185.59 528.482 1183.89 532.024C1181.89 536.197 1175.22 538.354 1169.02 539.494C1163.91 540.435 1156.24 540.385 1150.21 540.135Z" fill="#F2F2F2"/>
<path d="M904.5 299.5H849.5C845.125 299.495 840.931 297.755 837.838 294.662C834.745 291.569 833.005 287.375 833 283V180C833.005 175.625 834.745 171.431 837.838 168.338C840.931 165.245 845.125 163.505 849.5 163.5H904.5C908.874 163.505 913.068 165.245 916.162 168.338C919.255 171.431 920.995 175.625 921 180V283C920.995 287.375 919.255 291.569 916.162 294.662C913.068 297.755 908.874 299.495 904.5 299.5V299.5Z" fill="#F2F2F2"/>
<path d="M1242.31 529.177H1230.05L1224.21 481.889L1242.31 481.89L1242.31 529.177Z" fill="#FFB8B8"/>
<path d="M1245.43 541.062L1205.9 541.06V540.56C1205.9 538.54 1206.3 536.539 1207.07 534.672C1207.85 532.805 1208.98 531.109 1210.41 529.68C1211.84 528.252 1213.53 527.118 1215.4 526.345C1217.27 525.572 1219.27 525.174 1221.29 525.174H1221.29L1245.43 525.175L1245.43 541.062Z" fill="#2F2E41"/>
<path d="M1379.26 517.707L1367.7 521.799L1346.42 479.172L1363.48 473.132L1379.26 517.707Z" fill="#FFB8B8"/>
<path d="M1386.18 527.865L1348.91 541.062L1348.75 540.59C1348.07 538.686 1347.78 536.667 1347.88 534.649C1347.99 532.631 1348.49 530.654 1349.36 528.83C1350.23 527.006 1351.45 525.372 1352.95 524.02C1354.46 522.668 1356.21 521.624 1358.11 520.95L1358.11 520.95L1380.87 512.89L1386.18 527.865Z" fill="#2F2E41"/>
<path d="M1241.96 513.3C1241.69 513.3 1241.42 513.275 1241.14 513.226L1226.15 510.5C1225.13 510.312 1224.21 509.777 1223.53 508.988C1222.86 508.198 1222.48 507.201 1222.46 506.163C1220.28 405.249 1230.99 337.435 1254.3 288.827C1254.71 287.967 1255.39 287.262 1256.24 286.816C1257.08 286.369 1258.05 286.205 1258.99 286.346L1312.9 294.129C1313.89 294.272 1314.79 294.737 1315.49 295.451C1316.18 296.165 1316.62 297.088 1316.73 298.076L1321.48 339.98C1321.51 340.206 1321.56 340.429 1321.62 340.646L1373.31 495.515C1373.67 496.642 1373.56 497.862 1373.03 498.914C1372.49 499.967 1371.57 500.768 1370.45 501.146L1356.48 505.802C1355.45 506.14 1354.34 506.098 1353.34 505.683C1352.34 505.269 1351.52 504.511 1351.03 503.545L1281.11 371.708C1280.97 371.431 1280.75 371.203 1280.48 371.057C1280.21 370.911 1279.89 370.853 1279.59 370.891C1279.28 370.929 1278.99 371.062 1278.76 371.271C1278.53 371.48 1278.37 371.755 1278.31 372.058L1246.35 509.763C1246.13 510.764 1245.58 511.662 1244.78 512.305C1243.98 512.949 1242.99 513.3 1241.96 513.3Z" fill="#2F2E41"/>
<path d="M1199.36 207.097C1199.48 207.637 1199.56 208.185 1199.6 208.737L1242.55 233.519L1253 227.508L1264.13 242.081L1246.68 254.518C1245.27 255.523 1243.57 256.043 1241.84 256.001C1240.11 255.959 1238.44 255.357 1237.08 254.284L1192.78 219.339C1190.78 220.079 1188.61 220.192 1186.54 219.665C1184.47 219.138 1182.62 217.994 1181.22 216.386C1179.82 214.778 1178.94 212.782 1178.71 210.664C1178.47 208.545 1178.88 206.405 1179.89 204.527C1180.9 202.649 1182.46 201.123 1184.35 200.151C1186.25 199.179 1188.4 198.809 1190.51 199.088C1192.62 199.367 1194.6 200.282 1196.18 201.713C1197.76 203.144 1198.87 205.022 1199.36 207.097V207.097Z" fill="#FFB8B8"/>
<path d="M1243.14 231.042C1243.27 230.409 1243.54 229.81 1243.92 229.288C1244.3 228.766 1244.79 228.333 1245.36 228.017L1265.07 216.995C1267.69 214.973 1271 214.072 1274.28 214.49C1277.57 214.908 1280.55 216.61 1282.58 219.224C1284.61 221.837 1285.52 225.149 1285.11 228.432C1284.7 231.716 1283 234.703 1280.4 236.739L1264.68 253.06C1264.23 253.526 1263.69 253.889 1263.08 254.126C1262.48 254.363 1261.84 254.467 1261.19 254.431C1260.54 254.396 1259.91 254.222 1259.34 253.921C1258.77 253.62 1258.27 253.199 1257.87 252.687L1243.99 234.693C1243.59 234.181 1243.31 233.59 1243.17 232.96C1243.02 232.33 1243.01 231.676 1243.14 231.042Z" fill="#F9A826"/>
<path d="M1289.05 204.627C1302.61 204.627 1313.61 193.631 1313.61 180.066C1313.61 166.501 1302.61 155.505 1289.05 155.505C1275.49 155.505 1264.49 166.501 1264.49 180.066C1264.49 193.631 1275.49 204.627 1289.05 204.627Z" fill="#FFB8B8"/>
<path d="M1312.97 299.368C1312.72 299.368 1312.48 299.348 1312.24 299.309L1259.08 290.595C1258.48 290.497 1257.91 290.277 1257.4 289.951C1256.88 289.624 1256.44 289.196 1256.1 288.694C1255.75 288.192 1255.52 287.625 1255.4 287.028C1255.28 286.431 1255.28 285.816 1255.41 285.221L1258 273.03C1256.67 271.055 1245.89 253.884 1259.02 237.755C1258.77 232.025 1260.76 226.424 1264.58 222.142C1268.4 217.861 1273.73 215.239 1279.46 214.833L1306.92 212.746C1310.46 212.478 1314 213.063 1317.27 214.451C1320.53 215.839 1323.41 217.99 1325.66 220.723C1327.92 223.455 1329.49 226.69 1330.23 230.155C1330.98 233.619 1330.88 237.212 1329.95 240.631L1317.35 295.868C1317.13 296.862 1316.57 297.748 1315.77 298.384C1314.97 299.02 1313.99 299.367 1312.97 299.368V299.368Z" fill="#F9A826"/>
<path d="M1362.6 345.558C1363.5 344.273 1364.11 342.805 1364.39 341.258C1364.66 339.711 1364.59 338.124 1364.18 336.607C1363.77 335.09 1363.04 333.681 1362.03 332.479C1361.02 331.277 1359.76 330.311 1358.33 329.649L1328.07 236.602L1310.53 244.924L1343.64 335.523C1342.69 337.989 1342.68 340.72 1343.6 343.196C1344.53 345.673 1346.33 347.725 1348.67 348.962C1351 350.199 1353.71 350.535 1356.28 349.908C1358.85 349.281 1361.1 347.733 1362.6 345.558V345.558Z" fill="#FFB8B8"/>
<path d="M1334.76 252.093L1311.47 259.128C1310.81 259.329 1310.11 259.384 1309.43 259.29C1308.74 259.196 1308.08 258.955 1307.5 258.584C1306.92 258.213 1306.42 257.721 1306.04 257.14C1305.66 256.56 1305.42 255.905 1305.32 255.22L1301.78 231.225C1300.77 227.828 1301.16 224.171 1302.84 221.056C1304.53 217.941 1307.38 215.622 1310.78 214.607C1314.17 213.593 1317.83 213.966 1320.95 215.645C1324.07 217.324 1326.39 220.171 1327.41 223.563L1337.73 245.429C1338.02 246.055 1338.18 246.738 1338.19 247.43C1338.19 248.122 1338.05 248.808 1337.77 249.44C1337.49 250.072 1337.07 250.637 1336.56 251.095C1336.04 251.553 1335.43 251.893 1334.76 252.093H1334.76Z" fill="#F9A826"/>
<path d="M1265.18 181.014C1270.63 183.092 1276.56 183.56 1282.27 182.36C1287.98 181.161 1293.23 178.346 1297.39 174.25C1294.81 181.056 1295.53 209.924 1295.53 209.924C1295.53 209.924 1318.38 199.077 1321.48 197.181C1339.78 185.976 1314.53 137.238 1293.53 144.924C1289.97 146.226 1287 147.758 1285.56 151.262C1282.43 147.393 1276.49 146.554 1271.92 148.541C1267.36 150.528 1264.11 154.835 1262.36 159.499C1260.99 163.263 1260.45 167.284 1260.79 171.277C1261.14 175.271 1262.35 179.14 1264.36 182.613L1265.18 181.014Z" fill="black"/>
<path d="M1158 123H596C587.251 123.009 578.862 126.488 572.675 132.675C566.488 138.862 563.009 147.25 563 156C563 156 554.5 265 563.5 271.5C572.5 278 592.692 302.704 598.879 308.891C605.066 315.078 614 343 614 343H1158C1166.75 342.991 1175.14 339.512 1181.33 333.325C1187.51 327.138 1190.99 318.75 1191 310V156C1190.99 147.25 1187.51 138.862 1181.33 132.675C1175.14 126.488 1166.75 123.009 1158 123ZM1189 310C1188.99 318.218 1185.72 326.097 1179.91 331.909C1174.1 337.72 1166.22 340.99 1158 341H614C614 341 605.311 315.311 599.5 309.5C593.689 303.689 570.5 277 565.5 271.5C565.49 263.282 565 156 565 156C565.011 147.782 568.28 139.903 574.091 134.091C579.903 128.28 587.782 125.01 596 125H1158C1166.22 125.01 1174.1 128.28 1179.91 134.091C1185.72 139.903 1188.99 147.782 1189 156V310Z" fill="#3F3D56"/>
<path d="M651.75 268.5C649.377 268.5 647.057 267.796 645.083 266.478C643.11 265.159 641.572 263.285 640.663 261.092C639.755 258.899 639.518 256.487 639.981 254.159C640.444 251.831 641.586 249.693 643.265 248.015C644.943 246.336 647.081 245.194 649.409 244.731C651.737 244.268 654.149 244.505 656.342 245.413C658.535 246.322 660.409 247.86 661.728 249.833C663.046 251.807 663.75 254.127 663.75 256.5C663.746 259.681 662.481 262.732 660.231 264.981C657.982 267.231 654.931 268.496 651.75 268.5V268.5ZM651.75 246.5C649.772 246.5 647.839 247.086 646.194 248.185C644.55 249.284 643.268 250.846 642.511 252.673C641.754 254.5 641.556 256.511 641.942 258.451C642.328 260.391 643.28 262.173 644.679 263.571C646.077 264.97 647.859 265.922 649.799 266.308C651.739 266.694 653.75 266.496 655.577 265.739C657.404 264.982 658.966 263.7 660.065 262.056C661.164 260.411 661.75 258.478 661.75 256.5C661.747 253.849 660.692 251.307 658.818 249.432C656.943 247.557 654.401 246.503 651.75 246.5V246.5Z" fill="#3F3D56"/>
<path d="M651.356 241.5C651.091 241.5 650.837 241.395 650.649 241.207C650.462 241.02 650.356 240.765 650.356 240.5V229C650.356 228.735 650.462 228.48 650.649 228.293C650.837 228.105 651.091 228 651.356 228C651.621 228 651.876 228.105 652.063 228.293C652.251 228.48 652.356 228.735 652.356 229V240.5C652.356 240.765 652.251 241.02 652.063 241.207C651.876 241.395 651.621 241.5 651.356 241.5Z" fill="#3F3D56"/>
<path d="M635.75 257.106H624.25C623.985 257.106 623.73 257.001 623.543 256.814C623.355 256.626 623.25 256.372 623.25 256.106C623.25 255.841 623.355 255.587 623.543 255.399C623.73 255.212 623.985 255.106 624.25 255.106H635.75C636.015 255.106 636.27 255.212 636.457 255.399C636.645 255.587 636.75 255.841 636.75 256.106C636.75 256.372 636.645 256.626 636.457 256.814C636.27 257.001 636.015 257.106 635.75 257.106Z" fill="#3F3D56"/>
<path d="M677.75 257.106H666.25C665.985 257.106 665.73 257.001 665.543 256.814C665.355 256.626 665.25 256.372 665.25 256.106C665.25 255.841 665.355 255.587 665.543 255.399C665.73 255.212 665.985 255.106 666.25 255.106H677.75C678.015 255.106 678.27 255.212 678.457 255.399C678.645 255.587 678.75 255.841 678.75 256.106C678.75 256.372 678.645 256.626 678.457 256.814C678.27 257.001 678.015 257.106 677.75 257.106Z" fill="#3F3D56"/>
<path d="M665.934 246.172C665.735 246.172 665.54 246.113 665.375 246.002C665.21 245.89 665.082 245.732 665.007 245.548C664.933 245.364 664.915 245.161 664.956 244.966C664.997 244.771 665.095 244.593 665.238 244.455L670.054 239.782C670.244 239.598 670.5 239.496 670.765 239.5C671.03 239.504 671.283 239.613 671.468 239.804C671.652 239.994 671.754 240.25 671.75 240.515C671.746 240.78 671.637 241.033 671.446 241.218L666.63 245.89C666.444 246.071 666.194 246.173 665.934 246.172V246.172Z" fill="#3F3D56"/>
<path d="M636.566 246.172C636.306 246.173 636.056 246.071 635.87 245.89L631.054 241.218C630.959 241.126 630.884 241.017 630.832 240.897C630.78 240.776 630.752 240.646 630.75 240.515C630.748 240.384 630.772 240.253 630.82 240.131C630.869 240.009 630.941 239.898 631.032 239.804C631.124 239.709 631.233 239.634 631.353 239.582C631.474 239.53 631.604 239.502 631.735 239.5C631.866 239.498 631.997 239.522 632.119 239.57C632.241 239.619 632.352 239.691 632.446 239.782L637.262 244.455C637.405 244.593 637.503 244.771 637.544 244.966C637.586 245.161 637.567 245.364 637.493 245.548C637.418 245.732 637.29 245.89 637.125 246.002C636.96 246.113 636.765 246.172 636.566 246.172Z" fill="#3F3D56"/>
<path d="M632.75 273.5C632.553 273.5 632.361 273.442 632.197 273.333C632.034 273.225 631.906 273.07 631.829 272.889C631.752 272.708 631.731 272.509 631.767 272.316C631.803 272.122 631.896 271.944 632.032 271.803L636.848 266.844C637.033 266.653 637.286 266.544 637.551 266.54C637.816 266.537 638.072 266.638 638.263 266.823C638.453 267.008 638.562 267.261 638.566 267.526C638.57 267.791 638.468 268.047 638.283 268.237L633.467 273.197C633.374 273.293 633.263 273.369 633.139 273.421C633.016 273.473 632.884 273.5 632.75 273.5V273.5Z" fill="#3F3D56"/>
<path d="M671.75 274.5C671.617 274.5 671.485 274.474 671.362 274.422C671.239 274.37 671.127 274.294 671.034 274.198L665.219 268.239C665.127 268.145 665.055 268.034 665.006 267.912C664.957 267.79 664.933 267.66 664.934 267.528C664.936 267.397 664.963 267.267 665.015 267.147C665.067 267.026 665.142 266.917 665.236 266.825C665.33 266.733 665.441 266.661 665.563 266.612C665.685 266.563 665.815 266.539 665.946 266.541C666.078 266.542 666.207 266.57 666.328 266.622C666.449 266.673 666.558 266.748 666.65 266.842L672.466 272.802C672.603 272.943 672.696 273.121 672.733 273.314C672.769 273.507 672.748 273.707 672.672 273.888C672.595 274.07 672.467 274.225 672.303 274.333C672.139 274.442 671.947 274.5 671.75 274.5Z" fill="#3F3D56"/>
<path d="M651.356 284.5C651.091 284.5 650.837 284.395 650.649 284.207C650.462 284.02 650.356 283.765 650.356 283.5V272C650.356 271.735 650.462 271.48 650.649 271.293C650.837 271.105 651.091 271 651.356 271C651.621 271 651.876 271.105 652.063 271.293C652.251 271.48 652.356 271.735 652.356 272V283.5C652.356 283.765 652.251 284.02 652.063 284.207C651.876 284.395 651.621 284.5 651.356 284.5Z" fill="#3F3D56"/>
<path d="M782.164 275.5H748.782C745.372 275.442 742.121 274.047 739.73 271.616C737.34 269.184 736 265.91 736 262.5C736 259.09 737.34 255.816 739.73 253.384C742.121 250.953 745.372 249.558 748.782 249.5H751.335C752.601 246.818 754.601 244.549 757.103 242.957C759.605 241.364 762.507 240.512 765.473 240.5C769.505 240.537 773.373 242.108 776.289 244.895C779.204 247.681 780.95 251.473 781.17 255.5H782.164C784.787 255.543 787.289 256.616 789.129 258.487C790.969 260.357 792 262.876 792 265.5C792 268.124 790.969 270.643 789.129 272.513C787.289 274.384 784.787 275.457 782.164 275.5V275.5ZM748.782 251.5C745.903 251.558 743.161 252.742 741.145 254.799C739.129 256.855 738 259.62 738 262.5C738 265.38 739.129 268.145 741.145 270.201C743.161 272.258 745.903 273.442 748.782 273.5H782.164C784.257 273.457 786.249 272.595 787.714 271.099C789.179 269.604 790 267.594 790 265.5C790 263.406 789.179 261.396 787.714 259.901C786.249 258.405 784.257 257.543 782.164 257.5H780.2C779.935 257.5 779.68 257.395 779.493 257.207C779.305 257.02 779.2 256.765 779.2 256.5C779.232 252.824 777.804 249.286 775.231 246.662C772.657 244.037 769.148 242.541 765.473 242.5C762.785 242.514 760.161 243.317 757.925 244.81C755.69 246.302 753.942 248.418 752.898 250.895C752.821 251.074 752.693 251.227 752.529 251.335C752.366 251.443 752.175 251.5 751.979 251.5H748.782Z" fill="#3F3D56"/>
<path d="M893.671 256.557L892.892 254.715C894.405 254.075 895.737 253.073 896.771 251.797C897.804 250.521 898.508 249.009 898.819 247.397C899.13 245.784 899.039 244.119 898.554 242.55C898.07 240.981 897.206 239.555 896.04 238.399C894.873 237.243 893.44 236.391 891.867 235.92C890.293 235.449 888.628 235.373 887.018 235.698C885.408 236.023 883.903 236.74 882.636 237.784C881.369 238.829 880.378 240.17 879.752 241.688L877.903 240.925C878.655 239.103 879.843 237.495 881.364 236.241C882.885 234.987 884.691 234.128 886.622 233.738C888.554 233.347 890.552 233.439 892.44 234.004C894.328 234.569 896.048 235.591 897.448 236.978C898.847 238.366 899.884 240.077 900.465 241.96C901.047 243.843 901.156 245.84 900.783 247.775C900.41 249.71 899.566 251.524 898.325 253.055C897.085 254.587 895.487 255.789 893.671 256.557V256.557Z" fill="#3F3D56"/>
<path d="M895.164 275.5H861.782C858.372 275.442 855.121 274.047 852.73 271.616C850.34 269.184 849 265.91 849 262.5C849 259.09 850.34 255.816 852.73 253.384C855.121 250.953 858.372 249.558 861.782 249.5H864.335C865.601 246.818 867.601 244.549 870.103 242.957C872.605 241.364 875.507 240.512 878.473 240.5C882.505 240.537 886.373 242.108 889.289 244.895C892.204 247.681 893.95 251.473 894.17 255.5H895.164C897.787 255.543 900.289 256.616 902.129 258.487C903.969 260.357 905 262.876 905 265.5C905 268.124 903.969 270.643 902.129 272.513C900.289 274.384 897.787 275.457 895.164 275.5V275.5ZM861.782 251.5C858.903 251.558 856.161 252.742 854.145 254.799C852.129 256.855 851 259.62 851 262.5C851 265.38 852.129 268.145 854.145 270.201C856.161 272.258 858.903 273.442 861.782 273.5H895.164C897.257 273.457 899.249 272.595 900.714 271.099C902.179 269.604 903 267.594 903 265.5C903 263.406 902.179 261.396 900.714 259.901C899.249 258.405 897.257 257.543 895.164 257.5H893.2C892.935 257.5 892.68 257.395 892.493 257.207C892.305 257.02 892.2 256.765 892.2 256.5C892.232 252.824 890.804 249.286 888.231 246.662C885.657 244.037 882.148 242.541 878.473 242.5C875.785 242.514 873.161 243.317 870.925 244.81C868.69 246.302 866.942 248.418 865.898 250.895C865.821 251.074 865.693 251.227 865.529 251.335C865.366 251.443 865.175 251.5 864.979 251.5H861.782Z" fill="#3F3D56"/>
<path d="M1008.16 270.5H1004.15C1003.88 270.5 1003.63 270.395 1003.44 270.207C1003.25 270.02 1003.15 269.765 1003.15 269.5C1003.15 269.235 1003.25 268.98 1003.44 268.793C1003.63 268.605 1003.88 268.5 1004.15 268.5H1008.16C1010.26 268.457 1012.25 267.595 1013.71 266.099C1015.18 264.604 1016 262.594 1016 260.5C1016 258.406 1015.18 256.396 1013.71 254.901C1012.25 253.405 1010.26 252.543 1008.16 252.5H1006.2C1005.93 252.5 1005.68 252.395 1005.49 252.207C1005.31 252.02 1005.2 251.765 1005.2 251.5C1005.23 247.824 1003.8 244.286 1001.23 241.662C998.657 239.037 995.148 237.541 991.473 237.5C988.785 237.514 986.161 238.317 983.925 239.81C981.69 241.302 979.942 243.418 978.898 245.895C978.821 246.074 978.693 246.227 978.529 246.335C978.366 246.443 978.175 246.5 977.979 246.5H974.782C971.902 246.558 969.161 247.742 967.145 249.799C965.129 251.855 964 254.62 964 257.5C964 260.38 965.129 263.145 967.145 265.201C969.161 267.258 971.902 268.442 974.782 268.5H977.882C978.147 268.5 978.401 268.605 978.589 268.793C978.776 268.98 978.882 269.235 978.882 269.5C978.882 269.765 978.776 270.02 978.589 270.207C978.401 270.395 978.147 270.5 977.882 270.5H974.782C971.372 270.442 968.121 269.047 965.73 266.616C963.34 264.184 962 260.91 962 257.5C962 254.09 963.34 250.816 965.73 248.384C968.121 245.953 971.372 244.558 974.782 244.5H977.335C978.601 241.818 980.601 239.549 983.103 237.957C985.605 236.364 988.507 235.512 991.473 235.5C995.505 235.537 999.373 237.108 1002.29 239.895C1005.2 242.681 1006.95 246.473 1007.17 250.5H1008.16C1010.79 250.543 1013.29 251.616 1015.13 253.487C1016.97 255.357 1018 257.876 1018 260.5C1018 263.124 1016.97 265.643 1015.13 267.513C1013.29 269.384 1010.79 270.457 1008.16 270.5V270.5Z" fill="#3F3D56"/>
<path d="M991.307 274.817C991.042 274.817 990.788 274.712 990.6 274.524C990.413 274.336 990.307 274.082 990.307 273.817V262.317C990.307 262.052 990.413 261.797 990.6 261.61C990.788 261.422 991.042 261.317 991.307 261.317C991.572 261.317 991.827 261.422 992.014 261.61C992.202 261.797 992.307 262.052 992.307 262.317V273.817C992.307 274.082 992.202 274.336 992.014 274.524C991.827 274.712 991.572 274.817 991.307 274.817V274.817Z" fill="#3F3D56"/>
<path d="M984.307 280.817C984.042 280.817 983.788 280.712 983.6 280.524C983.413 280.336 983.307 280.082 983.307 279.817V268.317C983.307 268.052 983.413 267.797 983.6 267.61C983.788 267.422 984.042 267.317 984.307 267.317C984.572 267.317 984.827 267.422 985.014 267.61C985.202 267.797 985.307 268.052 985.307 268.317V279.817C985.307 280.082 985.202 280.336 985.014 280.524C984.827 280.712 984.572 280.817 984.307 280.817Z" fill="#3F3D56"/>
<path d="M998.307 283.817C998.042 283.817 997.788 283.712 997.6 283.524C997.413 283.336 997.307 283.082 997.307 282.817V271.317C997.307 271.052 997.413 270.797 997.6 270.61C997.788 270.422 998.042 270.317 998.307 270.317C998.572 270.317 998.827 270.422 999.014 270.61C999.202 270.797 999.307 271.052 999.307 271.317V282.817C999.307 283.082 999.202 283.336 999.014 283.524C998.827 283.712 998.572 283.817 998.307 283.817V283.817Z" fill="#3F3D56"/>
<path d="M1121.16 270.5H1117.15C1116.88 270.5 1116.63 270.395 1116.44 270.207C1116.25 270.02 1116.15 269.765 1116.15 269.5C1116.15 269.235 1116.25 268.98 1116.44 268.793C1116.63 268.605 1116.88 268.5 1117.15 268.5H1121.16C1123.26 268.457 1125.25 267.595 1126.71 266.099C1128.18 264.604 1129 262.594 1129 260.5C1129 258.406 1128.18 256.396 1126.71 254.901C1125.25 253.405 1123.26 252.543 1121.16 252.5H1119.2C1118.93 252.5 1118.68 252.395 1118.49 252.207C1118.31 252.02 1118.2 251.765 1118.2 251.5C1118.23 247.824 1116.8 244.286 1114.23 241.662C1111.66 239.037 1108.15 237.541 1104.47 237.5C1101.78 237.514 1099.16 238.317 1096.93 239.81C1094.69 241.302 1092.94 243.418 1091.9 245.895C1091.82 246.074 1091.69 246.227 1091.53 246.335C1091.37 246.443 1091.17 246.5 1090.98 246.5H1087.78C1084.9 246.558 1082.16 247.742 1080.14 249.799C1078.13 251.855 1077 254.62 1077 257.5C1077 260.38 1078.13 263.145 1080.14 265.201C1082.16 267.258 1084.9 268.442 1087.78 268.5H1090.88C1091.15 268.5 1091.4 268.605 1091.59 268.793C1091.78 268.98 1091.88 269.235 1091.88 269.5C1091.88 269.765 1091.78 270.02 1091.59 270.207C1091.4 270.395 1091.15 270.5 1090.88 270.5H1087.78C1084.37 270.442 1081.12 269.047 1078.73 266.616C1076.34 264.184 1075 260.91 1075 257.5C1075 254.09 1076.34 250.816 1078.73 248.384C1081.12 245.953 1084.37 244.558 1087.78 244.5H1090.33C1091.6 241.818 1093.6 239.549 1096.1 237.957C1098.6 236.364 1101.51 235.512 1104.47 235.5C1108.51 235.537 1112.37 237.108 1115.29 239.895C1118.2 242.681 1119.95 246.473 1120.17 250.5H1121.16C1123.79 250.543 1126.29 251.616 1128.13 253.487C1129.97 255.357 1131 257.876 1131 260.5C1131 263.124 1129.97 265.643 1128.13 267.513C1126.29 269.384 1123.79 270.457 1121.16 270.5V270.5Z" fill="#3F3D56"/>
<path d="M1102.75 268C1103.99 268 1105 266.993 1105 265.75C1105 264.507 1103.99 263.5 1102.75 263.5C1101.51 263.5 1100.5 264.507 1100.5 265.75C1100.5 266.993 1101.51 268 1102.75 268Z" fill="#3F3D56"/>
<path d="M1110.25 271C1111.49 271 1112.5 269.993 1112.5 268.75C1112.5 267.507 1111.49 266.5 1110.25 266.5C1109.01 266.5 1108 267.507 1108 268.75C1108 269.993 1109.01 271 1110.25 271Z" fill="#3F3D56"/>
<path d="M1097.75 274.5C1098.99 274.5 1100 273.493 1100 272.25C1100 271.007 1098.99 270 1097.75 270C1096.51 270 1095.5 271.007 1095.5 272.25C1095.5 273.493 1096.51 274.5 1097.75 274.5Z" fill="#3F3D56"/>
<path d="M1105.75 279.5C1106.99 279.5 1108 278.493 1108 277.25C1108 276.007 1106.99 275 1105.75 275C1104.51 275 1103.5 276.007 1103.5 277.25C1103.5 278.493 1104.51 279.5 1105.75 279.5Z" fill="#3F3D56"/>
<path d="M680 194.5H622C619.878 194.5 617.843 193.657 616.343 192.157C614.843 190.657 614 188.622 614 186.5C614 184.378 614.843 182.343 616.343 180.843C617.843 179.343 619.878 178.5 622 178.5H680C682.122 178.5 684.157 179.343 685.657 180.843C687.157 182.343 688 184.378 688 186.5C688 188.622 687.157 190.657 685.657 192.157C684.157 193.657 682.122 194.5 680 194.5Z" fill="#F9A826"/>
<path d="M793 194.5H735C732.878 194.5 730.843 193.657 729.343 192.157C727.843 190.657 727 188.622 727 186.5C727 184.378 727.843 182.343 729.343 180.843C730.843 179.343 732.878 178.5 735 178.5H793C795.122 178.5 797.157 179.343 798.657 180.843C800.157 182.343 801 184.378 801 186.5C801 188.622 800.157 190.657 798.657 192.157C797.157 193.657 795.122 194.5 793 194.5Z" fill="#F9A826"/>
<path d="M906 194.5H848C845.878 194.5 843.843 193.657 842.343 192.157C840.843 190.657 840 188.622 840 186.5C840 184.378 840.843 182.343 842.343 180.843C843.843 179.343 845.878 178.5 848 178.5H906C908.122 178.5 910.157 179.343 911.657 180.843C913.157 182.343 914 184.378 914 186.5C914 188.622 913.157 190.657 911.657 192.157C910.157 193.657 908.122 194.5 906 194.5Z" fill="#F9A826"/>
<path d="M1019 194.5H961C958.878 194.5 956.843 193.657 955.343 192.157C953.843 190.657 953 188.622 953 186.5C953 184.378 953.843 182.343 955.343 180.843C956.843 179.343 958.878 178.5 961 178.5H1019C1021.12 178.5 1023.16 179.343 1024.66 180.843C1026.16 182.343 1027 184.378 1027 186.5C1027 188.622 1026.16 190.657 1024.66 192.157C1023.16 193.657 1021.12 194.5 1019 194.5Z" fill="#F9A826"/>
<path d="M1132 194.5H1074C1071.88 194.5 1069.84 193.657 1068.34 192.157C1066.84 190.657 1066 188.622 1066 186.5C1066 184.378 1066.84 182.343 1068.34 180.843C1069.84 179.343 1071.88 178.5 1074 178.5H1132C1134.12 178.5 1136.16 179.343 1137.66 180.843C1139.16 182.343 1140 184.378 1140 186.5C1140 188.622 1139.16 190.657 1137.66 192.157C1136.16 193.657 1134.12 194.5 1132 194.5Z" fill="#F9A826"/>
<path d="M705 288.5C704.735 288.5 704.48 288.395 704.293 288.207C704.105 288.02 704 287.765 704 287.5V211.5C704 211.235 704.105 210.98 704.293 210.793C704.48 210.605 704.735 210.5 705 210.5C705.265 210.5 705.52 210.605 705.707 210.793C705.895 210.98 706 211.235 706 211.5V287.5C706 287.765 705.895 288.02 705.707 288.207C705.52 288.395 705.265 288.5 705 288.5Z" fill="#E6E6E6"/>
<path d="M818 287.5C817.735 287.5 817.48 287.395 817.293 287.207C817.105 287.02 817 286.765 817 286.5V210.5C817 210.235 817.105 209.98 817.293 209.793C817.48 209.605 817.735 209.5 818 209.5C818.265 209.5 818.52 209.605 818.707 209.793C818.895 209.98 819 210.235 819 210.5V286.5C819 286.765 818.895 287.02 818.707 287.207C818.52 287.395 818.265 287.5 818 287.5Z" fill="#E6E6E6"/>
<path d="M937 287.5C936.735 287.5 936.48 287.395 936.293 287.207C936.105 287.02 936 286.765 936 286.5V210.5C936 210.235 936.105 209.98 936.293 209.793C936.48 209.605 936.735 209.5 937 209.5C937.265 209.5 937.52 209.605 937.707 209.793C937.895 209.98 938 210.235 938 210.5V286.5C938 286.765 937.895 287.02 937.707 287.207C937.52 287.395 937.265 287.5 937 287.5Z" fill="#E6E6E6"/>
<path d="M1050 287.5C1049.73 287.5 1049.48 287.395 1049.29 287.207C1049.11 287.02 1049 286.765 1049 286.5V210.5C1049 210.235 1049.11 209.98 1049.29 209.793C1049.48 209.605 1049.73 209.5 1050 209.5C1050.27 209.5 1050.52 209.605 1050.71 209.793C1050.89 209.98 1051 210.235 1051 210.5V286.5C1051 286.765 1050.89 287.02 1050.71 287.207C1050.52 287.395 1050.27 287.5 1050 287.5Z" fill="#E6E6E6"/>
<path d="M1388.2 542H1084.8C1084.59 542 1084.38 541.895 1084.23 541.707C1084.08 541.52 1084 541.265 1084 541C1084 540.735 1084.08 540.48 1084.23 540.293C1084.38 540.105 1084.59 540 1084.8 540H1388.2C1388.41 540 1388.62 540.105 1388.77 540.293C1388.92 540.48 1389 540.735 1389 541C1389 541.265 1388.92 541.52 1388.77 541.707C1388.62 541.895 1388.41 542 1388.2 542Z" fill="#3F3D56"/>
</g>
<path d="M371.358 100.399C371.326 101.041 371.345 101.686 371.415 102.326L327.245 139.399L314.072 134.629L304.276 153.569L333.075 167.278L381.364 113.084C383.802 113.527 386.317 113.216 388.575 112.194C390.832 111.172 392.725 109.487 394.002 107.362C395.278 105.238 395.878 102.776 395.721 100.302C395.564 97.8287 394.658 95.4617 393.123 93.5159C391.588 91.5701 389.497 90.1377 387.129 89.4092C384.76 88.6808 382.226 88.6907 379.863 89.4377C377.5 90.1848 375.421 91.6335 373.901 93.5913C372.382 95.5491 371.494 97.9231 371.357 100.398L371.358 100.399Z" fill="#A0616A"/>
<path d="M312.117 162.655L269.463 147.253C267.524 146.554 265.742 145.478 264.219 144.09C262.695 142.701 261.46 141.026 260.584 139.16C259.708 137.294 259.208 135.273 259.112 133.214C259.017 131.154 259.328 129.096 260.028 127.157C260.728 125.218 261.802 123.436 263.191 121.912C264.58 120.388 266.255 119.153 268.121 118.277C271.889 116.507 276.206 116.307 280.122 117.721L322.776 133.122C324.081 133.593 325.145 134.563 325.735 135.819C326.325 137.075 326.392 138.514 325.921 139.819L325.921 139.82L318.815 159.509C318.342 160.813 317.372 161.876 316.116 162.466C314.861 163.056 313.423 163.123 312.117 162.654L312.117 162.655Z" fill="#CCCCCC"/>
<path d="M280.879 312.657H295.134L301.915 257.666H280.877L280.879 312.657Z" fill="#A0616A"/>
<path d="M322.624 325.896L277.823 325.898L277.822 308.586L305.313 308.585C307.587 308.585 309.838 309.032 311.938 309.902C314.038 310.772 315.946 312.047 317.554 313.655C319.161 315.262 320.436 317.171 321.306 319.271C322.176 321.371 322.624 323.622 322.624 325.896V325.896Z" fill="#2F2E41"/>
<path d="M245.648 294.239L257.31 302.439L294.484 261.357L277.274 249.256L245.648 294.239Z" fill="#A0616A"/>
<path d="M270.78 326.271L234.132 300.506L244.085 286.345L266.574 302.155C268.433 303.462 270.017 305.123 271.235 307.043C272.452 308.962 273.28 311.102 273.671 313.342C274.061 315.581 274.007 317.875 273.511 320.094C273.015 322.312 272.087 324.411 270.78 326.271V326.271Z" fill="#2F2E41"/>
<path d="M312.071 213.599C312.071 213.599 347.645 209.402 341.26 232.489C334.875 255.575 263.726 275.514 263.726 275.514L312.071 213.599Z" fill="#A0616A"/>
<path d="M287.585 95.7958C303.358 95.7958 316.144 83.0084 316.144 67.2344C316.144 51.4603 303.358 38.673 287.585 38.673C271.813 38.673 259.027 51.4603 259.027 67.2344C259.027 83.0084 271.813 95.7958 287.585 95.7958Z" fill="#A0616A"/>
<path d="M196.51 270.787C180.259 251.86 174.574 222.82 200.488 198.664C206.888 192.844 214.135 188.031 221.981 184.389L242.865 125.972C245.035 119.871 249.013 114.577 254.269 110.796C259.525 107.015 265.808 104.927 272.282 104.81C278.566 104.539 284.781 106.22 290.072 109.623C295.362 113.026 299.47 117.984 301.83 123.815C304.381 129.748 304.672 136.409 302.65 142.542C296.432 161.905 288.267 180.588 278.28 198.303L279.36 206.943L332.153 211.636L331.66 212.437C331.403 212.854 305.566 252.226 272.512 278.359C261.21 287.294 249.523 290.997 238.493 290.997C221.768 291 206.555 282.484 196.51 270.787Z" fill="#CCCCCC"/>
<path d="M191.528 76.196C196.58 70.1746 198.748 62.2994 200.492 54.6339C203.25 42.5066 205.384 29.9665 211.513 19.1437C217.641 8.32093 228.902 -0.646267 241.32 0.0365935C253.667 0.715743 263.648 10.6497 268.946 21.9522C270.228 21.4542 271.601 21.2312 272.976 21.2975C274.35 21.3639 275.695 21.718 276.924 22.3372C280.742 24.4285 282.17 30.3729 278.992 33.3492C282.335 31.7573 285.976 30.8869 289.677 30.7946C293.379 30.7024 297.058 31.3904 300.476 32.8139C304.872 34.6854 308.666 37.7332 311.442 41.6221C314.217 45.5109 315.866 50.09 316.207 54.8557C316.341 56.7898 316.075 58.7307 315.428 60.558C314.78 62.3854 313.764 64.0603 312.443 65.479C306.964 71.12 299.214 69.1744 292.323 67.7372C285.814 66.3799 277.887 66.0134 274.22 72.2157C272.775 74.8 272.37 77.8383 273.089 80.7107C274.493 86.9019 279.077 91.2143 283.524 95.3421L284.251 96.6929C268.551 99.7547 251.41 89.0312 247.288 73.5731C243.165 58.115 252.705 40.2818 267.847 35.1251C266.839 35.1575 265.841 34.9199 264.955 34.4368C264.07 33.9538 263.33 33.2428 262.811 32.3775C262.293 31.5122 262.015 30.5241 262.007 29.5154C261.998 28.5067 262.26 27.5141 262.764 26.6403C258.574 24.2912 253.831 23.1063 249.029 23.2084C241.208 23.7215 234.439 29.2892 230.368 35.9888C226.298 42.6885 224.454 50.4625 222.588 58.077C220.721 65.6914 218.701 73.4497 214.348 79.9731C211.333 84.4886 207.305 88.2371 202.585 90.9192C197.865 93.6014 192.583 95.143 187.161 95.4212C181.739 95.6993 176.327 94.7062 171.357 92.5212C166.388 90.3362 161.997 87.0196 158.536 82.8362C164.005 85.4885 170.193 86.2752 176.151 85.0759C182.11 83.8766 187.511 80.7575 191.528 76.196V76.196Z" fill="#2F2E41"/>
<path d="M411.831 153.891C404.71 153.891 397.75 151.779 391.829 147.823C385.909 143.867 381.295 138.243 378.57 131.664C375.845 125.085 375.132 117.846 376.521 110.862C377.91 103.878 381.339 97.4622 386.374 92.4269C391.409 87.3915 397.824 83.9624 404.807 82.5731C411.791 81.1839 419.029 81.8969 425.607 84.622C432.186 87.3471 437.808 91.9619 441.764 97.8829C445.72 103.804 447.831 110.765 447.831 117.886C447.821 127.432 444.024 136.583 437.275 143.333C430.526 150.083 421.375 153.88 411.831 153.891ZM411.831 87.8821C405.897 87.8821 400.097 89.6418 395.163 92.9387C390.229 96.2356 386.384 100.922 384.113 106.404C381.843 111.887 381.249 117.919 382.406 123.74C383.564 129.56 386.421 134.906 390.617 139.102C394.812 143.298 400.158 146.156 405.978 147.313C411.797 148.471 417.829 147.877 423.311 145.606C428.793 143.335 433.479 139.489 436.775 134.555C440.072 129.621 441.831 123.82 441.831 117.886C441.822 109.931 438.659 102.305 433.034 96.68C427.41 91.0551 419.784 87.8911 411.831 87.8821Z" fill="#F9A826"/>
<path d="M410.649 72.8801C409.853 72.8801 409.09 72.564 408.528 72.0013C407.965 71.4386 407.649 70.6755 407.649 69.8798V35.3752C407.649 34.5795 407.965 33.8163 408.528 33.2536C409.09 32.691 409.853 32.3748 410.649 32.3748C411.445 32.3748 412.208 32.691 412.77 33.2536C413.333 33.8163 413.649 34.5795 413.649 35.3752V69.8798C413.649 70.6755 413.333 71.4387 412.77 72.0013C412.208 72.564 411.445 72.8801 410.649 72.8801Z" fill="#F9A826"/>
<path d="M363.829 119.706H329.328C328.533 119.706 327.77 119.389 327.207 118.827C326.644 118.264 326.328 117.501 326.328 116.705C326.328 115.909 326.644 115.146 327.207 114.584C327.77 114.021 328.533 113.705 329.328 113.705H363.829C364.625 113.705 365.388 114.021 365.951 114.584C366.513 115.146 366.829 115.909 366.829 116.705C366.829 117.501 366.513 118.264 365.951 118.827C365.388 119.389 364.625 119.706 363.829 119.706H363.829Z" fill="#F9A826"/>
<path d="M489.832 119.706H455.331C454.536 119.706 453.773 119.389 453.21 118.827C452.647 118.264 452.331 117.501 452.331 116.705C452.331 115.909 452.647 115.146 453.21 114.584C453.773 114.021 454.536 113.705 455.331 113.705H489.832C490.628 113.705 491.391 114.021 491.954 114.584C492.516 115.146 492.832 115.909 492.832 116.705C492.832 117.501 492.516 118.264 491.954 118.827C491.391 119.389 490.628 119.706 489.832 119.706Z" fill="#F9A826"/>
<path d="M454.384 86.8991C453.786 86.8991 453.203 86.7208 452.707 86.3871C452.212 86.0534 451.828 85.5794 451.603 85.0258C451.379 84.4722 451.325 83.8643 451.448 83.2798C451.571 82.6954 451.866 82.161 452.295 81.7451L466.743 67.7261C467.026 67.451 467.36 67.2343 467.726 67.0885C468.092 66.9426 468.484 66.8704 468.878 66.8761C469.273 66.8817 469.662 66.9651 470.024 67.1214C470.386 67.2777 470.714 67.5039 470.989 67.787C471.263 68.0702 471.48 68.4047 471.625 68.7714C471.77 69.1381 471.842 69.5299 471.835 69.9243C471.829 70.3187 471.745 70.708 471.588 71.0699C471.431 71.4318 471.204 71.7592 470.921 72.0333L456.473 86.0523C455.913 86.5964 455.164 86.9003 454.384 86.8991V86.8991Z" fill="#F9A826"/>
<path d="M366.277 86.8991C365.497 86.9001 364.747 86.5963 364.188 86.0523L349.74 72.0333C349.456 71.7592 349.23 71.4318 349.073 71.0699C348.916 70.708 348.832 70.3187 348.826 69.9243C348.819 69.5299 348.891 69.1381 349.036 68.7714C349.181 68.4047 349.397 68.0702 349.672 67.787C349.947 67.5039 350.274 67.2777 350.636 67.1214C350.999 66.9651 351.388 66.8817 351.782 66.8761C352.177 66.8704 352.568 66.9426 352.935 67.0885C353.301 67.2343 353.635 67.451 353.918 67.7261L368.366 81.7451C368.795 82.161 369.09 82.6954 369.213 83.2798C369.336 83.8643 369.282 84.4722 369.057 85.0258C368.833 85.5794 368.449 86.0534 367.953 86.3871C367.458 86.7208 366.874 86.8991 366.277 86.8991V86.8991Z" fill="#F9A826"/>
<path d="M354.829 168.893C354.24 168.893 353.663 168.719 353.172 168.393C352.68 168.067 352.296 167.604 352.066 167.06C351.837 166.517 351.772 165.919 351.881 165.339C351.989 164.76 352.266 164.225 352.676 163.802L367.125 148.921C367.679 148.351 368.437 148.025 369.233 148.013C370.028 148.002 370.795 148.307 371.366 148.861C371.936 149.415 372.264 150.173 372.276 150.968C372.288 151.764 371.983 152.531 371.43 153.103L356.982 167.983C356.702 168.271 356.368 168.5 355.998 168.656C355.628 168.813 355.231 168.893 354.829 168.893V168.893Z" fill="#F9A826"/>
<path d="M471.832 171.893C471.432 171.894 471.035 171.814 470.666 171.659C470.298 171.503 469.964 171.275 469.685 170.988L452.237 153.107C451.961 152.825 451.744 152.492 451.597 152.126C451.45 151.76 451.377 151.369 451.381 150.974C451.386 150.58 451.468 150.19 451.623 149.828C451.779 149.465 452.004 149.137 452.286 148.862C452.568 148.586 452.902 148.369 453.268 148.223C453.634 148.077 454.025 148.004 454.42 148.009C454.814 148.014 455.203 148.097 455.565 148.253C455.928 148.409 456.255 148.634 456.53 148.917L473.979 166.798C474.391 167.22 474.67 167.755 474.78 168.335C474.89 168.915 474.826 169.514 474.597 170.058C474.368 170.602 473.983 171.067 473.491 171.393C472.999 171.719 472.422 171.893 471.832 171.893V171.893Z" fill="#F9A826"/>
<path d="M410.649 201.897C409.853 201.897 409.09 201.581 408.528 201.018C407.965 200.456 407.649 199.692 407.649 198.897V164.392C407.649 163.998 407.727 163.608 407.877 163.244C408.028 162.88 408.249 162.549 408.528 162.271C408.806 161.992 409.137 161.771 409.501 161.62C409.865 161.469 410.255 161.392 410.649 161.392C411.043 161.392 411.433 161.469 411.797 161.62C412.161 161.771 412.492 161.992 412.77 162.271C413.049 162.549 413.27 162.88 413.421 163.244C413.571 163.608 413.649 163.998 413.649 164.392V198.897C413.649 199.692 413.333 200.456 412.77 201.018C412.208 201.581 411.445 201.897 410.649 201.897V201.897Z" fill="#F9A826"/>
<path d="M372.789 140.286C372.487 140.854 372.231 141.445 372.023 142.054L316.284 156.837L306.388 146.919L289.471 159.898L309.713 184.55L376.454 156.022C378.473 157.459 380.882 158.247 383.36 158.281C385.838 158.316 388.268 157.595 390.326 156.215C392.384 154.835 393.973 152.861 394.883 150.555C395.792 148.25 395.977 145.722 395.415 143.308C394.853 140.894 393.569 138.709 391.735 137.043C389.9 135.376 387.602 134.308 385.146 133.98C382.689 133.652 380.192 134.079 377.984 135.205C375.777 136.332 373.964 138.103 372.788 140.285L372.789 140.286Z" fill="#A0616A"/>
<path d="M292.706 171.456L260.642 139.384C259.183 137.926 258.026 136.196 257.236 134.291C256.446 132.386 256.04 130.344 256.039 128.282C256.039 126.219 256.444 124.177 257.233 122.272C258.022 120.367 259.179 118.636 260.637 117.177C262.095 115.719 263.826 114.563 265.731 113.774C267.636 112.985 269.678 112.579 271.74 112.579C273.802 112.58 275.843 112.987 277.748 113.776C279.653 114.566 281.383 115.724 282.841 117.182V117.182L314.907 149.252C315.888 150.233 316.439 151.564 316.44 152.951C316.44 154.339 315.889 155.67 314.908 156.651L314.907 156.652L300.107 171.454C299.125 172.434 297.794 172.984 296.407 172.984C295.02 172.984 293.689 172.434 292.707 171.454L292.706 171.456Z" fill="#CCCCCC"/>
<path d="M632.528 586.513H300.335C228.668 586.513 170.364 527.221 170.364 454.341C170.364 381.461 228.668 322.169 300.335 322.169H323.968C336.97 295.657 357.005 273.226 381.886 257.327C407.131 241.184 436.467 232.601 466.432 232.592C549.547 232.592 618.824 297.958 625.271 381.887H632.528C688.059 381.887 733.237 427.785 733.237 484.2C733.237 540.616 688.059 586.513 632.528 586.513ZM300.335 327.736C231.738 327.736 175.93 384.53 175.93 454.341C175.93 524.151 231.738 580.946 300.335 580.946H632.528C684.99 580.946 727.671 537.546 727.671 484.2C727.671 430.854 684.99 387.454 632.528 387.454H620.055L619.896 384.84C614.881 302.589 547.471 238.159 466.432 238.159C408.076 238.159 353.824 272.7 328.22 326.155L327.463 327.736H300.335Z" fill="#3F3D56"/>
<path d="M787.159 1042.06C784.725 1022.52 772.596 1003.25 753.932 996.891C761.292 1017.01 761.291 1039.09 753.927 1059.21C751.059 1066.96 747.061 1075.28 749.759 1083.09C751.438 1087.95 755.544 1091.67 760.134 1093.99C764.724 1096.32 769.818 1097.42 774.849 1098.51L775.839 1099.33C783.824 1081.32 789.593 1061.61 787.159 1042.06Z" fill="#F0F0F0"/>
<path d="M753.747 997.261C764.616 1009.43 771.372 1024.7 773.054 1040.92C773.478 1044.41 773.35 1047.94 772.673 1051.38C771.906 1054.72 770.259 1057.79 767.903 1060.27C765.752 1062.63 763.279 1064.8 761.741 1067.64C760.975 1069.1 760.528 1070.71 760.429 1072.37C760.33 1074.02 760.581 1075.67 761.167 1077.22C762.525 1081.11 765.202 1084.28 767.929 1087.29C770.955 1090.63 774.152 1094.06 775.439 1098.49C775.595 1099.03 776.42 1098.76 776.264 1098.22C774.026 1090.51 766.532 1086.13 762.958 1079.18C761.29 1075.94 760.59 1072.18 762.153 1068.76C763.52 1065.76 766.069 1063.53 768.267 1061.16C770.601 1058.77 772.314 1055.84 773.256 1052.64C774.105 1049.24 774.37 1045.72 774.037 1042.23C773.415 1034.37 771.558 1026.65 768.534 1019.36C765.13 1011.02 760.323 1003.33 754.322 996.61C753.95 996.194 753.377 996.848 753.747 997.261H753.747Z" fill="white"/>
<path d="M772.82 1035.67C775.506 1035.02 777.872 1033.43 779.497 1031.2C781.122 1028.97 781.899 1026.23 781.689 1023.48C781.645 1022.92 780.777 1022.96 780.821 1023.52C781.021 1026.08 780.297 1028.63 778.779 1030.71C777.262 1032.79 775.052 1034.25 772.547 1034.84C772.003 1034.97 772.279 1035.8 772.82 1035.67V1035.67Z" fill="white"/>
<path d="M769.151 1059.22C764.3 1056.32 760.719 1051.71 759.122 1046.3C758.964 1045.76 758.139 1046.03 758.296 1046.57C759.969 1052.2 763.705 1056.99 768.76 1059.99C769.242 1060.28 769.63 1059.5 769.151 1059.22Z" fill="white"/>
<path d="M764.324 1011.85C763.337 1012.31 762.25 1012.53 761.159 1012.48C760.068 1012.42 759.008 1012.09 758.073 1011.53C757.595 1011.24 757.208 1012.02 757.683 1012.3C758.718 1012.92 759.889 1013.28 761.094 1013.35C762.299 1013.41 763.502 1013.18 764.596 1012.67C764.704 1012.63 764.792 1012.55 764.843 1012.45C764.895 1012.35 764.905 1012.23 764.873 1012.12C764.836 1012.01 764.758 1011.92 764.655 1011.87C764.552 1011.82 764.433 1011.81 764.324 1011.85L764.324 1011.85Z" fill="white"/>
<path d="M697.04 1031.81C697.333 1032 697.627 1032.19 697.92 1032.39C701.851 1034.97 705.565 1037.87 709.027 1041.05C709.298 1041.29 709.57 1041.54 709.834 1041.79C718.09 1049.55 724.834 1058.77 729.721 1068.98C731.662 1073.05 733.29 1077.26 734.592 1081.57C736.39 1087.53 737.864 1094.13 741.422 1099.01C741.787 1099.52 742.184 1100.01 742.61 1100.47H774.763C774.836 1100.43 774.91 1100.41 774.983 1100.37L776.267 1100.43C776.215 1100.2 776.157 1099.97 776.105 1099.74C776.076 1099.61 776.039 1099.47 776.01 1099.34C775.988 1099.25 775.966 1099.17 775.951 1099.09C775.944 1099.06 775.937 1099.03 775.929 1099.01C775.915 1098.92 775.893 1098.85 775.878 1098.78C775.555 1097.47 775.223 1096.15 774.88 1094.84C774.88 1094.84 774.88 1094.84 774.873 1094.83C772.36 1084.81 768.667 1075.12 763.869 1065.97C763.723 1065.7 763.576 1065.42 763.414 1065.15C761.193 1061.1 758.644 1057.24 755.792 1053.6C754.225 1051.62 752.557 1049.71 750.797 1047.89C746.239 1043.21 740.971 1039.26 735.186 1036.21C723.654 1030.13 710.303 1027.8 697.979 1031.52C697.664 1031.61 697.355 1031.71 697.04 1031.81Z" fill="#F0F0F0"/>
<path d="M697.112 1032.22C713.123 1035.39 727.725 1043.53 738.844 1055.47C741.283 1057.99 743.308 1060.89 744.845 1064.05C746.242 1067.17 746.777 1070.61 746.392 1074.01C746.098 1077.19 745.428 1080.41 745.912 1083.6C746.184 1085.23 746.798 1086.79 747.714 1088.16C748.63 1089.54 749.827 1090.71 751.227 1091.59C754.657 1093.88 758.707 1094.81 762.699 1095.57C767.131 1096.42 771.747 1097.23 775.446 1100C775.894 1100.33 776.389 1099.62 775.941 1099.28C769.506 1094.47 760.882 1095.48 753.842 1092.09C750.557 1090.5 747.73 1087.92 746.916 1084.25C746.204 1081.03 746.892 1077.72 747.218 1074.5C747.641 1071.19 747.247 1067.83 746.068 1064.7C744.698 1061.48 742.787 1058.51 740.42 1055.92C735.182 1050.02 729.047 1044.97 722.24 1040.97C714.496 1036.36 706.02 1033.11 697.179 1031.35C696.632 1031.24 696.568 1032.11 697.112 1032.22V1032.22Z" fill="white"/>
<path d="M735.49 1051.41C737.242 1049.28 738.177 1046.59 738.128 1043.83C738.079 1041.07 737.05 1038.41 735.223 1036.34C734.852 1035.92 734.184 1036.48 734.556 1036.9C736.26 1038.83 737.219 1041.3 737.259 1043.87C737.3 1046.44 736.419 1048.94 734.776 1050.92C734.419 1051.35 735.136 1051.84 735.49 1051.41V1051.41Z" fill="white"/>
<path d="M746.754 1072.42C741.137 1073.03 735.497 1071.5 730.959 1068.14C730.51 1067.8 730.015 1068.52 730.464 1068.85C735.193 1072.34 741.066 1073.92 746.91 1073.28C747.467 1073.21 747.308 1072.36 746.754 1072.42V1072.42Z" fill="white"/>
<path d="M714.348 1037.5C713.843 1038.47 713.105 1039.29 712.2 1039.91C711.296 1040.52 710.253 1040.9 709.167 1041.01C708.609 1041.06 708.768 1041.92 709.322 1041.86C710.522 1041.73 711.673 1041.31 712.674 1040.64C713.674 1039.97 714.495 1039.06 715.063 1037.99C715.125 1037.9 715.148 1037.78 715.128 1037.67C715.107 1037.56 715.045 1037.46 714.953 1037.39C714.858 1037.33 714.741 1037.3 714.628 1037.32C714.515 1037.34 714.414 1037.41 714.348 1037.5V1037.5Z" fill="white"/>
<path d="M120.446 664.849C91.5653 680.065 68.8097 710.11 69.8803 742.708C96.7621 719.535 130.983 706.607 166.488 706.212C180.182 706.109 195.423 707.418 205.95 698.67C212.501 693.227 215.859 684.698 216.775 676.236C217.69 667.773 216.424 659.244 215.161 650.827L215.849 648.816C183.247 647.015 149.326 649.633 120.446 664.849Z" fill="#F0F0F0"/>
<path d="M70.5619 742.778C83.0544 718.838 102.781 699.439 126.939 687.336C132.093 684.638 137.641 682.769 143.378 681.797C148.997 681.031 154.719 681.781 159.95 683.971C164.868 685.915 169.674 688.472 174.979 689.188C177.7 689.514 180.46 689.262 183.077 688.448C185.693 687.634 188.108 686.277 190.163 684.465C195.401 680.084 198.75 674.084 201.822 668.103C205.232 661.463 208.668 654.511 214.786 649.925C215.528 649.369 214.621 648.252 213.881 648.807C203.237 656.787 200.836 670.946 192.162 680.543C188.114 685.022 182.691 688.309 176.471 687.894C171.032 687.532 166.075 684.899 161.112 682.888C156.041 680.677 150.505 679.74 144.987 680.159C139.219 680.836 133.609 682.489 128.396 685.046C116.567 690.617 105.69 698.011 96.1608 706.957C85.2289 717.107 76.1157 729.05 69.2154 742.269C68.7887 743.088 70.1379 743.591 70.5618 742.778H70.5619Z" fill="white"/>
<path d="M118.93 690.776C116.347 687.003 112.505 684.27 108.091 683.065C103.677 681.86 98.978 682.261 94.833 684.198C93.9956 684.593 94.5703 685.911 95.4088 685.516C99.2653 683.705 103.643 683.332 107.751 684.462C111.859 685.593 115.427 688.153 117.812 691.68C118.331 692.446 119.446 691.537 118.93 690.776H118.93Z" fill="white"/>
<path d="M157.586 682.657C155.942 691.856 150.888 700.098 143.431 705.739C142.692 706.298 143.598 707.414 144.337 706.857C152.086 700.971 157.328 692.384 159.017 682.808C159.178 681.895 157.746 681.749 157.586 682.657V682.657Z" fill="white"/>
<path d="M86.9765 717.872C88.2804 719.124 89.2527 720.68 89.806 722.4C90.3593 724.12 90.4763 725.95 90.1464 727.727C89.9745 728.637 91.4068 728.782 91.5776 727.877C91.9329 725.913 91.8013 723.892 91.1942 721.99C90.5871 720.088 89.523 718.364 88.095 716.968C87.9714 716.825 87.798 716.734 87.61 716.715C87.422 716.695 87.2336 716.747 87.083 716.861C86.9355 716.982 86.8415 717.156 86.8216 717.345C86.8017 717.534 86.8573 717.724 86.9765 717.872Z" fill="white"/>
<path d="M157.336 810.258C157.46 809.693 157.583 809.128 157.718 808.557C159.418 800.964 161.733 793.522 164.64 786.304C164.855 785.742 165.083 785.176 165.314 784.622C172.503 767.306 182.847 751.474 195.822 737.93C200.989 732.545 206.56 727.561 212.485 723.02C220.667 716.75 230.039 710.602 235.509 702.244C236.09 701.378 236.616 700.478 237.085 699.547L218.251 649.811C218.151 649.719 218.063 649.623 217.963 649.53L217.302 647.51C216.98 647.723 216.65 647.951 216.329 648.164C216.141 648.286 215.958 648.42 215.771 648.543C215.647 648.628 215.524 648.714 215.408 648.784C215.366 648.812 215.325 648.841 215.296 648.865C215.179 648.935 215.079 649.012 214.974 649.078C213.129 650.345 211.291 651.628 209.458 652.926C209.446 652.93 209.446 652.93 209.439 652.946C195.498 662.87 182.265 674.045 171.149 686.871C170.815 687.257 170.469 687.646 170.144 688.055C165.166 693.864 160.671 700.07 156.705 706.61C154.545 710.198 152.568 713.894 150.782 717.682C146.186 727.478 143.161 737.936 141.819 748.671C139.145 770.073 143.353 792.09 156.332 808.978C156.664 809.41 156.992 809.831 157.336 810.258Z" fill="#F0F0F0"/>
<path d="M157.926 809.908C153.471 783.28 157.529 755.928 169.524 731.735C172.013 726.481 175.316 721.652 179.311 717.426C183.336 713.434 188.357 710.592 193.853 709.195C198.952 707.789 204.33 706.941 208.997 704.321C211.367 702.945 213.418 701.084 215.017 698.86C216.616 696.637 217.726 694.101 218.274 691.418C219.816 684.77 218.874 677.966 217.722 671.343C216.442 663.99 214.996 656.373 217.116 649.031C217.373 648.142 215.976 647.795 215.72 648.684C212.031 661.457 218.648 674.205 217.506 687.085C216.974 693.095 214.625 698.981 209.409 702.391C204.848 705.373 199.303 706.252 194.128 707.631C188.746 708.916 183.761 711.497 179.609 715.15C175.411 719.159 171.928 723.853 169.307 729.031C163.22 740.592 158.991 753.038 156.775 765.911C154.164 780.59 154.086 795.607 156.544 810.312C156.697 811.222 158.077 810.812 157.926 809.908H157.926Z" fill="white"/>
<path d="M165.202 739.298C160.866 737.839 156.151 737.967 151.9 739.66C147.65 741.352 144.14 744.499 141.997 748.538C141.567 749.357 142.82 750.064 143.252 749.244C145.24 745.479 148.509 742.548 152.471 740.98C156.432 739.412 160.824 739.31 164.854 740.693C165.731 740.992 166.073 739.596 165.202 739.298V739.298Z" fill="white"/>
<path d="M191.174 709.567C195.406 717.9 196.338 727.521 193.784 736.51C193.53 737.4 194.927 737.747 195.18 736.857C197.82 727.498 196.83 717.489 192.407 708.827C191.985 708.001 190.754 708.746 191.174 709.567H191.174Z" fill="white"/>
<path d="M156.021 780.15C157.817 780.366 159.531 781.023 161.009 782.064C162.488 783.104 163.684 784.495 164.491 786.112C164.903 786.942 166.134 786.196 165.725 785.371C164.825 783.589 163.501 782.055 161.87 780.901C160.239 779.748 158.351 779.011 156.369 778.756C156.184 778.716 155.991 778.748 155.829 778.845C155.667 778.942 155.548 779.098 155.497 779.279C155.452 779.464 155.481 779.659 155.579 779.823C155.678 779.986 155.836 780.104 156.021 780.15V780.15Z" fill="white"/>
<path d="M440.762 613.65H437.97V537.23C437.97 531.421 436.824 525.67 434.599 520.304C432.374 514.938 429.113 510.062 425.001 505.955C420.889 501.848 416.008 498.59 410.636 496.367C405.264 494.144 399.507 493 393.692 493H231.61C219.867 493 208.604 497.66 200.301 505.955C191.997 514.249 187.332 525.499 187.332 537.23V956.476C187.332 968.206 191.997 979.456 200.3 987.751C208.604 996.046 219.866 1000.71 231.61 1000.71H393.692C405.435 1000.71 416.697 996.046 425.001 987.751C433.305 979.456 437.97 968.206 437.97 956.476V668.047H440.762V613.65Z" fill="#3F3D56"/>
<path d="M395.478 504.507H374.321C375.294 506.89 375.665 509.475 375.403 512.035C375.14 514.595 374.251 517.051 372.814 519.187C371.377 521.323 369.436 523.073 367.162 524.283C364.889 525.493 362.352 526.126 359.776 526.126H266.921C264.345 526.126 261.809 525.493 259.535 524.283C257.261 523.073 255.321 521.323 253.884 519.187C252.447 517.051 251.558 514.595 251.295 512.035C251.032 509.475 251.403 506.89 252.376 504.507H232.616C223.846 504.507 215.435 507.987 209.234 514.181C203.033 520.376 199.549 528.777 199.549 537.537V956.168C199.549 964.928 203.033 973.33 209.234 979.524C215.435 985.718 223.846 989.198 232.616 989.198H395.478C404.248 989.198 412.658 985.718 418.86 979.524C425.061 973.33 428.544 964.928 428.544 956.168V956.168V537.537C428.544 533.2 427.689 528.905 426.027 524.897C424.366 520.89 421.93 517.249 418.86 514.181C415.789 511.114 412.144 508.681 408.132 507.021C404.12 505.361 399.821 504.507 395.478 504.507V504.507Z" fill="white"/>
<path d="M314.095 750.122C294.797 750.122 275.932 744.405 259.887 733.696C243.841 722.986 231.335 707.764 223.95 689.954C216.565 672.144 214.632 652.547 218.397 633.641C222.162 614.734 231.455 597.367 245.101 583.736C258.747 570.105 276.132 560.823 295.059 557.062C313.987 553.301 333.605 555.231 351.434 562.608C369.263 569.985 384.502 582.478 395.223 598.506C405.945 614.534 411.667 633.379 411.667 652.656C411.638 678.496 401.348 703.27 383.056 721.542C364.764 739.814 339.964 750.092 314.095 750.122V750.122ZM314.095 556.908C295.137 556.908 276.605 562.523 260.843 573.044C245.08 583.565 232.794 598.519 225.54 616.014C218.285 633.51 216.387 652.761 220.085 671.335C223.783 689.908 232.912 706.968 246.317 720.359C259.722 733.749 276.802 742.868 295.395 746.563C313.988 750.257 333.261 748.361 350.775 741.114C368.29 733.868 383.26 721.595 393.792 705.85C404.325 690.104 409.946 671.593 409.946 652.656C409.918 627.271 399.81 602.933 381.84 584.983C363.871 567.034 339.507 556.937 314.095 556.908V556.908Z" fill="#3F3D56"/>
<path d="M302.849 661.076C299.482 651.106 287.462 645.005 277.416 648.166C268.728 650.9 262.818 660.154 263.29 669.136C260.385 658.165 249.206 649.585 237.742 650.389C224.858 651.292 213.979 663.879 214.965 676.744C214.511 673.369 212.919 670.25 210.45 667.901C207.982 665.553 204.785 664.116 201.389 663.827C197.992 663.539 194.599 664.416 191.769 666.314C188.939 668.213 186.842 671.018 185.824 674.268L185.828 674.03C183.778 672.879 181.002 674.895 180.879 677.241C180.757 679.587 182.6 681.677 184.762 682.602C186.923 683.528 189.351 683.539 191.703 683.536C221.049 683.498 250.396 683.461 279.743 683.423C286.56 683.414 294.075 683.147 299.086 678.53C303.718 674.263 304.863 667.04 302.849 661.076Z" fill="#E4E4E4"/>
<path d="M373.006 706.593C372.035 704.024 370.139 701.911 367.688 700.667C365.237 699.423 362.41 699.139 359.761 699.87C355.236 701.294 352.158 706.113 352.404 710.791C350.891 705.077 345.069 700.609 339.098 701.027C332.388 701.498 326.722 708.053 327.236 714.753C326.999 712.996 326.17 711.371 324.884 710.148C323.599 708.925 321.934 708.177 320.165 708.026C318.396 707.876 316.629 708.333 315.155 709.322C313.681 710.31 312.589 711.771 312.059 713.464L312.061 713.34C310.993 712.741 309.547 713.791 309.483 715.013C309.505 715.626 309.709 716.219 310.069 716.716C310.43 717.213 310.929 717.592 311.506 717.805C312.665 718.209 313.895 718.374 315.12 718.291C330.404 718.271 345.689 718.252 360.973 718.232C364.523 718.227 368.437 718.088 371.047 715.684C373.459 713.461 374.055 709.699 373.006 706.593Z" fill="#E4E4E4"/>
<path d="M333.437 630.283C351.991 630.283 367.032 615.259 367.032 596.725C367.032 578.191 351.991 563.167 333.437 563.167C314.883 563.167 299.843 578.191 299.843 596.725C299.843 615.259 314.883 630.283 333.437 630.283Z" fill="#FF6582"/>
<path d="M426.029 608.196C422.662 598.226 410.643 592.126 400.596 595.287C391.908 598.021 385.999 607.274 386.471 616.257C383.565 605.285 372.387 596.705 360.922 597.509C348.038 598.413 337.16 611 338.146 623.864C337.692 620.489 336.099 617.37 333.631 615.022C331.162 612.673 327.966 611.236 324.569 610.948C321.173 610.659 317.779 611.536 314.95 613.435C312.12 615.333 310.023 618.139 309.005 621.389L309.009 621.15C306.959 620 304.183 622.016 304.06 624.362C303.937 626.708 305.781 628.798 307.942 629.723C310.104 630.648 312.531 630.66 314.883 630.657C344.23 630.619 373.577 630.581 402.924 630.544C409.741 630.535 417.255 630.268 422.267 625.651C426.899 621.383 428.043 614.16 426.029 608.196Z" fill="#E4E4E4"/>
<path d="M360.413 660.871L366.884 655.701C361.857 655.147 359.791 657.885 358.946 660.053C355.019 658.424 350.743 660.559 350.743 660.559L363.691 665.254C363.037 663.511 361.9 661.991 360.413 660.871V660.871Z" fill="#3F3D56"/>
<path d="M276.935 711.716L283.406 706.547C278.379 705.993 276.314 708.731 275.468 710.899C271.541 709.27 267.266 711.405 267.266 711.405L280.213 716.1C279.56 714.357 278.423 712.837 276.935 711.716V711.716Z" fill="#3F3D56"/>
<path d="M262.683 624.262L269.154 619.092C264.127 618.538 262.062 621.277 261.216 623.444C257.289 621.815 253.014 623.95 253.014 623.95L265.961 628.645C265.308 626.903 264.171 625.382 262.683 624.262V624.262Z" fill="#3F3D56"/>
<path d="M309.005 925.188C340.49 925.188 366.014 922.456 366.014 919.087C366.014 915.717 340.49 912.985 309.005 912.985C277.519 912.985 251.996 915.717 251.996 919.087C251.996 922.456 277.519 925.188 309.005 925.188Z" fill="#F0F0F0"/>
<path d="M29.0664 820.843H296.477C303.333 820.843 309.969 823.265 315.211 827.679C320.454 832.094 323.965 838.218 325.124 844.969C326.284 851.719 325.017 858.662 321.548 864.57C318.078 870.478 312.63 874.97 306.165 877.254V897.301L287.757 878.912H29.0664C21.3603 878.908 13.9712 875.847 8.52361 870.403C3.07604 864.958 0.0158691 857.575 0.0158691 849.877C0.0158691 842.18 3.07604 834.797 8.52361 829.352C13.9712 823.908 21.3603 820.847 29.0664 820.843V820.843Z" fill="#F9A826"/>
<path d="M41.6616 843.103H277.099C277.613 843.103 278.106 842.899 278.469 842.536C278.833 842.173 279.037 841.68 279.037 841.167C279.037 840.654 278.833 840.161 278.469 839.798C278.106 839.435 277.613 839.231 277.099 839.231H41.6616C41.1477 839.231 40.6548 839.435 40.2914 839.798C39.928 840.161 39.7239 840.654 39.7239 841.167C39.7239 841.68 39.928 842.173 40.2914 842.536C40.6548 842.899 41.1477 843.103 41.6616 843.103Z" fill="white"/>
<path d="M41.6616 857.62H277.099C277.613 857.62 278.106 857.416 278.469 857.053C278.833 856.69 279.037 856.198 279.037 855.684C279.037 855.171 278.833 854.679 278.469 854.316C278.106 853.953 277.613 853.749 277.099 853.749H41.6616C41.1477 853.749 40.6548 853.953 40.2914 854.316C39.928 854.679 39.7239 855.171 39.7239 855.684C39.7239 856.198 39.928 856.69 40.2914 857.053C40.6548 857.416 41.1477 857.62 41.6616 857.62Z" fill="white"/>
<path d="M627.188 929.799C628.474 929.069 629.584 928.066 630.44 926.861C631.295 925.656 631.876 924.278 632.142 922.824C632.407 921.371 632.35 919.877 631.974 918.447C631.599 917.018 630.914 915.689 629.969 914.552L641.732 823.254L619.749 824.176L615.098 913.629C613.293 915.343 612.179 917.658 611.968 920.136C611.757 922.615 612.463 925.085 613.953 927.078C615.444 929.071 617.614 930.449 620.053 930.95C622.492 931.452 625.031 931.042 627.188 929.799V929.799Z" fill="#FFB6B6"/>
<path d="M729.494 823.241L732.318 869.922L713.246 920.238L704.133 906.78L712.818 857.832L710.409 826.517L729.494 823.241Z" fill="#FFB6B6"/>
<path d="M702.186 967.17L704.526 1087.17L694.258 1088.76L672.062 965.938L702.186 967.17Z" fill="#FFB6B6"/>
<path d="M635.59 972.968L651.662 1091.91H662.052L665.169 967.145L635.59 972.968Z" fill="#FFB6B6"/>
<path d="M665.831 762.22C677.633 762.22 687.2 752.663 687.2 740.875C687.2 729.086 677.633 719.529 665.831 719.529C654.03 719.529 644.463 729.086 644.463 740.875C644.463 752.663 654.03 762.22 665.831 762.22Z" fill="#FFB6B6"/>
<path d="M683.81 749.919C684.538 751.517 685.68 750.518 687.012 749.427C689.496 747.392 690.943 744.212 691.774 741.181C693.21 736.142 693.34 730.821 692.154 725.718C690.943 720.604 688.122 716.013 684.105 712.619C683.187 711.851 682.188 711.185 681.126 710.634C677.544 708.817 673.314 708.738 669.341 709.328C664.126 710.129 659.115 711.925 654.579 714.618C652.52 715.705 650.725 717.231 649.322 719.088C648.631 720.023 648.183 721.115 648.016 722.266C647.85 723.416 647.972 724.59 648.369 725.682C648.436 725.873 648.554 726.042 648.709 726.171C648.995 726.322 649.328 726.359 649.64 726.275C652.867 725.833 656.141 725.843 659.365 726.306C659.811 726.309 660.25 726.416 660.647 726.616C661.045 726.817 661.391 727.107 661.658 727.464C661.84 728.095 661.982 728.738 662.084 729.387C662.814 731.338 666.041 730.859 667.255 732.553C668.018 733.617 667.681 735.129 668.214 736.325C669.068 738.242 671.672 738.547 673.747 738.217C675.822 737.888 678.066 737.234 679.929 738.205C681.724 739.14 682.506 741.266 682.958 743.237C683.396 745.151 683.039 748.224 683.81 749.919Z" fill="#2F2E41"/>
<path d="M704.797 900.238L713.764 921.181L704.797 949.36V978.527L670.457 978.733L669.698 942.865L665.078 978.733H630.113L623.641 906.84L632.925 889.826L704.797 900.238Z" fill="#2F2E41"/>
<path d="M658.968 769.207L656.442 773.883C656.442 773.883 634.651 778.124 623.641 790.104L638.418 820.244L624.734 907.536L705.422 902.163L708.285 834.955L720.427 787.948C720.427 787.948 699.377 773.527 690.297 775.043L687.118 769.207H658.968Z" fill="#F9A826"/>
<path d="M644.381 793.243L623.641 790.104C623.641 790.104 617.963 823.37 618.01 830.965L643.042 834.955L644.381 793.243Z" fill="#F9A826"/>
<path d="M710.515 790.07L720.427 787.948C720.427 787.948 724.249 800.068 730.559 828.61L704.797 837.591L710.515 790.07Z" fill="#F9A826"/>
<path d="M664.067 1099.72L626.751 1099.71V1099.24C626.751 1095.4 628.281 1091.71 631.005 1088.98C633.729 1086.26 637.423 1084.73 641.275 1084.73H641.276L664.068 1084.74L664.067 1099.72Z" fill="#2F2E41"/>
<path d="M709.043 1094.01L672.166 1099.72L672.094 1099.25C671.504 1095.45 672.451 1091.57 674.726 1088.46C677.001 1085.36 680.418 1083.28 684.224 1082.69L684.225 1082.69L706.748 1079.21L709.043 1094.01Z" fill="#2F2E41"/>
<path d="M815.138 1101H486.862C486.633 1101 486.414 1100.89 486.252 1100.71C486.091 1100.52 486 1100.27 486 1100C486 1099.73 486.091 1099.48 486.252 1099.29C486.414 1099.11 486.633 1099 486.862 1099H815.138C815.367 1099 815.586 1099.11 815.748 1099.29C815.909 1099.48 816 1099.73 816 1100C816 1100.27 815.909 1100.52 815.748 1100.71C815.586 1100.89 815.367 1101 815.138 1101Z" fill="#CACACA"/>
<g clip-path="url(#clip1_3:8)">
<path d="M1391.68 562.197C1396.33 543.218 1391.9 521.085 1376.87 508.601C1376.58 529.849 1368.78 550.308 1354.85 566.358C1349.46 572.529 1342.82 578.831 1342.55 587.022C1342.39 592.118 1344.88 597.014 1348.31 600.788C1351.74 604.563 1356.06 607.388 1360.34 610.17L1360.96 611.277C1374.72 597.4 1387.02 581.175 1391.68 562.197Z" fill="#F0F0F0"/>
<path d="M1376.57 508.878C1382.33 523.99 1383.19 540.534 1379.02 556.161C1378.18 559.541 1376.81 562.767 1374.97 565.722C1373.08 568.542 1370.47 570.805 1367.41 572.276C1364.59 573.704 1361.53 574.838 1359.11 576.929C1357.88 578.017 1356.9 579.353 1356.22 580.848C1355.55 582.343 1355.2 583.964 1355.19 585.604C1355.07 589.69 1356.43 593.575 1357.89 597.329C1359.51 601.496 1361.26 605.798 1360.89 610.361C1360.84 610.914 1361.7 610.952 1361.75 610.4C1362.4 602.462 1357.01 595.757 1356.16 588.058C1355.76 584.465 1356.44 580.731 1359.09 578.111C1361.42 575.821 1364.57 574.648 1367.44 573.227C1370.44 571.836 1373.06 569.73 1375.07 567.094C1377.05 564.243 1378.54 561.074 1379.47 557.723C1381.67 550.214 1382.68 542.404 1382.45 534.581C1382.25 525.652 1380.51 516.823 1377.33 508.478C1377.13 507.961 1376.37 508.365 1376.57 508.878V508.878Z" fill="white"/>
<path d="M1380.66 551.208C1383.38 551.552 1386.13 550.919 1388.42 549.423C1390.71 547.926 1392.4 545.663 1393.18 543.037C1393.33 542.505 1392.52 542.238 1392.36 542.771C1391.64 545.217 1390.07 547.325 1387.93 548.715C1385.79 550.104 1383.23 550.683 1380.7 550.348C1380.15 550.275 1380.11 551.136 1380.66 551.208V551.208Z" fill="white"/>
<path d="M1368.94 571.74C1365.47 567.346 1363.79 561.807 1364.22 556.225C1364.26 555.672 1363.4 555.634 1363.36 556.186C1362.92 561.995 1364.69 567.757 1368.31 572.321C1368.65 572.756 1369.29 572.173 1368.94 571.74V571.74Z" fill="white"/>
<path d="M1381.21 526.13C1380.13 526.215 1379.05 526.032 1378.06 525.596C1377.07 525.159 1376.2 524.484 1375.53 523.63C1375.19 523.191 1374.56 523.775 1374.9 524.211C1375.64 525.151 1376.6 525.896 1377.69 526.38C1378.78 526.865 1379.98 527.074 1381.17 526.99C1381.28 526.991 1381.39 526.95 1381.48 526.873C1381.56 526.797 1381.61 526.692 1381.62 526.579C1381.62 526.465 1381.58 526.354 1381.51 526.27C1381.43 526.186 1381.32 526.135 1381.21 526.13V526.13Z" fill="white"/>
<path d="M1311.86 520.887C1312.07 521.167 1312.27 521.447 1312.47 521.735C1315.2 525.515 1317.61 529.511 1319.69 533.682C1319.86 534.002 1320.02 534.329 1320.18 534.653C1325.08 544.756 1328.07 555.683 1328.99 566.876C1329.35 571.331 1329.37 575.806 1329.05 580.264C1328.61 586.42 1327.64 593.06 1329.21 598.832C1329.37 599.436 1329.56 600.03 1329.79 600.61L1359.56 611.957C1359.64 611.949 1359.72 611.947 1359.8 611.939L1360.97 612.447C1361 612.218 1361.03 611.98 1361.07 611.751C1361.08 611.619 1361.1 611.484 1361.12 611.351C1361.13 611.262 1361.14 611.172 1361.15 611.093C1361.16 611.063 1361.16 611.033 1361.16 611.01C1361.18 610.93 1361.18 610.854 1361.19 610.781C1361.36 609.452 1361.51 608.119 1361.66 606.782C1361.66 606.775 1361.66 606.775 1361.66 606.766C1362.87 596.592 1362.87 586.31 1361.67 576.136C1361.63 575.833 1361.59 575.523 1361.53 575.215C1360.91 570.676 1359.91 566.197 1358.56 561.821C1357.81 559.427 1356.94 557.073 1355.95 554.767C1353.39 548.814 1349.9 543.301 1345.62 538.431C1337.09 528.724 1325.56 521.853 1312.83 520.947C1312.51 520.924 1312.19 520.903 1311.86 520.887Z" fill="#F0F0F0"/>
<path d="M1311.78 521.291C1325.49 529.885 1336.13 542.579 1342.21 557.568C1343.57 560.771 1344.43 564.17 1344.73 567.639C1344.92 571.028 1344.2 574.406 1342.64 577.422C1341.25 580.263 1339.49 583.008 1338.81 586.138C1338.49 587.746 1338.51 589.405 1338.87 591.004C1339.23 592.604 1339.93 594.11 1340.91 595.422C1343.28 598.756 1346.7 601.04 1350.13 603.158C1353.93 605.509 1357.92 607.891 1360.36 611.759C1360.66 612.228 1361.37 611.74 1361.07 611.272C1356.82 604.542 1348.47 602.434 1343.16 596.801C1340.67 594.173 1338.97 590.781 1339.51 587.09C1339.99 583.863 1341.8 581.031 1343.24 578.167C1344.8 575.247 1345.62 571.989 1345.63 568.677C1345.5 565.204 1344.78 561.778 1343.51 558.546C1340.74 551.224 1336.85 544.382 1331.96 538.271C1326.42 531.265 1319.72 525.259 1312.15 520.512C1311.68 520.218 1311.32 520.999 1311.78 521.291V521.291Z" fill="white"/>
<path d="M1340.54 552.626C1342.91 551.265 1344.73 549.104 1345.66 546.528C1346.59 543.952 1346.57 541.13 1345.61 538.564C1345.42 538.046 1344.6 538.326 1344.8 538.845C1345.69 541.232 1345.71 543.861 1344.84 546.258C1343.97 548.655 1342.27 550.661 1340.05 551.916C1339.57 552.189 1340.06 552.898 1340.54 552.626Z" fill="white"/>
<path d="M1343.54 576.074C1338.13 574.655 1333.44 571.246 1330.43 566.529C1330.13 566.061 1329.42 566.549 1329.72 567.016C1332.87 571.919 1337.74 575.456 1343.38 576.921C1343.92 577.06 1344.08 576.213 1343.54 576.074V576.074Z" fill="white"/>
<path d="M1325.88 532.271C1325.07 532.989 1324.09 533.495 1323.04 533.743C1321.98 533.991 1320.88 533.973 1319.84 533.692C1319.3 533.546 1319.15 534.394 1319.68 534.539C1320.84 534.844 1322.05 534.862 1323.22 534.591C1324.38 534.319 1325.46 533.767 1326.36 532.981C1326.45 532.914 1326.52 532.815 1326.54 532.704C1326.56 532.593 1326.53 532.478 1326.47 532.383C1326.41 532.289 1326.31 532.225 1326.2 532.204C1326.09 532.183 1325.97 532.207 1325.88 532.271V532.271Z" fill="white"/>
<path d="M1272.5 949.587C1172.7 949.587 1091.5 868.39 1091.5 768.587C1091.5 668.783 1172.7 587.587 1272.5 587.587C1283.05 587.585 1293.58 588.498 1303.98 590.314C1304.11 590.337 1304.23 590.384 1304.34 590.455C1304.45 590.525 1304.55 590.617 1304.62 590.724C1304.7 590.832 1304.75 590.953 1304.78 591.081C1304.81 591.21 1304.81 591.343 1304.79 591.472C1304.77 591.602 1304.72 591.725 1304.65 591.836C1304.58 591.947 1304.49 592.043 1304.38 592.119C1304.27 592.194 1304.15 592.248 1304.02 592.276C1303.89 592.304 1303.76 592.307 1303.63 592.284C1293.35 590.488 1282.94 589.586 1272.5 589.587C1173.8 589.587 1093.5 669.885 1093.5 768.587C1093.5 867.288 1173.8 947.587 1272.5 947.587C1371.2 947.587 1451.5 867.288 1451.5 768.587C1451.54 723.975 1434.89 680.962 1404.8 648.018C1404.63 647.822 1404.54 647.563 1404.55 647.299C1404.56 647.035 1404.68 646.787 1404.87 646.609C1405.07 646.431 1405.33 646.338 1405.59 646.349C1405.86 646.36 1406.1 646.476 1406.28 646.67C1436.7 679.983 1453.54 723.476 1453.5 768.587C1453.5 868.39 1372.3 949.587 1272.5 949.587Z" fill="#E4E4E4"/>
<path d="M1352.31 649.663C1372.09 649.663 1388.12 633.63 1388.12 613.852C1388.12 594.074 1372.09 578.041 1352.31 578.041C1332.53 578.041 1316.5 594.074 1316.5 613.852C1316.5 633.63 1332.53 649.663 1352.31 649.663Z" fill="#F9A826"/>
<path d="M1347.42 632.49C1346.8 632.49 1346.19 632.346 1345.64 632.07C1345.09 631.793 1344.61 631.391 1344.24 630.896L1334.47 617.87C1334.15 617.451 1333.92 616.975 1333.79 616.468C1333.66 615.962 1333.64 615.434 1333.71 614.916C1333.78 614.399 1333.96 613.9 1334.23 613.45C1334.49 613 1334.84 612.607 1335.26 612.293C1335.68 611.979 1336.16 611.751 1336.66 611.621C1337.17 611.491 1337.7 611.463 1338.22 611.537C1338.73 611.611 1339.23 611.786 1339.68 612.052C1340.13 612.319 1340.53 612.671 1340.84 613.09L1347.23 621.612L1363.65 596.987C1364.24 596.112 1365.15 595.505 1366.18 595.3C1367.21 595.095 1368.29 595.308 1369.16 595.893C1370.04 596.478 1370.65 597.387 1370.86 598.42C1371.07 599.454 1370.86 600.528 1370.28 601.407L1350.74 630.716C1350.38 631.246 1349.91 631.684 1349.35 631.992C1348.79 632.301 1348.17 632.471 1347.53 632.489C1347.5 632.49 1347.46 632.49 1347.42 632.49Z" fill="white"/>
<path d="M1267.84 740.498L1212.62 586.867L1214.02 586.363L1203.86 558.107L1202.46 558.611L1185.51 511.441C1184.87 509.679 1183.9 508.06 1182.64 506.674C1181.38 505.289 1179.86 504.165 1178.17 503.367C1176.48 502.569 1174.64 502.113 1172.77 502.024C1170.9 501.935 1169.03 502.215 1167.27 502.848L1067.44 538.733C1065.68 539.366 1064.06 540.34 1062.67 541.599C1061.29 542.859 1060.16 544.378 1059.36 546.072C1058.57 547.765 1058.11 549.599 1058.02 551.469C1057.93 553.339 1058.21 555.209 1058.84 556.97L1070.67 589.86L1068.45 590.712L1076 610.309L1077.77 609.627L1079.34 613.986L1077.45 614.712L1085 634.309L1086.44 633.753L1141.18 786.027C1141.81 787.791 1142.78 789.413 1144.04 790.8C1145.3 792.187 1146.82 793.313 1148.51 794.111C1150.21 794.909 1152.04 795.365 1153.92 795.453C1155.79 795.54 1157.66 795.258 1159.42 794.621L1259.25 758.736C1262.8 757.453 1265.71 754.813 1267.32 751.393C1268.93 747.974 1269.12 744.056 1267.84 740.498Z" fill="#3F3D56"/>
<path d="M1154.17 789.557C1152.76 789.554 1151.39 789.118 1150.24 788.309C1149.09 787.499 1148.22 786.356 1147.74 785.033L1064.54 553.559C1063.93 551.854 1064.02 549.976 1064.79 548.337C1065.56 546.698 1066.95 545.433 1068.66 544.82L1089.9 537.185L1089.87 537.928C1089.81 539.218 1090.07 540.502 1090.63 541.666C1091.19 542.83 1092.03 543.839 1093.07 544.604C1094.11 545.369 1095.32 545.866 1096.6 546.052C1097.88 546.238 1099.18 546.107 1100.4 545.67L1147.54 528.725C1148.67 528.204 1149.67 527.422 1150.45 526.443C1151.23 525.464 1151.77 524.315 1152.02 523.089C1152.27 521.884 1152.24 520.636 1151.91 519.448C1151.59 518.261 1150.99 517.166 1150.16 516.254L1149.67 515.701L1171.61 507.814C1173.31 507.203 1175.19 507.294 1176.83 508.066C1178.47 508.838 1179.73 510.228 1180.35 511.932L1259.73 732.778C1261.35 737.302 1261.11 742.284 1259.06 746.631C1257.01 750.978 1253.32 754.335 1248.8 755.966L1156.48 789.151C1155.74 789.419 1154.96 789.556 1154.17 789.557V789.557Z" fill="white"/>
<path d="M1146.03 625.377C1160.95 625.377 1173.03 613.289 1173.03 598.377C1173.03 583.465 1160.95 571.377 1146.03 571.377C1131.12 571.377 1119.03 583.465 1119.03 598.377C1119.03 613.289 1131.12 625.377 1146.03 625.377Z" fill="#F9A826"/>
<path d="M1212.94 637.642L1119.44 671.252C1119.14 671.357 1118.83 671.404 1118.52 671.39C1118.21 671.376 1117.91 671.301 1117.63 671.168C1117.35 671.036 1117.1 670.85 1116.89 670.62C1116.68 670.391 1116.52 670.122 1116.41 669.83C1116.31 669.537 1116.26 669.227 1116.27 668.917C1116.29 668.607 1116.36 668.303 1116.5 668.022C1116.63 667.741 1116.82 667.489 1117.05 667.281C1117.28 667.072 1117.55 666.911 1117.84 666.807L1211.34 633.197C1211.93 632.987 1212.58 633.019 1213.14 633.286C1213.71 633.553 1214.15 634.034 1214.36 634.622C1214.57 635.211 1214.54 635.859 1214.27 636.425C1214.01 636.991 1213.53 637.429 1212.94 637.642V637.642Z" fill="#E6E6E6"/>
<path d="M1185.17 658.952L1154.42 670.007C1154.12 670.113 1153.81 670.16 1153.5 670.145C1153.19 670.131 1152.89 670.056 1152.61 669.924C1152.33 669.791 1152.08 669.605 1151.87 669.375C1151.66 669.146 1151.5 668.877 1151.39 668.585C1151.29 668.293 1151.24 667.983 1151.25 667.672C1151.27 667.362 1151.35 667.058 1151.48 666.777C1151.61 666.496 1151.8 666.245 1152.03 666.036C1152.26 665.827 1152.53 665.666 1152.82 665.562L1183.57 654.507C1184.16 654.295 1184.81 654.326 1185.38 654.593C1185.95 654.86 1186.38 655.341 1186.6 655.93C1186.81 656.52 1186.78 657.169 1186.51 657.736C1186.24 658.303 1185.76 658.74 1185.17 658.952V658.952Z" fill="#E6E6E6"/>
<path d="M1192.49 679.303L1161.73 690.358C1161.44 690.463 1161.13 690.509 1160.82 690.494C1160.51 690.48 1160.21 690.404 1159.93 690.272C1159.65 690.14 1159.39 689.953 1159.19 689.724C1158.98 689.494 1158.82 689.226 1158.71 688.934C1158.61 688.642 1158.56 688.333 1158.57 688.023C1158.59 687.713 1158.66 687.409 1158.8 687.129C1158.93 686.848 1159.11 686.596 1159.34 686.388C1159.57 686.179 1159.84 686.018 1160.13 685.913L1190.89 674.857C1191.48 674.645 1192.13 674.676 1192.7 674.943C1193.26 675.21 1193.7 675.692 1193.91 676.281C1194.12 676.871 1194.09 677.52 1193.82 678.087C1193.56 678.653 1193.08 679.091 1192.49 679.303V679.303Z" fill="#E6E6E6"/>
<path d="M1196.23 689.726L1165.48 700.781C1165.19 700.887 1164.88 700.934 1164.57 700.92C1164.26 700.906 1163.95 700.831 1163.67 700.699C1163.39 700.567 1163.14 700.38 1162.93 700.151C1162.72 699.921 1162.56 699.652 1162.45 699.36C1162.35 699.067 1162.3 698.757 1162.32 698.447C1162.33 698.137 1162.41 697.832 1162.54 697.551C1162.67 697.271 1162.86 697.019 1163.09 696.81C1163.32 696.602 1163.59 696.441 1163.88 696.336L1194.64 685.281C1194.93 685.175 1195.24 685.128 1195.55 685.143C1195.86 685.157 1196.16 685.232 1196.44 685.364C1196.73 685.496 1196.98 685.682 1197.19 685.912C1197.4 686.142 1197.56 686.411 1197.66 686.703C1197.77 686.995 1197.81 687.305 1197.8 687.616C1197.78 687.926 1197.71 688.23 1197.58 688.511C1197.44 688.792 1197.26 689.044 1197.03 689.252C1196.8 689.461 1196.53 689.622 1196.23 689.726L1196.23 689.726Z" fill="#E6E6E6"/>
<path d="M1206.03 662.784L1140.77 686.24C1140.48 686.345 1140.17 686.393 1139.86 686.378C1139.55 686.364 1139.25 686.289 1138.97 686.157C1138.68 686.025 1138.43 685.838 1138.22 685.609C1138.01 685.379 1137.85 685.11 1137.75 684.818C1137.64 684.526 1137.6 684.216 1137.61 683.905C1137.63 683.595 1137.7 683.291 1137.83 683.01C1137.97 682.729 1138.15 682.477 1138.38 682.269C1138.61 682.06 1138.88 681.899 1139.18 681.795L1204.43 658.339C1204.72 658.234 1205.03 658.186 1205.34 658.201C1205.65 658.215 1205.96 658.29 1206.24 658.422C1206.52 658.554 1206.77 658.741 1206.98 658.97C1207.19 659.2 1207.35 659.469 1207.46 659.761C1207.56 660.053 1207.61 660.363 1207.59 660.674C1207.58 660.984 1207.5 661.288 1207.37 661.569C1207.24 661.85 1207.05 662.102 1206.82 662.31C1206.59 662.519 1206.32 662.68 1206.03 662.784V662.784Z" fill="#E6E6E6"/>
<path d="M1192.88 715.029L1181.72 719.044C1180.71 719.403 1179.61 719.35 1178.65 718.896C1177.68 718.442 1176.94 717.624 1176.58 716.622C1176.22 715.62 1176.27 714.516 1176.73 713.553C1177.18 712.59 1178 711.846 1179 711.485L1190.17 707.471C1191.17 707.111 1192.27 707.165 1193.24 707.619C1194.2 708.073 1194.94 708.891 1195.3 709.893C1195.66 710.894 1195.61 711.998 1195.16 712.962C1194.7 713.925 1193.89 714.669 1192.88 715.029V715.029Z" fill="#F9A826"/>
<path d="M1104.88 537.933C1105.74 537.933 1106.44 537.238 1106.44 536.38C1106.44 535.523 1105.74 534.827 1104.88 534.827C1104.02 534.827 1103.33 535.523 1103.33 536.38C1103.33 537.238 1104.02 537.933 1104.88 537.933Z" fill="white"/>
<path d="M926.283 623.724C943.689 603.235 971.93 590.323 997.967 597.018C974.517 614.476 957.997 639.666 951.332 668.131C948.801 679.118 947.131 691.602 938.21 698.497C932.66 702.788 925.196 703.961 918.224 703.182C911.252 702.403 904.616 699.859 898.069 697.338L896.329 697.531C900.707 671.006 908.878 644.212 926.283 623.724Z" fill="#F0F0F0"/>
<path d="M997.901 597.578C976.407 603.334 957.272 615.716 943.215 632.966C940.123 636.626 937.628 640.751 935.82 645.188C934.199 649.567 933.78 654.3 934.607 658.896C935.291 663.197 936.49 667.516 936.117 671.909C935.893 674.154 935.197 676.327 934.074 678.284C932.952 680.242 931.428 681.94 929.603 683.267C925.142 686.693 919.716 688.311 914.354 689.709C908.402 691.261 902.194 692.779 897.41 696.875C896.831 697.372 896.095 696.443 896.673 695.948C904.997 688.821 916.818 689.425 926.09 684.171C930.417 681.72 934.031 677.949 934.81 672.876C935.49 668.44 934.258 663.985 933.527 659.636C932.655 655.164 932.891 650.547 934.214 646.188C935.79 641.673 938.123 637.46 941.113 633.728C947.709 625.218 955.603 617.799 964.504 611.741C974.625 604.772 985.863 599.585 997.733 596.405C998.468 596.208 998.631 597.383 997.901 597.578H997.901Z" fill="white"/>
<path d="M947.415 627.146C944.841 624.394 943.328 620.818 943.148 617.054C942.968 613.291 944.131 609.586 946.43 606.601C946.897 605.999 947.855 606.697 947.387 607.3C945.241 610.075 944.158 613.527 944.333 617.031C944.508 620.535 945.93 623.861 948.342 626.409C948.866 626.963 947.935 627.697 947.415 627.146H947.415Z" fill="white"/>
<path d="M933.972 656.761C941.667 657.086 949.202 654.499 955.074 649.515C955.655 649.021 956.392 649.949 955.811 650.443C949.691 655.618 941.844 658.294 933.837 657.938C933.074 657.904 933.213 656.727 933.972 656.761V656.761Z" fill="white"/>
<path d="M974.929 606.313C975.703 607.585 976.781 608.645 978.066 609.398C979.351 610.15 980.802 610.572 982.29 610.625C983.054 610.649 982.914 611.826 982.156 611.802C980.512 611.736 978.909 611.268 977.487 610.44C976.066 609.612 974.869 608.448 974.001 607.05C973.908 606.925 973.866 606.77 973.884 606.615C973.902 606.461 973.977 606.319 974.096 606.218C974.219 606.121 974.376 606.077 974.532 606.094C974.688 606.112 974.83 606.191 974.929 606.313V606.313Z" fill="white"/>
<path d="M1036.68 679.396C1036.21 679.394 1035.73 679.392 1035.25 679.398C1028.83 679.406 1022.43 679.934 1016.1 680.979C1015.61 681.052 1015.12 681.133 1014.63 681.22C999.412 683.899 984.825 689.379 971.608 697.383C966.352 700.573 961.346 704.158 956.633 708.107C950.126 713.561 943.504 719.993 935.801 722.894C935.001 723.205 934.182 723.467 933.349 723.678L896.699 699.639C896.643 699.543 896.582 699.455 896.525 699.358L895.018 698.465C895.247 698.244 895.489 698.02 895.718 697.8C895.85 697.671 895.99 697.548 896.122 697.419C896.213 697.335 896.304 697.252 896.381 697.171C896.412 697.143 896.442 697.115 896.467 697.095C896.544 697.014 896.624 696.947 896.695 696.874C898.045 695.619 899.406 694.371 900.778 693.13C900.783 693.121 900.783 693.121 900.797 693.118C911.274 683.69 922.631 675.054 934.937 668.416C935.308 668.216 935.683 668.008 936.07 667.82C941.634 664.858 947.43 662.357 953.402 660.34C956.675 659.246 960.001 658.318 963.368 657.561C972.072 655.62 981.027 655.06 989.905 655.902C1007.6 657.584 1024.56 664.906 1035.83 678.359C1036.12 678.704 1036.4 679.043 1036.68 679.396Z" fill="#F0F0F0"/>
<path d="M1036.3 679.807C1015.67 671.462 992.934 669.828 971.325 675.138C966.653 676.199 962.177 677.989 958.062 680.444C954.131 682.964 950.947 686.491 948.84 690.658C946.798 694.504 945.154 698.675 942.212 701.958C940.681 703.616 938.817 704.931 936.742 705.818C934.667 706.705 932.428 707.144 930.172 707.105C924.548 707.154 919.241 705.179 914.119 703.067C908.431 700.723 902.561 698.198 896.275 698.588C895.513 698.635 895.485 697.451 896.245 697.404C907.181 696.725 916.256 704.324 926.823 705.712C931.754 706.359 936.909 705.525 940.585 701.943C943.8 698.811 945.499 694.512 947.533 690.599C949.529 686.504 952.497 682.96 956.178 680.276C960.155 677.62 964.554 675.66 969.188 674.48C979.578 671.657 990.348 670.486 1001.1 671.008C1013.38 671.537 1025.48 674.162 1036.87 678.769C1037.57 679.055 1037 680.091 1036.3 679.807L1036.3 679.807Z" fill="white"/>
<path d="M978.183 673.019C977.784 669.272 978.73 665.506 980.852 662.393C982.973 659.279 986.133 657.021 989.766 656.022C990.501 655.823 990.846 656.957 990.109 657.157C986.725 658.081 983.782 660.184 981.812 663.087C979.842 665.991 978.975 669.502 979.367 672.989C979.452 673.747 978.267 673.772 978.183 673.019V673.019Z" fill="white"/>
<path d="M949.619 688.572C955.567 693.464 963.141 695.935 970.83 695.491C971.592 695.447 971.621 696.631 970.86 696.676C962.858 697.122 954.982 694.535 948.803 689.43C948.214 688.943 949.034 688.087 949.619 688.572H949.619Z" fill="white"/>
<path d="M1012.69 672.95C1012.55 674.432 1012.77 675.927 1013.34 677.302C1013.91 678.676 1014.82 679.887 1015.98 680.825C1016.57 681.304 1015.75 682.16 1015.16 681.684C1013.89 680.642 1012.89 679.303 1012.25 677.786C1011.62 676.269 1011.36 674.619 1011.51 672.98C1011.51 672.825 1011.57 672.675 1011.68 672.563C1011.78 672.45 1011.93 672.382 1012.09 672.373C1012.24 672.37 1012.39 672.429 1012.51 672.537C1012.62 672.645 1012.69 672.794 1012.69 672.95V672.95Z" fill="white"/>
<path d="M1448.65 1017.51C1467.63 1022.17 1489.76 1017.74 1502.24 1002.71C1481 1002.42 1460.54 994.616 1444.49 980.689C1438.32 975.296 1432.02 968.655 1423.82 968.394C1418.73 968.231 1413.83 970.719 1410.06 974.147C1406.28 977.576 1403.46 981.901 1400.68 986.175L1399.57 986.802C1413.45 1000.56 1429.67 1012.86 1448.65 1017.51Z" fill="#F0F0F0"/>
<path d="M1501.97 1002.41C1486.86 1008.17 1470.31 1009.03 1454.69 1004.86C1451.31 1004.02 1448.08 1002.65 1445.12 1000.81C1442.3 998.921 1440.04 996.312 1438.57 993.253C1437.14 990.428 1436.01 987.374 1433.92 984.945C1432.83 983.718 1431.49 982.735 1430 982.06C1428.5 981.386 1426.88 981.035 1425.24 981.03C1421.16 980.913 1417.27 982.271 1413.52 983.731C1409.35 985.352 1405.05 987.102 1400.49 986.728C1399.93 986.682 1399.89 987.543 1400.45 987.588C1408.38 988.24 1415.09 982.849 1422.79 981.994C1426.38 981.595 1430.12 982.276 1432.73 984.932C1435.03 987.255 1436.2 990.404 1437.62 993.277C1439.01 996.282 1441.12 998.901 1443.75 1000.9C1446.6 1002.89 1449.77 1004.38 1453.12 1005.31C1460.63 1007.51 1468.44 1008.51 1476.26 1008.29C1485.19 1008.09 1494.02 1006.35 1502.37 1003.17C1502.88 1002.97 1502.48 1002.21 1501.97 1002.41H1501.97Z" fill="white"/>
<path d="M1459.64 1006.5C1459.29 1009.21 1459.93 1011.97 1461.42 1014.26C1462.92 1016.55 1465.18 1018.24 1467.81 1019.02C1468.34 1019.17 1468.61 1018.35 1468.08 1018.2C1465.63 1017.48 1463.52 1015.91 1462.13 1013.77C1460.74 1011.63 1460.16 1009.06 1460.5 1006.54C1460.57 1005.99 1459.71 1005.95 1459.64 1006.5V1006.5Z" fill="white"/>
<path d="M1439.11 994.781C1443.5 991.311 1449.04 989.626 1454.62 990.06C1455.17 990.103 1455.21 989.243 1454.66 989.199C1448.85 988.759 1443.09 990.525 1438.53 994.145C1438.09 994.49 1438.67 995.124 1439.11 994.781H1439.11Z" fill="white"/>
<path d="M1484.72 1007.05C1484.63 1005.97 1484.81 1004.89 1485.25 1003.9C1485.69 1002.9 1486.36 1002.04 1487.22 1001.37C1487.66 1001.03 1487.07 1000.4 1486.64 1000.74C1485.7 1001.48 1484.95 1002.43 1484.47 1003.53C1483.98 1004.62 1483.77 1005.82 1483.86 1007.01C1483.85 1007.12 1483.9 1007.23 1483.97 1007.31C1484.05 1007.4 1484.15 1007.45 1484.27 1007.46C1484.38 1007.46 1484.49 1007.42 1484.58 1007.35C1484.66 1007.27 1484.71 1007.16 1484.72 1007.05V1007.05Z" fill="white"/>
<path d="M1489.96 937.7C1489.68 937.904 1489.4 938.108 1489.11 938.31C1485.33 941.037 1481.34 943.453 1477.16 945.533C1476.84 945.699 1476.52 945.862 1476.19 946.019C1466.09 950.923 1455.16 953.909 1443.97 954.824C1439.52 955.184 1435.04 955.205 1430.58 954.886C1424.43 954.446 1417.79 953.478 1412.01 955.051C1411.41 955.208 1410.82 955.403 1410.24 955.633L1398.89 985.403C1398.9 985.483 1398.9 985.562 1398.91 985.642L1398.4 986.81C1398.63 986.843 1398.87 986.872 1399.09 986.904C1399.23 986.924 1399.36 986.936 1399.49 986.956C1399.58 986.967 1399.67 986.977 1399.75 986.992C1399.78 986.996 1399.81 986.999 1399.84 987C1399.92 987.015 1399.99 987.02 1400.06 987.033C1401.39 987.197 1402.73 987.353 1404.06 987.499C1404.07 987.502 1404.07 987.502 1404.08 987.498C1414.25 988.711 1424.54 988.714 1434.71 987.505C1435.01 987.465 1435.32 987.427 1435.63 987.374C1440.17 986.748 1444.65 985.752 1449.03 984.397C1451.42 983.647 1453.77 982.776 1456.08 981.788C1462.03 979.224 1467.54 975.739 1472.41 971.462C1482.12 962.934 1488.99 951.396 1489.9 938.672C1489.92 938.347 1489.94 938.028 1489.96 937.7Z" fill="#F0F0F0"/>
<path d="M1489.56 937.623C1480.96 951.324 1468.27 961.969 1453.28 968.046C1450.07 969.412 1446.68 970.264 1443.21 970.571C1439.82 970.761 1436.44 970.04 1433.42 968.483C1430.58 967.088 1427.84 965.331 1424.71 964.651C1423.1 964.327 1421.44 964.346 1419.84 964.707C1418.24 965.069 1416.74 965.764 1415.42 966.748C1412.09 969.115 1409.81 972.538 1407.69 975.964C1405.34 979.767 1402.96 983.755 1399.09 986.203C1398.62 986.499 1399.11 987.209 1399.57 986.913C1406.3 982.654 1408.41 974.313 1414.04 968.995C1416.67 966.513 1420.07 964.809 1423.76 965.353C1426.98 965.828 1429.81 967.637 1432.68 969.074C1435.6 970.636 1438.86 971.46 1442.17 971.472C1445.64 971.343 1449.07 970.623 1452.3 969.344C1459.62 966.581 1466.46 962.684 1472.58 957.795C1479.58 952.255 1485.59 945.556 1490.33 937.99C1490.63 937.522 1489.85 937.157 1489.56 937.623H1489.56Z" fill="white"/>
<path d="M1458.22 966.374C1459.58 968.75 1461.74 970.565 1464.32 971.495C1466.89 972.425 1469.72 972.409 1472.28 971.45C1472.8 971.255 1472.52 970.44 1472 970.636C1469.61 971.533 1466.98 971.548 1464.59 970.677C1462.19 969.806 1460.18 968.107 1458.93 965.887C1458.66 965.405 1457.95 965.894 1458.22 966.374Z" fill="white"/>
<path d="M1434.77 969.38C1436.19 963.965 1439.6 959.284 1444.32 956.27C1444.79 955.971 1444.3 955.261 1443.83 955.559C1438.93 958.705 1435.39 963.584 1433.93 969.222C1433.79 969.759 1434.63 969.915 1434.77 969.38Z" fill="white"/>
<path d="M1478.58 951.714C1477.86 950.904 1477.35 949.929 1477.1 948.875C1476.85 947.822 1476.87 946.723 1477.15 945.678C1477.3 945.142 1476.45 944.988 1476.31 945.52C1476 946.676 1475.98 947.889 1476.26 949.054C1476.53 950.219 1477.08 951.299 1477.86 952.201C1477.93 952.292 1478.03 952.354 1478.14 952.375C1478.25 952.396 1478.37 952.374 1478.46 952.313C1478.56 952.248 1478.62 952.148 1478.64 952.036C1478.66 951.924 1478.64 951.808 1478.58 951.714V951.714Z" fill="white"/>
<path d="M1524.7 835.101L1495.76 883.801L1496.86 884.381L1487.06 902.961L1485.02 901.881L1478.58 912.711L1480.18 913.631L1469.68 931.811L1467.86 930.761L1373.43 1089.68C1370.95 1093.84 1366.92 1096.85 1362.23 1098.04C1357.54 1099.24 1352.57 1098.52 1348.41 1096.05L1172.86 991.741C1168.7 989.265 1165.69 985.24 1164.5 980.549C1163.3 975.858 1164.02 970.885 1166.49 966.721L1317.76 712.141C1320.23 707.982 1324.26 704.976 1328.95 703.782C1333.64 702.587 1338.61 703.303 1342.78 705.771L1518.33 810.081C1522.48 812.559 1525.49 816.584 1526.68 821.275C1527.88 825.965 1527.16 830.937 1524.7 835.101V835.101Z" fill="#3F3D56"/>
<path d="M1354.66 1086.22L1178.49 981.548C1177.21 980.784 1176.29 979.543 1175.92 978.098C1175.55 976.652 1175.77 975.119 1176.53 973.835L1328.81 717.562C1329.57 716.28 1330.81 715.353 1332.26 714.985C1333.7 714.617 1335.23 714.838 1336.52 715.598L1512.69 820.275C1513.97 821.039 1514.89 822.279 1515.26 823.725C1515.63 825.171 1515.41 826.704 1514.65 827.987L1362.38 1084.26C1361.61 1085.54 1360.37 1086.47 1358.93 1086.84C1357.48 1087.21 1355.95 1086.98 1354.66 1086.22Z" fill="white"/>
<path d="M1427.03 763.886C1427.89 763.886 1428.58 763.191 1428.58 762.333C1428.58 761.476 1427.89 760.78 1427.03 760.78C1426.17 760.78 1425.48 761.476 1425.48 762.333C1425.48 763.191 1426.17 763.886 1427.03 763.886Z" fill="white"/>
<path d="M1417.42 947.465L1270.36 860.086C1269.9 859.814 1269.5 859.454 1269.17 859.027C1268.85 858.599 1268.62 858.112 1268.49 857.593C1268.35 857.075 1268.32 856.535 1268.4 856.005C1268.47 855.475 1268.65 854.966 1268.93 854.506C1269.2 854.045 1269.56 853.644 1269.99 853.324C1270.42 853.004 1270.91 852.771 1271.43 852.64C1271.95 852.509 1272.49 852.482 1273.02 852.56C1273.55 852.638 1274.06 852.82 1274.51 853.095L1421.57 940.474C1422.03 940.746 1422.44 941.106 1422.76 941.533C1423.08 941.961 1423.31 942.448 1423.45 942.967C1423.58 943.485 1423.61 944.025 1423.53 944.555C1423.46 945.085 1423.28 945.594 1423 946.054C1422.73 946.515 1422.37 946.916 1421.94 947.236C1421.51 947.556 1421.02 947.789 1420.5 947.92C1419.98 948.051 1419.44 948.078 1418.91 948C1418.38 947.922 1417.88 947.74 1417.42 947.465H1417.42Z" fill="#E6E6E6"/>
<path d="M1358.7 933.925L1310.33 905.184C1309.87 904.911 1309.47 904.551 1309.15 904.123C1308.83 903.695 1308.59 903.209 1308.46 902.691C1308.33 902.174 1308.3 901.636 1308.38 901.107C1308.46 900.578 1308.64 900.07 1308.91 899.611C1309.18 899.152 1309.54 898.751 1309.97 898.431C1310.4 898.111 1310.88 897.879 1311.4 897.747C1311.92 897.616 1312.46 897.587 1312.99 897.664C1313.51 897.74 1314.02 897.92 1314.48 898.193L1362.85 926.934C1363.31 927.207 1363.71 927.567 1364.03 927.995C1364.35 928.423 1364.58 928.909 1364.72 929.427C1364.85 929.944 1364.88 930.482 1364.8 931.011C1364.72 931.539 1364.54 932.048 1364.27 932.507C1364 932.966 1363.64 933.367 1363.21 933.686C1362.78 934.006 1362.3 934.238 1361.78 934.37C1361.26 934.502 1360.72 934.53 1360.19 934.454C1359.67 934.378 1359.16 934.198 1358.7 933.925V933.925Z" fill="#E6E6E6"/>
<path d="M1339.68 965.932L1291.31 937.191C1290.38 936.64 1289.71 935.744 1289.45 934.699C1289.18 933.654 1289.34 932.546 1289.89 931.619C1290.44 930.692 1291.34 930.022 1292.38 929.755C1293.43 929.489 1294.54 929.649 1295.46 930.2L1343.83 958.941C1344.29 959.214 1344.69 959.574 1345.01 960.002C1345.33 960.43 1345.57 960.916 1345.7 961.434C1345.83 961.951 1345.86 962.489 1345.78 963.018C1345.71 963.546 1345.53 964.055 1345.25 964.514C1344.98 964.973 1344.62 965.374 1344.19 965.693C1343.76 966.013 1343.28 966.245 1342.76 966.377C1342.24 966.509 1341.7 966.537 1341.18 966.461C1340.65 966.385 1340.14 966.205 1339.68 965.932V965.932Z" fill="#E6E6E6"/>
<path d="M1329.94 982.326L1281.57 953.585C1281.11 953.313 1280.71 952.952 1280.38 952.525C1280.06 952.097 1279.83 951.61 1279.7 951.092C1279.57 950.574 1279.54 950.035 1279.61 949.505C1279.69 948.976 1279.87 948.467 1280.14 948.007C1280.41 947.547 1280.78 947.146 1281.2 946.826C1281.63 946.506 1282.12 946.274 1282.64 946.143C1283.16 946.011 1283.7 945.984 1284.23 946.061C1284.75 946.138 1285.26 946.319 1285.72 946.594L1334.09 975.335C1334.55 975.607 1334.96 975.967 1335.28 976.394C1335.6 976.822 1335.84 977.309 1335.97 977.828C1336.1 978.346 1336.13 978.886 1336.06 979.416C1335.98 979.946 1335.8 980.456 1335.53 980.916C1335.25 981.376 1334.89 981.778 1334.46 982.098C1334.03 982.418 1333.54 982.65 1333.03 982.781C1332.51 982.912 1331.97 982.939 1331.44 982.861C1330.91 982.783 1330.4 982.601 1329.94 982.326V982.326Z" fill="#E6E6E6"/>
<path d="M1376.45 965.823L1273.82 904.844C1272.9 904.291 1272.24 903.395 1271.97 902.352C1271.71 901.309 1271.87 900.204 1272.42 899.28C1272.97 898.355 1273.86 897.686 1274.9 897.418C1275.95 897.151 1277.05 897.307 1277.98 897.853L1380.6 958.832C1381.07 959.104 1381.47 959.464 1381.79 959.892C1382.11 960.32 1382.35 960.807 1382.48 961.325C1382.61 961.844 1382.64 962.383 1382.57 962.913C1382.49 963.443 1382.31 963.953 1382.04 964.413C1381.76 964.873 1381.4 965.275 1380.97 965.595C1380.54 965.915 1380.06 966.148 1379.54 966.279C1379.02 966.41 1378.48 966.437 1377.95 966.359C1377.42 966.28 1376.91 966.099 1376.45 965.823V965.823Z" fill="#E6E6E6"/>
<path d="M1356.89 1043.76L1339.33 1033.32C1337.75 1032.38 1336.61 1030.86 1336.16 1029.08C1335.71 1027.3 1335.99 1025.42 1336.92 1023.85C1337.86 1022.27 1339.38 1021.13 1341.16 1020.68C1342.93 1020.23 1344.81 1020.5 1346.39 1021.43L1363.95 1031.87C1365.53 1032.8 1366.67 1034.33 1367.12 1036.11C1367.57 1037.88 1367.3 1039.77 1366.37 1041.34C1365.43 1042.92 1363.9 1044.06 1362.13 1044.51C1360.35 1044.96 1358.47 1044.69 1356.89 1043.76Z" fill="#F9A826"/>
<path d="M1389.66 874.314C1409.54 874.314 1425.66 858.197 1425.66 838.314C1425.66 818.432 1409.54 802.314 1389.66 802.314C1369.78 802.314 1353.66 818.432 1353.66 838.314C1353.66 858.197 1369.78 874.314 1389.66 874.314Z" fill="#F9A826"/>
<path d="M799.424 984.605H1286.6V702.557C1286.6 700.444 1285.76 698.418 1284.27 696.924C1282.77 695.43 1280.75 694.589 1278.63 694.587H807.395C805.282 694.589 803.256 695.43 801.761 696.924C800.267 698.418 799.427 700.444 799.424 702.557V984.605Z" fill="#CACACA"/>
<path d="M1271.55 705.611H814.476V965.101H1271.55V705.611Z" fill="white"/>
<path d="M799 976.973V1011.78C799 1013.22 799.284 1014.65 799.836 1015.98C800.388 1017.32 801.198 1018.53 802.218 1019.55C803.238 1020.57 804.45 1021.38 805.783 1021.93C807.116 1022.48 808.544 1022.77 809.987 1022.77H989.802V1091.45H987.413C987.226 1091.45 987.04 1091.49 986.867 1091.56C986.694 1091.63 986.536 1091.74 986.404 1091.87C986.271 1092.01 986.166 1092.16 986.094 1092.34C986.023 1092.51 985.986 1092.69 985.986 1092.88V1097.66C985.986 1097.85 986.023 1098.03 986.094 1098.21C986.166 1098.38 986.271 1098.54 986.404 1098.67C986.536 1098.8 986.694 1098.91 986.867 1098.98C987.04 1099.05 987.226 1099.09 987.413 1099.09H1099.04C1099.23 1099.09 1099.41 1099.05 1099.59 1098.98C1099.76 1098.91 1099.92 1098.8 1100.05 1098.67C1100.18 1098.54 1100.29 1098.38 1100.36 1098.21C1100.43 1098.03 1100.47 1097.85 1100.47 1097.66V1092.88C1100.47 1092.69 1100.43 1092.51 1100.36 1092.34C1100.29 1092.16 1100.18 1092.01 1100.05 1091.87C1099.92 1091.74 1099.76 1091.63 1099.59 1091.56C1099.41 1091.49 1099.23 1091.45 1099.04 1091.45H1096.65V1022.77H1276.47C1277.91 1022.77 1279.34 1022.48 1280.67 1021.93C1282 1021.38 1283.21 1020.57 1284.23 1019.55C1285.26 1018.53 1286.06 1017.32 1286.62 1015.98C1287.17 1014.65 1287.45 1013.22 1287.45 1011.78V976.973L799 976.973Z" fill="#3F3D56"/>
<path d="M1205.41 792.394H988.959C987.595 792.394 986.286 791.852 985.321 790.887C984.357 789.923 983.814 788.614 983.814 787.249C983.814 785.885 984.357 784.576 985.321 783.611C986.286 782.646 987.595 782.104 988.959 782.104H1205.41C1206.78 782.104 1208.09 782.646 1209.05 783.611C1210.02 784.576 1210.56 785.885 1210.56 787.249C1210.56 788.614 1210.02 789.923 1209.05 790.887C1208.09 791.852 1206.78 792.394 1205.41 792.394V792.394Z" fill="#E6E6E6"/>
<path d="M1132.79 815.62H1061.59C1060.22 815.62 1058.91 815.078 1057.95 814.113C1056.98 813.148 1056.44 811.839 1056.44 810.475C1056.44 809.11 1056.98 807.801 1057.95 806.836C1058.91 805.871 1060.22 805.329 1061.59 805.329H1132.79C1134.15 805.329 1135.46 805.871 1136.42 806.836C1137.39 807.801 1137.93 809.11 1137.93 810.475C1137.93 811.839 1137.39 813.148 1136.42 814.113C1135.46 815.078 1134.15 815.62 1132.79 815.62V815.62Z" fill="#E6E6E6"/>
<path d="M1132.79 862.731H1061.59C1060.22 862.731 1058.91 862.189 1057.95 861.224C1056.98 860.259 1056.44 858.951 1056.44 857.586C1056.44 856.221 1056.98 854.913 1057.95 853.948C1058.91 852.983 1060.22 852.441 1061.59 852.441H1132.79C1134.15 852.441 1135.46 852.983 1136.42 853.948C1137.39 854.913 1137.93 856.221 1137.93 857.586C1137.93 858.951 1137.39 860.259 1136.42 861.224C1135.46 862.189 1134.15 862.731 1132.79 862.731Z" fill="#E6E6E6"/>
<path d="M1132.79 886.861H1061.59C1060.91 886.861 1060.24 886.728 1059.62 886.469C1058.99 886.211 1058.43 885.832 1057.95 885.354C1057.47 884.876 1057.09 884.309 1056.83 883.685C1056.58 883.061 1056.44 882.392 1056.44 881.716C1056.44 881.04 1056.58 880.371 1056.83 879.747C1057.09 879.123 1057.47 878.556 1057.95 878.078C1058.43 877.6 1058.99 877.221 1059.62 876.963C1060.24 876.704 1060.91 876.571 1061.59 876.571H1132.79C1133.46 876.571 1134.13 876.704 1134.75 876.963C1135.38 877.221 1135.95 877.6 1136.42 878.078C1136.9 878.556 1137.28 879.123 1137.54 879.747C1137.8 880.371 1137.93 881.04 1137.93 881.716C1137.93 882.392 1137.8 883.061 1137.54 883.685C1137.28 884.309 1136.9 884.876 1136.42 885.354C1135.95 885.832 1135.38 886.211 1134.75 886.469C1134.13 886.728 1133.46 886.861 1132.79 886.861V886.861Z" fill="#E6E6E6"/>
<path d="M1172.72 838.845H1021.66C1020.29 838.845 1018.98 838.303 1018.02 837.338C1017.05 836.373 1016.51 835.065 1016.51 833.7C1016.51 832.335 1017.05 831.027 1018.02 830.062C1018.98 829.097 1020.29 828.555 1021.66 828.555H1172.72C1174.08 828.555 1175.39 829.097 1176.35 830.062C1177.32 831.027 1177.86 832.335 1177.86 833.7C1177.86 835.065 1177.32 836.373 1176.35 837.338C1175.39 838.303 1174.08 838.845 1172.72 838.845V838.845Z" fill="#E6E6E6"/>
<path d="M1201.81 936.266H1175.96C1173.64 936.266 1171.41 935.344 1169.77 933.703C1168.13 932.063 1167.21 929.837 1167.21 927.517C1167.21 925.196 1168.13 922.971 1169.77 921.33C1171.41 919.69 1173.64 918.768 1175.96 918.768H1201.81C1204.13 918.768 1206.36 919.69 1208 921.33C1209.64 922.971 1210.56 925.196 1210.56 927.517C1210.56 929.837 1209.64 932.063 1208 933.703C1206.36 935.344 1204.13 936.266 1201.81 936.266V936.266Z" fill="#F9A826"/>
<path d="M920.895 872.766C945.747 872.766 965.895 852.619 965.895 827.766C965.895 802.913 945.747 782.766 920.895 782.766C896.042 782.766 875.895 802.913 875.895 827.766C875.895 852.619 896.042 872.766 920.895 872.766Z" fill="#F9A826"/>
<path d="M1447.48 1100.94H800.191C799.875 1100.94 799.574 1100.82 799.351 1100.59C799.128 1100.37 799.003 1100.07 799.003 1099.75C799.003 1099.44 799.128 1099.13 799.351 1098.91C799.574 1098.69 799.875 1098.56 800.191 1098.56H1447.48C1447.8 1098.56 1448.1 1098.69 1448.32 1098.91C1448.55 1099.13 1448.67 1099.44 1448.67 1099.75C1448.67 1100.07 1448.55 1100.37 1448.32 1100.59C1448.1 1100.82 1447.8 1100.94 1447.48 1100.94Z" fill="#CACACA"/>
<path d="M1042.8 700.099C1043.74 700.099 1044.5 699.339 1044.5 698.403C1044.5 697.466 1043.74 696.707 1042.8 696.707C1041.87 696.707 1041.11 697.466 1041.11 698.403C1041.11 699.339 1041.87 700.099 1042.8 700.099Z" fill="white"/>
</g>
<defs>
<clipPath id="clip0_3:8">
<rect width="903.815" height="419" fill="white" transform="translate(563 123)"/>
</clipPath>
<clipPath id="clip1_3:8">
<rect width="728.252" height="598.943" fill="white" transform="translate(799 502)"/>
</clipPath>
</defs>
</svg>
