<svg width="400" height="300" viewBox="0 0 400 300" fill="none" xmlns="http://www.w3.org/2000/svg">
<g clip-path="url(#clip0_2_2)">
<path d="M11.949 274.159C13.6498 274.756 15.4759 274.906 17.2515 274.593C19.027 274.281 20.692 273.516 22.0862 272.373C25.6367 269.393 26.7513 264.483 27.6557 259.937L30.3347 246.49L24.7259 250.353C20.6922 253.13 16.5679 255.996 13.7749 260.02C10.9818 264.043 9.76284 269.535 12.0067 273.887" fill="#E4E4E4"/>
<path d="M12.4284 290.438C11.8608 286.303 11.2769 282.115 11.6751 277.935C12.0289 274.224 13.161 270.598 15.4668 267.626C16.6906 266.051 18.1797 264.701 19.8672 263.638C20.3074 263.361 20.712 264.058 20.2742 264.334C17.3544 266.179 15.0961 268.904 13.8247 272.116C12.4206 275.687 12.1952 279.58 12.4391 283.374C12.5855 285.668 12.8954 287.947 13.2081 290.224C13.2333 290.327 13.2181 290.435 13.1658 290.528C13.1134 290.62 13.0277 290.689 12.9264 290.72C12.8232 290.748 12.7133 290.734 12.6204 290.681C12.5275 290.628 12.4592 290.541 12.4303 290.438L12.4284 290.438Z" fill="#F2F2F2"/>
<path d="M251.25 290.792H78.0596C73.9546 290.787 70.0191 289.155 67.1165 286.252C64.2139 283.349 62.5811 279.414 62.5765 275.309V24.1436C62.5811 20.0387 64.2139 16.1032 67.1165 13.2005C70.0191 10.2979 73.9546 8.66516 78.0596 8.66052H251.25C255.355 8.66516 259.291 10.2979 262.193 13.2005C265.096 16.1032 266.729 20.0387 266.733 24.1436V275.309C266.729 279.414 265.096 283.349 262.193 286.252C259.291 289.155 255.355 290.787 251.25 290.792V290.792Z" fill="#3F3D56"/>
<path d="M251.555 280.914H77.7547C76.4893 280.912 75.2762 280.409 74.3814 279.514C73.4866 278.619 72.9833 277.406 72.9819 276.141V23.3119C72.9833 22.0465 73.4866 20.8334 74.3814 19.9386C75.2762 19.0438 76.4893 18.5405 77.7547 18.5391H251.555C252.82 18.5405 254.034 19.0438 254.928 19.9386C255.823 20.8334 256.326 22.0465 256.328 23.3119V276.141C256.326 277.406 255.823 278.619 254.928 279.514C254.034 280.409 252.82 280.912 251.555 280.914V280.914Z" fill="white"/>
<path d="M163.996 14.7194C164.724 14.7194 165.313 14.1297 165.313 13.4022C165.313 12.6748 164.724 12.0851 163.996 12.0851C163.269 12.0851 162.679 12.6748 162.679 13.4022C162.679 14.1297 163.269 14.7194 163.996 14.7194Z" fill="white"/>
<path d="M84.4876 134.738H232.623V109.348C232.601 106.671 232.044 104.025 230.985 101.566C229.926 99.1071 228.386 96.8843 226.457 95.0282L226.417 94.9889C223.771 92.3342 214.929 85.5967 205.78 86.168C200.947 86.4688 196.81 88.7978 193.483 93.0904C183.126 106.457 169.522 101.945 162.335 98.066C156.001 94.6466 149.532 93.0417 143.107 93.2971C134.108 93.649 121.443 96.9639 112.206 110.759C108.678 116.023 101.006 123.169 84.4876 127.369L84.4876 134.738Z" fill="#E4E4E4"/>
<path d="M241.005 135.329H84.7727C84.6431 135.329 84.5187 135.277 84.427 135.185C84.3353 135.094 84.2838 134.969 84.2838 134.84L84.5211 134.296L241.005 134.351C241.134 134.351 241.259 134.402 241.35 134.494C241.442 134.586 241.494 134.71 241.494 134.84C241.494 134.969 241.442 135.094 241.35 135.185C241.259 135.277 241.134 135.329 241.005 135.329H241.005Z" fill="#3F3D56"/>
<path d="M114.491 106.533H113.532V134.641H114.491V106.533Z" fill="#3F3D56"/>
<path d="M143.2 93.4053H142.241V134.641H143.2V93.4053Z" fill="#3F3D56"/>
<path d="M171.969 102.036H171.01V134.641H171.969V102.036Z" fill="#3F3D56"/>
<path d="M200.738 86.2131H199.779V134.641H200.738V86.2131Z" fill="#3F3D56"/>
<path d="M229.507 97.2411H228.548V134.641H229.507V97.2411Z" fill="#3F3D56"/>
<path d="M142.78 96.9999C144.4 96.9999 145.714 95.6865 145.714 94.0663C145.714 92.4461 144.4 91.1327 142.78 91.1327C141.16 91.1327 139.846 92.4461 139.846 94.0663C139.846 95.6865 141.16 96.9999 142.78 96.9999Z" fill="#F9A826"/>
<path d="M200.317 89.3282C201.938 89.3282 203.251 88.0148 203.251 86.3946C203.251 84.7744 201.938 83.461 200.317 83.461C198.697 83.461 197.384 84.7744 197.384 86.3946C197.384 88.0148 198.697 89.3282 200.317 89.3282Z" fill="#F9A826"/>
<path d="M171.549 105.151C173.169 105.151 174.482 103.838 174.482 102.217C174.482 100.597 173.169 99.2838 171.549 99.2838C169.929 99.2838 168.615 100.597 168.615 102.217C168.615 103.838 169.929 105.151 171.549 105.151Z" fill="#F9A826"/>
<path d="M114.011 109.466C115.631 109.466 116.945 108.153 116.945 106.533C116.945 104.913 115.631 103.599 114.011 103.599C112.391 103.599 111.078 104.913 111.078 106.533C111.078 108.153 112.391 109.466 114.011 109.466Z" fill="#F9A826"/>
<path d="M229.086 99.8768C230.706 99.8768 232.02 98.5633 232.02 96.9432C232.02 95.323 230.706 94.0096 229.086 94.0096C227.466 94.0096 226.153 95.323 226.153 96.9432C226.153 98.5633 227.466 99.8768 229.086 99.8768Z" fill="#F9A826"/>
<path d="M141.955 237.032V187.371C141.955 187.065 142.076 186.772 142.293 186.555C142.509 186.339 142.802 186.218 143.108 186.218H148.255C148.561 186.218 148.854 186.339 149.07 186.555C149.286 186.772 149.408 187.065 149.408 187.371V187.371V237.162L141.955 237.032Z" fill="#3F3D56"/>
<path d="M158.953 237.188V197.7C158.953 197.395 159.074 197.101 159.291 196.885C159.507 196.669 159.8 196.547 160.106 196.547H165.253C165.559 196.547 165.852 196.669 166.068 196.885C166.284 197.101 166.406 197.395 166.406 197.7V237.103L158.953 237.188Z" fill="#3F3D56"/>
<path d="M192.949 237.012V179.774C192.927 179.445 193.036 179.121 193.252 178.872C193.468 178.623 193.774 178.47 194.102 178.445H199.249C199.577 178.47 199.883 178.623 200.099 178.872C200.314 179.121 200.423 179.445 200.402 179.774V237.162L192.949 237.012Z" fill="#3F3D56"/>
<path d="M124.957 237.09V209.456C124.957 209.102 125.473 208.814 126.11 208.814H131.257C131.893 208.814 132.41 209.102 132.41 209.456V237.162L124.957 237.09Z" fill="#3F3D56"/>
<path d="M175.951 236.993V172.038C175.951 171.205 176.467 170.53 177.104 170.53H182.25C182.887 170.53 183.404 171.205 183.404 172.038V237.162L175.951 236.993Z" fill="#F9A826"/>
<path d="M222.582 237.76H106.185C106.062 237.76 105.945 237.711 105.858 237.625C105.771 237.538 105.723 237.42 105.723 237.298C105.723 237.175 105.771 237.058 105.858 236.971C105.945 236.885 106.062 236.836 106.185 236.836H222.582C222.704 236.836 222.822 236.885 222.909 236.971C222.995 237.058 223.044 237.175 223.044 237.298C223.044 237.42 222.995 237.538 222.909 237.625C222.822 237.711 222.704 237.76 222.582 237.76Z" fill="#3F3D56"/>
<path d="M361.273 285.542L355.822 285.541L353.229 264.516H361.274L361.273 285.542Z" fill="#FFB6B6"/>
<path d="M362.663 290.825L345.087 290.825V290.603C345.087 288.788 345.808 287.048 347.091 285.765C348.374 284.482 350.114 283.762 351.928 283.761H351.929L362.664 283.762L362.663 290.825Z" fill="#2F2E41"/>
<path d="M319.863 285.362L314.597 283.954L317.522 262.972L325.294 265.05L319.863 285.362Z" fill="#FFB6B6"/>
<path d="M319.841 290.825L302.861 286.285L302.919 286.07C303.387 284.317 304.533 282.823 306.104 281.915C307.675 281.007 309.542 280.76 311.295 281.228L311.295 281.228L321.666 284.002L319.841 290.825Z" fill="#2F2E41"/>
<path d="M364.409 167.712L368.975 173.016L363.07 280.811H350.457L344.097 197.867L324.381 283.036L311.268 279.82L323.191 171.644L364.409 167.712Z" fill="#2F2E41"/>
<path d="M326.239 98.118L338.798 91.8189L358.111 92.1584L374.73 100.663L365.274 147.887L369.359 172.51H369.359C353.572 176.536 337.043 176.672 321.191 172.907L321.065 172.877C321.065 172.877 330.452 139.567 326.456 129.402L326.239 98.118Z" fill="#E4E4E4"/>
<path d="M362.571 72.949C362.557 69.1799 361.048 65.5702 358.376 62.9124C355.703 60.2546 352.085 58.7658 348.316 58.7728C344.547 58.7798 340.935 60.282 338.272 62.9496C335.609 65.6173 334.114 69.2325 334.114 73.0017C334.114 76.7708 335.609 80.386 338.272 83.0537C340.935 85.7214 344.547 87.2235 348.316 87.2305C352.085 87.2375 355.703 85.7487 358.376 83.0909C361.048 80.4331 362.557 76.8235 362.571 73.0543C362.571 73.0192 362.571 72.9841 362.571 72.949Z" fill="#FFB6B6"/>
<path d="M341.971 64.8186C342.708 64.1249 343.679 63.7333 344.691 63.7215C346.211 63.6721 348.488 64.2119 349.458 65.4478C350.237 66.441 350.274 67.8075 350.277 69.0699L350.285 72.5538C350.288 73.5846 350.3 74.6593 350.769 75.5775C351.237 76.4957 352.312 77.1931 353.294 76.8801C354.459 76.5088 354.971 74.9605 356.162 74.682C357.056 74.4729 357.974 75.1263 358.365 75.9573C358.695 76.8186 358.805 77.7488 358.683 78.6632C358.571 80.4875 355.954 81.2112 355.584 83.001C355.37 84.0363 354.619 86.1015 355.584 85.6687C360.03 85.2241 361.982 82.6271 364.017 80.1824L368.606 74.6687C369.13 74.1213 369.533 73.4694 369.788 72.7558C369.902 72.2558 369.943 71.7421 369.91 71.2304C369.885 69.86 369.847 68.4899 369.798 67.1202C369.755 65.9235 369.454 64.4135 368.282 64.1676C367.672 64.0397 366.865 64.2627 366.543 63.7297C366.422 63.4625 366.403 63.1606 366.488 62.8801C366.747 61.5123 367.183 60.0816 366.733 58.7644C366.054 56.7778 363.716 55.9626 361.651 55.5878C359.585 55.213 357.266 54.8905 355.969 53.2393C355.622 52.6911 355.246 52.1619 354.842 51.6543C354.247 51.1135 353.516 50.7449 352.728 50.5881C350.163 49.9391 347.455 50.1795 345.045 51.2699C344.045 51.7259 343.042 52.3399 341.946 52.2705C340.807 52.1983 339.834 51.397 338.71 51.202C336.895 50.8872 335.159 52.2475 334.264 53.8584C333.155 55.8546 333.054 58.5882 334.62 60.2498C335.401 61.0787 336.567 61.6481 336.892 62.7401C337.024 63.1846 336.993 63.6633 337.11 64.112C337.246 64.5587 337.505 64.9579 337.859 65.2634C338.212 65.5689 338.644 65.7684 339.106 65.8388C340.216 66.0196 341.155 65.511 341.971 64.8186Z" fill="#2F2E41"/>
<path d="M324.506 132.55C324.776 133.244 325.195 133.871 325.734 134.385C326.272 134.9 326.917 135.29 327.623 135.529C328.329 135.767 329.078 135.848 329.819 135.766C330.559 135.683 331.273 135.44 331.909 135.052L357.409 148.532L358.235 142.32L333.456 127.708C332.734 126.683 331.66 125.958 330.439 125.672C329.218 125.385 327.934 125.556 326.831 126.153C325.727 126.75 324.881 127.731 324.453 128.91C324.024 130.089 324.043 131.384 324.506 132.55V132.55Z" fill="#FFB6B6"/>
<path d="M358.487 133.624C358.072 134.242 357.526 134.762 356.887 135.146C356.249 135.531 355.535 135.77 354.794 135.849C354.053 135.927 353.304 135.842 352.599 135.599C351.895 135.357 351.252 134.963 350.716 134.445L322.884 142.019L323.127 134.132L350.813 126.941C351.742 126.099 352.948 125.627 354.203 125.614C355.457 125.602 356.672 126.05 357.618 126.874C358.564 127.697 359.175 128.839 359.335 130.084C359.496 131.328 359.194 132.587 358.487 133.624V133.624Z" fill="#FFB6B6"/>
<path d="M369.304 101.003L374.73 100.663C374.73 100.663 381.084 109.046 377.56 118.143C377.56 118.143 378.17 150.822 364.098 149.48C350.026 148.138 345.58 148.138 345.58 148.138L349.804 136.355L359.253 133.438C359.253 133.438 356.341 120.591 361.854 115.246L369.304 101.003Z" fill="#E4E4E4"/>
<path d="M330.118 100.716L329.351 96.7842C329.351 96.7842 318.04 96.5185 315.804 113.658C315.804 113.658 305.632 139.309 315.602 142.612C325.572 145.915 336.539 142.612 336.539 142.612L335.713 131.3L324.743 129.061C324.743 129.061 330.41 121.73 327.324 115.37L330.118 100.716Z" fill="#E4E4E4"/>
<path d="M399.538 291.339H0.461894C0.339392 291.339 0.221907 291.291 0.135285 291.204C0.0486633 291.118 0 291 0 290.878C0 290.755 0.0486633 290.638 0.135285 290.551C0.221907 290.464 0.339392 290.416 0.461894 290.416H399.538C399.661 290.416 399.778 290.464 399.865 290.551C399.951 290.638 400 290.755 400 290.878C400 291 399.951 291.118 399.865 291.204C399.778 291.291 399.661 291.339 399.538 291.339Z" fill="#CACACA"/>
</g>
<defs>
<clipPath id="clip0_2_2">
<rect width="400" height="300" fill="white"/>
</clipPath>
</defs>
</svg>
