<svg width="500" height="500" viewBox="0 0 877 744" fill="none" xmlns="http://www.w3.org/2000/svg">
<g clip-path="url(#clip0_0_3)">
<path d="M515 191H489C487.674 190.998 486.403 190.471 485.466 189.534C484.529 188.596 484.002 187.326 484 186V160C484.002 158.674 484.529 157.403 485.466 156.466C486.403 155.529 487.674 155.002 489 155H515C516.326 155.002 517.597 155.529 518.534 156.466C519.471 157.403 519.998 158.674 520 160V186C519.998 187.326 519.471 188.596 518.534 189.534C517.597 190.471 516.326 190.998 515 191V191ZM489 157C488.205 157.001 487.442 157.317 486.88 157.88C486.317 158.442 486.001 159.205 486 160V186C486.001 186.795 486.317 187.558 486.88 188.12C487.442 188.683 488.205 188.999 489 189H515C515.795 188.999 516.558 188.683 517.12 188.12C517.683 187.558 517.999 186.795 518 186V160C517.999 159.205 517.683 158.442 517.12 157.88C516.558 157.317 515.795 157.001 515 157H489Z" fill="#E6E6E6"/>
<path d="M212 36H186C184.674 35.9985 183.403 35.4712 182.466 34.5339C181.529 33.5965 181.002 32.3256 181 31V5C181.002 3.67438 181.529 2.40349 182.466 1.46614C183.403 0.528787 184.674 0.00151655 186 0H212C213.326 0.00151655 214.596 0.528787 215.534 1.46614C216.471 2.40349 216.998 3.67438 217 5V31C216.998 32.3256 216.471 33.5965 215.534 34.5339C214.596 35.4712 213.326 35.9985 212 36ZM186 2C185.205 2.00087 184.442 2.31722 183.88 2.87964C183.317 3.44206 183.001 4.20462 183 5V31C183.001 31.7954 183.317 32.5579 183.88 33.1204C184.442 33.6828 185.205 33.9991 186 34H212C212.795 33.9991 213.558 33.6828 214.12 33.1204C214.683 32.5579 214.999 31.7954 215 31V5C214.999 4.20462 214.683 3.44206 214.12 2.87964C213.558 2.31722 212.795 2.00087 212 2H186Z" fill="#E6E6E6"/>
<path d="M499 178H473C471.674 177.998 470.403 177.471 469.466 176.534C468.529 175.597 468.002 174.326 468 173V147C468.002 145.674 468.529 144.403 469.466 143.466C470.403 142.529 471.674 142.002 473 142H499C500.326 142.002 501.597 142.529 502.534 143.466C503.471 144.403 503.998 145.674 504 147V173C503.998 174.326 503.471 175.597 502.534 176.534C501.597 177.471 500.326 177.998 499 178V178ZM473 144C472.205 144.001 471.442 144.317 470.88 144.88C470.317 145.442 470.001 146.205 470 147V173C470.001 173.795 470.317 174.558 470.88 175.12C471.442 175.683 472.205 175.999 473 176H499C499.795 175.999 500.558 175.683 501.12 175.12C501.683 174.558 501.999 173.795 502 173V147C501.999 146.205 501.683 145.442 501.12 144.88C500.558 144.317 499.795 144.001 499 144H473Z" fill="#E6E6E6"/>
<path d="M47 395H21C19.6744 394.998 18.4035 394.471 17.4661 393.534C16.5288 392.596 16.0015 391.326 16 390V364C16.0015 362.674 16.5288 361.404 17.4661 360.466C18.4035 359.529 19.6744 359.002 21 359H47C48.3256 359.002 49.5965 359.529 50.5339 360.466C51.4712 361.404 51.9985 362.674 52 364V390C51.9985 391.326 51.4712 392.596 50.5339 393.534C49.5965 394.471 48.3256 394.998 47 395V395ZM21 361C20.2046 361.001 19.4421 361.317 18.8796 361.88C18.3172 362.442 18.0009 363.205 18 364V390C18.0009 390.795 18.3172 391.558 18.8796 392.12C19.4421 392.683 20.2046 392.999 21 393H47C47.7954 392.999 48.5579 392.683 49.1204 392.12C49.6828 391.558 49.9991 390.795 50 390V364C49.9991 363.205 49.6828 362.442 49.1204 361.88C48.5579 361.317 47.7954 361.001 47 361H21Z" fill="#E6E6E6"/>
<path d="M31 382H5C3.67438 381.998 2.40349 381.471 1.46614 380.534C0.528787 379.596 0.00151655 378.326 0 377V351C0.00151655 349.674 0.528787 348.404 1.46614 347.466C2.40349 346.529 3.67438 346.002 5 346H31C32.3256 346.002 33.5965 346.529 34.5339 347.466C35.4712 348.404 35.9985 349.674 36 351V377C35.9985 378.326 35.4712 379.596 34.5339 380.534C33.5965 381.471 32.3256 381.998 31 382ZM5 348C4.20462 348.001 3.44206 348.317 2.87964 348.88C2.31722 349.442 2.00087 350.205 2 351V377C2.00087 377.795 2.31722 378.558 2.87964 379.12C3.44206 379.683 4.20462 379.999 5 380H31C31.7954 379.999 32.5579 379.683 33.1204 379.12C33.6828 378.558 33.9991 377.795 34 377V351C33.9991 350.205 33.6828 349.442 33.1204 348.88C32.5579 348.317 31.7954 348.001 31 348H5Z" fill="#E6E6E6"/>
<path d="M92.4294 86.0386H333.045C344.656 86.0386 355.921 89.9889 364.99 97.2403C374.058 104.492 380.389 114.613 382.943 125.939L504.521 665.206C505.847 671.088 505.87 677.189 504.589 683.081C503.308 688.973 500.754 694.514 497.105 699.314C493.457 704.115 488.802 708.059 483.468 710.87C478.134 713.682 472.249 715.292 466.227 715.589L218.873 727.776C205.628 728.429 192.598 724.24 182.214 715.991C171.83 707.743 164.803 695.998 162.442 682.948L93.4756 301.68L88.3448 303.146L75.1487 230.882L80.4301 229.562L61.1792 123.136C60.3546 118.578 60.5458 113.893 61.7392 109.417C62.9326 104.941 65.0987 100.784 68.0831 97.2408C71.0676 93.6979 74.7969 90.857 79.0052 88.9207C83.2135 86.9844 87.7971 86.0003 92.4294 86.0386V86.0386Z" fill="#3F3D56"/>
<path d="M301.368 97.6638H329.455C337.521 97.6638 345.345 100.422 351.627 105.482C357.909 110.541 362.272 117.597 363.991 125.477L480.69 660.345C481.362 663.424 481.361 666.612 480.688 669.692C480.015 672.771 478.685 675.669 476.789 678.187C474.894 680.705 472.477 682.784 469.704 684.283C466.931 685.782 463.868 686.664 460.722 686.87L214.168 703.029C207.213 703.485 200.333 701.364 194.841 697.07C189.35 692.777 185.631 686.612 184.396 679.752L84.816 126.914C84.1715 123.336 84.3202 119.66 85.2515 116.145C86.1828 112.631 87.8741 109.364 90.206 106.574C92.5379 103.785 95.4536 101.541 98.7473 100.001C102.041 98.4618 105.633 97.6638 109.268 97.6638H135.913C138.492 97.6638 140.999 98.514 143.046 100.083C145.093 101.651 146.566 103.851 147.236 106.341V106.341C147.828 108.54 149.128 110.482 150.935 111.866C152.742 113.251 154.955 114.002 157.232 114.002H283.725C288.183 114.002 292.477 112.319 295.748 109.29C299.019 106.261 301.026 102.109 301.368 97.6638L301.368 97.6638Z" fill="white"/>
<path d="M104 188.606H371.476L399.971 317L129 322L104 188.606Z" fill="#F9A826"/>
<path d="M358 431.754H420.971L422.971 443.809H360L358 431.754Z" fill="#F9A826"/>
<path d="M409.235 370.256L142.17 375.912L142.197 377.168L409.262 371.513L409.235 370.256Z" fill="#2F2E41"/>
<path d="M417.403 407.331L145.311 413.615L145.34 414.872L417.432 408.588L417.403 407.331Z" fill="#2F2E41"/>
<path d="M384 560.754H446.971L448.971 572.809H386L384 560.754Z" fill="#F9A826"/>
<path d="M435.235 499.256L168.17 504.912L168.197 506.168L435.262 500.513L435.235 499.256Z" fill="#2F2E41"/>
<path d="M443.403 536.331L171.311 542.615L171.34 543.872L443.432 537.588L443.403 536.331Z" fill="#2F2E41"/>
<path d="M615.56 731.207L603.645 731.206L597.977 685.249L615.562 685.25L615.56 731.207Z" fill="#A0616A"/>
<path d="M618.598 742.757L580.18 742.755V742.269C580.18 738.303 581.755 734.5 584.56 731.696C587.364 728.892 591.167 727.316 595.133 727.316H595.134L618.599 727.317L618.598 742.757Z" fill="#2F2E41"/>
<path d="M763.576 723.405L751.979 726.136L735.926 682.702L753.043 678.671L763.576 723.405Z" fill="#A0616A"/>
<path d="M769.182 733.951L731.786 742.757L731.674 742.284C730.765 738.423 731.427 734.36 733.514 730.988C735.601 727.615 738.942 725.21 742.802 724.3L742.803 724.3L765.643 718.922L769.182 733.951Z" fill="#2F2E41"/>
<path d="M613.125 537.366C613.148 534.971 613.857 478.451 629.35 457.08L629.579 456.765L683.571 464.213L682.364 476.076C684.739 478.386 703.419 497.906 708.813 544.13L766.121 698.045L739.479 700.466L660.613 532.449L618.878 715.084H592.467L613.125 537.366Z" fill="#2F2E41"/>
<path d="M623.025 459.165L628.303 431.457C627.27 430.127 622.692 423.74 623.711 416.253C624.375 411.368 627.291 407.085 632.379 403.519L646.059 371.599L646.243 371.491C647.164 370.948 668.946 358.353 680.82 370.236C681.117 370.466 710.353 393.674 698.613 424.982L684.119 468.467L623.025 459.165Z" fill="#CCCCCC"/>
<path d="M604.663 496.652C606.086 496.489 607.456 496.017 608.677 495.267C609.897 494.518 610.939 493.51 611.728 492.314C612.517 491.118 613.034 489.764 613.243 488.347C613.452 486.93 613.348 485.485 612.938 484.112L641.189 463.758L624.277 457.325L600.042 477.64C597.782 478.482 595.91 480.123 594.779 482.254C593.648 484.384 593.339 486.855 593.908 489.198C594.478 491.542 595.887 493.595 597.869 494.969C599.851 496.342 602.268 496.941 604.663 496.652V496.652Z" fill="#A0616A"/>
<path d="M609.855 463.725L652.985 429.744L640.163 385.936C639.558 383.861 639.387 381.685 639.661 379.542C639.934 377.398 640.646 375.334 641.752 373.478C642.775 371.728 644.153 370.211 645.797 369.025C647.441 367.838 649.315 367.008 651.298 366.587C658.681 365.025 665.384 369.159 671.215 378.877L671.26 378.965C672.224 381.323 694.693 436.866 677.537 448.744C660.754 460.363 621.837 477.276 621.446 477.447L620.99 477.644L609.855 463.725Z" fill="#CCCCCC"/>
<path d="M667.177 358.684C681.607 358.684 693.305 346.986 693.305 332.556C693.305 318.126 681.607 306.428 667.177 306.428C652.747 306.428 641.049 318.126 641.049 332.556C641.049 346.986 652.747 358.684 667.177 358.684Z" fill="#A0616A"/>
<path d="M708.139 323.229C720.904 323.229 731.253 312.88 731.253 300.114C731.253 287.349 720.904 277 708.139 277C695.373 277 685.024 287.349 685.024 300.114C685.024 312.88 695.373 323.229 708.139 323.229Z" fill="#2F2E41"/>
<path d="M728.076 319.255C725.084 321.417 721.618 322.831 717.968 323.379C714.317 323.927 710.589 323.593 707.094 322.405C703.599 321.217 700.44 319.209 697.88 316.549C695.32 313.889 693.435 310.655 692.381 307.118C692.78 310.288 693.832 313.341 695.47 316.085C697.108 318.828 699.297 321.202 701.899 323.057C704.502 324.911 707.46 326.207 710.588 326.86C713.715 327.514 716.945 327.512 720.072 326.855C723.199 326.197 726.156 324.899 728.755 323.041C731.355 321.183 733.542 318.807 735.177 316.061C736.812 313.316 737.86 310.261 738.255 307.09C738.65 303.919 738.383 300.701 737.471 297.639C737.989 301.753 737.39 305.931 735.737 309.734C734.084 313.538 731.438 316.826 728.076 319.255V319.255Z" fill="#2F2E41"/>
<path d="M636.857 319.28C640.892 312.056 642.436 309.038 647.639 304.645C652.24 300.76 657.899 299.619 662.463 303.301C667.863 300.968 673.872 300.439 679.596 301.792C685.321 303.146 690.456 306.31 694.239 310.814C698.022 315.319 700.251 320.924 700.596 326.796C700.94 332.668 699.38 338.495 696.149 343.411C692.918 348.326 688.187 352.068 682.66 354.081C677.133 356.094 671.104 356.27 665.468 354.584C659.833 352.897 654.892 349.438 651.379 344.719C647.866 340.001 645.969 334.275 645.969 328.393C645.973 327.36 646.036 326.328 646.156 325.302C642.188 324.745 640.824 319.837 636.857 319.28Z" fill="#2F2E41"/>
<path d="M875.972 744H494.972C494.707 744 494.453 743.895 494.265 743.707C494.078 743.52 493.972 743.265 493.972 743C493.972 742.735 494.078 742.48 494.265 742.293C494.453 742.105 494.707 742 494.972 742H875.972C876.238 742 876.492 742.105 876.68 742.293C876.867 742.48 876.972 742.735 876.972 743C876.972 743.265 876.867 743.52 876.68 743.707C876.492 743.895 876.238 744 875.972 744Z" fill="#3F3D56"/>
</g>
<defs>
<clipPath id="clip0_0_3">
<rect width="876.972" height="744" fill="white"/>
</clipPath>
</defs>
</svg>
