<svg width="400" height="300" viewBox="0 0 507 411" fill="none" xmlns="http://www.w3.org/2000/svg">
<g clip-path="url(#clip0_2_2)">
<path d="M253.475 365.813V364.594C255.903 364.594 258.367 364.543 260.802 364.447L260.851 365.666C258.4 365.763 255.919 365.813 253.475 365.813ZM246.103 365.673C243.661 365.578 241.185 365.429 238.742 365.239L238.838 364.023C241.265 364.215 243.726 364.36 246.151 364.454L246.103 365.673ZM268.211 365.223L268.113 364.008C270.537 363.814 272.989 363.568 275.402 363.276L275.549 364.487C273.119 364.78 270.651 365.027 268.211 365.222V365.223ZM231.403 364.512C228.968 364.221 226.512 363.878 224.1 363.491L224.293 362.287C226.689 362.671 229.13 363.012 231.548 363.301L231.403 364.512ZM282.85 363.458L282.655 362.254C285.05 361.868 287.475 361.426 289.86 360.941L290.104 362.135C287.701 362.623 285.26 363.069 282.849 363.458H282.85ZM216.844 362.178C214.441 361.69 212.021 361.151 209.646 360.571L209.937 359.386C212.294 359.963 214.699 360.5 217.086 360.982L216.844 362.178ZM297.301 360.521L297.008 359.338C299.373 358.757 301.753 358.119 304.084 357.448L304.424 358.62C302.077 359.298 299.68 359.939 297.301 360.524V360.521ZM202.52 358.674C200.166 357.995 197.796 357.261 195.477 356.49L195.863 355.332C198.166 356.097 200.52 356.827 202.859 357.502L202.52 358.674ZM311.465 356.425L311.077 355.266C313.382 354.497 315.703 353.67 317.976 352.808L318.411 353.947C316.122 354.816 313.785 355.649 311.464 356.423L311.465 356.425ZM188.509 354.015C186.218 353.148 183.911 352.222 181.651 351.26L182.129 350.138C184.374 351.093 186.667 352.014 188.942 352.874L188.509 354.015ZM325.232 351.203L324.753 350.082C326.985 349.129 329.226 348.12 331.414 347.081L331.938 348.183C329.736 349.229 327.481 350.245 325.232 351.203V351.203ZM174.912 348.229C172.694 347.177 170.471 346.068 168.303 344.93L168.872 343.851C171.024 344.98 173.233 346.083 175.435 347.127L174.912 348.229ZM338.522 344.891L337.953 343.812C340.103 342.681 342.258 341.495 344.355 340.282L344.965 341.337C342.853 342.556 340.685 343.753 338.52 344.89L338.522 344.891ZM161.835 341.367C159.707 340.139 157.582 338.854 155.517 337.548L156.171 336.519C158.22 337.815 160.331 339.092 162.445 340.313L161.835 341.367ZM351.265 337.526L350.611 336.497C352.659 335.202 354.711 333.844 356.713 332.463L357.407 333.466C355.392 334.857 353.325 336.223 351.265 337.527V337.526ZM149.361 333.479C147.342 332.086 145.327 330.636 143.374 329.168L144.107 328.193C146.047 329.65 148.048 331.091 150.054 332.475L149.361 333.479ZM363.384 329.161L362.652 328.186C364.588 326.732 366.526 325.214 368.413 323.674L369.186 324.619C367.287 326.169 365.335 327.696 363.386 329.16L363.384 329.161ZM137.569 324.622C135.674 323.075 133.784 321.468 131.952 319.847L132.762 318.932C134.583 320.543 136.461 322.139 138.344 323.675L137.569 324.622ZM374.798 319.85L373.988 318.935C375.807 317.325 377.618 315.656 379.371 313.975L380.217 314.855C378.452 316.546 376.629 318.226 374.798 319.847V319.85ZM126.529 314.85C124.768 313.161 123.013 311.409 121.313 309.644L122.193 308.798C123.882 310.552 125.625 312.292 127.375 313.97L126.529 314.85ZM385.433 309.649L384.554 308.803C386.237 307.055 387.911 305.247 389.525 303.428L390.441 304.238C388.814 306.067 387.131 307.889 385.435 309.649H385.433ZM116.309 304.236C114.681 302.403 113.073 300.516 111.528 298.631L112.474 297.859C114.008 299.733 115.605 301.607 117.223 303.426L116.309 304.236ZM395.221 298.63L394.276 297.858C395.819 295.974 397.341 294.037 398.802 292.1L399.779 292.832C398.309 294.783 396.775 296.734 395.223 298.628L395.221 298.63ZM106.978 292.843C105.507 290.892 104.055 288.885 102.664 286.878L103.668 286.184C105.05 288.178 106.492 290.171 107.954 292.109L106.978 292.843ZM404.099 286.858L403.094 286.164C404.481 284.162 405.842 282.107 407.145 280.059L408.176 280.711C406.866 282.776 405.494 284.843 404.098 286.859L404.099 286.858ZM98.5952 280.748C97.2869 278.688 96.0017 276.573 94.7763 274.461L95.8326 273.851C97.05 275.949 98.3266 278.051 99.6258 280.097L98.5952 280.748ZM412.006 274.408L410.95 273.798C412.171 271.688 413.365 269.53 414.497 267.383L415.577 267.952C414.439 270.112 413.238 272.285 412.007 274.409L412.006 274.408ZM91.2151 268.024C90.0777 265.867 88.9677 263.656 87.9182 261.454L89.0208 260.93C90.0642 263.118 91.1669 265.314 92.2963 267.457L91.2151 268.024ZM418.882 261.353L417.779 260.829C418.824 258.634 419.839 256.385 420.796 254.147L421.919 254.625C420.958 256.876 419.933 259.142 418.882 261.353L418.882 261.353ZM84.8863 254.759C83.9247 252.513 82.9979 250.223 82.1322 247.949L83.2732 247.516C84.1335 249.771 85.0542 252.049 86.0091 254.279L84.8863 254.759ZM424.682 247.776L423.541 247.344C424.406 245.063 425.236 242.738 426.006 240.435L427.166 240.821C426.389 243.14 425.553 245.48 424.682 247.776H424.682ZM79.6503 241.013C78.8731 238.696 78.1332 236.33 77.4524 233.983L78.6252 233.644C79.3023 235.974 80.0374 238.324 80.8097 240.626L79.6503 241.013ZM429.355 233.787L428.181 233.449C428.853 231.122 429.491 228.744 430.074 226.381L431.259 226.672C430.673 229.052 430.032 231.445 429.355 233.787H429.355ZM75.539 226.87C74.9523 224.496 74.4071 222.079 73.9174 219.686L75.114 219.442C75.6025 221.82 76.1416 224.221 76.724 226.579L75.539 226.87ZM432.871 219.487L431.674 219.243C432.157 216.865 432.598 214.447 432.985 212.049L434.191 212.243C433.801 214.659 433.357 217.096 432.871 219.488V219.487ZM72.5864 212.442C72.1951 210.035 71.8471 207.582 71.5516 205.151L72.7635 205.004C73.0566 207.419 73.4027 209.856 73.7916 212.247L72.5864 212.442ZM435.216 204.947L434.003 204.802C434.294 202.388 434.539 199.939 434.73 197.523L435.948 197.62C435.754 200.052 435.508 202.517 435.215 204.947H435.216ZM70.8159 197.825C70.6187 195.389 70.4685 192.916 70.3696 190.473L71.5907 190.424C71.6896 192.85 71.8385 195.307 72.0345 197.726L70.8159 197.825ZM436.391 190.27L435.17 190.222C435.265 187.792 435.314 185.332 435.314 182.906V182.501H436.535V182.903C436.535 185.347 436.486 187.823 436.389 190.27H436.391ZM71.4337 183.11H70.2127V182.905C70.2127 180.527 70.2591 178.117 70.3507 175.748L71.5717 175.795C71.4814 178.149 71.435 180.542 71.435 182.907L71.4337 183.11ZM435.152 175.191C435.051 172.77 434.9 170.314 434.701 167.889L435.918 167.79C436.118 170.228 436.27 172.703 436.372 175.141L435.152 175.191ZM71.9985 168.492L70.7811 168.397C70.9728 165.958 71.2171 163.489 71.5058 161.068L72.7184 161.212C72.4314 163.617 72.1896 166.067 71.9985 168.492L71.9985 168.492ZM433.958 160.612C433.663 158.207 433.315 155.771 432.92 153.37L434.125 153.173C434.52 155.59 434.872 158.042 435.168 160.464L433.958 160.612ZM73.7294 153.966L72.5236 153.773C72.9107 151.359 73.3521 148.921 73.8362 146.527L75.0329 146.771C74.5518 149.148 74.1134 151.571 73.7288 153.969L73.7294 153.966ZM431.593 146.175C431.104 143.792 430.559 141.392 429.975 139.041L431.16 138.748C431.748 141.116 432.296 143.532 432.789 145.931L431.593 146.175ZM76.6276 139.627L75.4413 139.338C76.022 136.964 76.6624 134.57 77.3371 132.22L78.5105 132.557C77.8371 134.893 77.2046 137.272 76.6277 139.629L76.6276 139.627ZM428.069 131.977C427.389 129.648 426.652 127.299 425.877 124.997L427.037 124.608C427.817 126.925 428.559 129.291 429.243 131.636L428.069 131.977ZM80.6792 125.572L79.5192 125.187C80.2921 122.865 81.1243 120.524 81.9931 118.228L83.1354 118.659C82.2732 120.939 81.4465 123.265 80.6791 125.572L80.6792 125.572ZM423.4 118.111C422.533 115.843 421.609 113.568 420.657 111.349L421.779 110.869C422.738 113.102 423.668 115.392 424.541 117.676L423.4 118.111ZM85.873 111.854L84.749 111.376C85.7088 109.123 86.7284 106.858 87.7791 104.645L88.8823 105.167C87.8388 107.366 86.826 109.616 85.8729 111.854L85.873 111.854ZM417.643 104.703C416.598 102.517 415.494 100.323 414.361 98.1795L415.441 97.61C416.582 99.7671 417.693 101.977 418.745 104.177L417.643 104.703ZM92.1603 98.6093L91.079 98.0429C92.2171 95.8767 93.4162 93.7026 94.6421 91.5802L95.6996 92.1899C94.4822 94.2988 93.291 96.4584 92.1609 98.6099L92.1603 98.6093ZM410.816 91.7924C409.595 89.6932 408.316 87.5935 407.015 85.5504L408.046 84.8962C409.356 86.9533 410.642 89.0671 411.872 91.1803L410.816 91.7924ZM99.4947 85.9235L98.4629 85.2718C99.7731 83.2037 101.142 81.1344 102.534 79.1218L103.539 79.8145C102.157 81.8142 100.797 83.8695 99.4953 85.9241L99.4947 85.9235ZM402.966 79.4645C401.58 77.4714 400.136 75.4789 398.674 73.5444L399.651 72.8097C401.124 74.7607 402.577 76.7629 403.971 78.77L402.966 79.4645ZM107.824 73.8736L106.847 73.142C108.319 71.1861 109.849 69.2345 111.397 67.3402L112.343 68.1115C110.806 69.9924 109.285 71.9318 107.825 73.8742L107.824 73.8736ZM394.146 67.7987C392.607 65.9221 391.006 64.0515 389.392 62.2377L390.304 61.4274C391.93 63.2535 393.54 65.1368 395.091 67.0262L394.146 67.7987ZM117.095 62.534L116.179 61.7262C117.8 59.8971 119.482 58.0748 121.177 56.3091L122.058 57.1535C120.374 58.907 118.7 60.7178 117.093 62.534H117.095ZM384.421 56.8688C382.731 55.1178 380.986 53.3802 379.231 51.7029L380.076 50.8225C381.84 52.5113 383.598 54.2605 385.298 56.0232L384.421 56.8688ZM127.236 51.976L126.389 51.0975C128.151 49.4044 129.973 47.7229 131.804 46.098L132.614 47.0126C130.793 48.624 128.984 50.2945 127.233 51.9767L127.236 51.976ZM373.842 46.7467C372.018 45.1359 370.138 43.5422 368.255 42.0095L369.027 41.0644C370.92 42.607 372.812 44.2116 374.651 45.8334L373.842 46.7467ZM138.183 42.2655L137.409 41.3223C139.302 39.7725 141.255 38.2428 143.204 36.7747L143.936 37.7502C142.001 39.2067 140.065 40.7266 138.183 42.2655L138.183 42.2655ZM362.478 37.4996C360.53 36.0394 358.527 34.6011 356.527 33.2232L357.22 32.2197C359.235 33.6067 361.25 35.0547 363.211 36.5247L362.478 37.4996ZM149.871 33.4647L149.175 32.4623C151.189 31.0692 153.252 29.7011 155.312 28.3945L155.967 29.4236C153.921 30.7211 151.869 32.0801 149.87 33.4641L149.871 33.4647ZM350.407 29.1877C348.348 27.8891 346.236 26.6154 344.128 25.4015L344.738 24.3455C346.86 25.5649 348.986 26.8495 351.06 28.1567L350.407 29.1877ZM162.22 25.6332L161.609 24.5784C163.721 23.356 165.888 22.158 168.051 21.0185L168.621 22.097C166.47 23.2286 164.317 24.4181 162.22 25.6332L162.22 25.6332ZM337.699 21.8708C335.543 20.7423 333.333 19.6424 331.131 18.6017L331.653 17.4993C333.87 18.5474 336.095 19.6546 338.265 20.7917L337.699 21.8708ZM175.152 18.8224L174.626 17.7213C176.828 16.6732 179.083 15.6544 181.329 14.6936L181.81 15.8142C179.579 16.7683 177.338 17.7804 175.151 18.8224H175.152ZM324.432 15.5996C322.188 14.6478 319.895 13.7302 317.616 12.8706L318.048 11.7299C320.342 12.5944 322.651 13.5193 324.909 14.4771L324.432 15.5996ZM188.583 13.0785L188.148 11.939C190.433 11.0689 192.769 10.2318 195.091 9.45571L195.479 10.6141C193.172 11.3841 190.852 12.2145 188.583 13.0784L188.583 13.0785ZM310.695 10.4202C308.388 9.6563 306.033 8.92894 303.697 8.25889L304.034 7.08707C306.387 7.76139 308.756 8.49363 311.079 9.26305L310.695 10.4202ZM202.471 8.42778L202.129 7.25718C204.478 6.57493 206.874 5.9311 209.251 5.34397L209.544 6.52738C207.183 7.10959 204.803 7.74916 202.471 8.42774L202.471 8.42778ZM296.615 6.3841C294.258 5.80977 291.853 5.27568 289.465 4.79586L289.706 3.60026C292.109 4.08313 294.529 4.62149 296.905 5.19947L296.615 6.3841ZM216.69 4.91597L216.446 3.72159C218.84 3.23383 221.28 2.78449 223.699 2.39064L223.896 3.59416C221.491 3.98375 219.067 4.42883 216.689 4.91475L216.69 4.91597ZM282.255 3.49783C279.854 3.11556 277.413 2.77657 274.999 2.49184L275.143 1.281C277.572 1.56816 280.027 1.90898 282.447 2.29431L282.255 3.49783ZM231.147 2.56318L230.999 1.35295C233.428 1.05786 235.896 0.804226 238.336 0.609735L238.435 1.82484C236.011 2.01994 233.559 2.26992 231.147 2.56196V2.56318ZM267.709 1.77668C265.289 1.58829 262.825 1.44623 260.396 1.35417L260.442 0.134787C262.89 0.22746 265.367 0.370735 267.804 0.561568L267.709 1.77668ZM245.747 1.37734L245.697 0.157957C248.139 0.0573582 250.619 0.0043136 253.07 4.57764e-05V1.21942C250.637 1.22369 248.172 1.27673 245.747 1.37611L245.747 1.37734Z" fill="#CCCCCC"/>
<path d="M367.096 410.495H139.971C128.619 410.483 119.374 401.794 119.361 391.126V81.863C119.374 71.1943 128.62 62.5057 139.971 62.4938H367.096C378.448 62.5057 387.693 71.1944 387.706 81.8627V391.126C387.693 401.795 378.447 410.483 367.096 410.495Z" fill="#3F3D56"/>
<path d="M369.352 391.879H137.715C134.043 391.876 131.053 389.225 131.049 385.97V89.067C131.053 85.8119 134.043 83.1612 137.715 83.1573H369.352C373.024 83.1612 376.014 85.8119 376.019 89.0667V385.97C376.014 389.225 373.024 391.876 369.352 391.879Z" fill="white"/>
<path d="M253.531 178.025C248.723 178.027 243.961 177.084 239.518 175.248C235.075 173.412 231.037 170.721 227.635 167.327C224.234 163.933 221.535 159.904 219.693 155.468C217.851 151.033 216.901 146.278 216.899 141.477V141.444C216.899 141.367 216.899 141.286 216.904 141.21C216.95 133.985 219.137 126.935 223.191 120.95C227.244 114.965 232.981 110.313 239.678 107.58C246.376 104.847 253.734 104.156 260.825 105.593C267.915 107.031 274.42 110.533 279.52 115.659C284.62 120.784 288.085 127.302 289.48 134.392C290.875 141.481 290.136 148.825 287.356 155.495C284.577 162.166 279.882 167.866 273.863 171.875C267.844 175.885 260.771 178.024 253.536 178.024H253.531V178.025ZM253.531 105.632C244.064 105.653 234.987 109.404 228.274 116.071C221.56 122.737 217.752 131.779 217.677 141.233C217.673 141.315 217.673 141.382 217.673 141.443C217.672 148.526 219.775 155.451 223.716 161.341C227.656 167.23 233.257 171.821 239.81 174.532C246.363 177.243 253.574 177.953 260.53 176.572C267.487 175.19 273.878 171.78 278.894 166.771C283.91 161.763 287.326 155.382 288.71 148.435C290.094 141.488 289.385 134.287 286.671 127.742C283.957 121.198 279.36 115.604 273.463 111.669C267.566 107.733 260.632 105.632 253.539 105.632H253.531V105.632Z" fill="#E4E4E4"/>
<path d="M181.435 214.726V203.142C181.435 202.489 181.176 201.864 180.714 201.402C180.252 200.941 179.625 200.682 178.972 200.682C178.318 200.682 177.692 200.941 177.23 201.402C176.768 201.864 176.508 202.489 176.508 203.142V214.726C175.536 215.27 174.773 216.121 174.336 217.145C173.9 218.168 173.817 219.308 174.098 220.384C174.38 221.461 175.011 222.414 175.893 223.094C176.775 223.774 177.857 224.143 178.972 224.143C180.086 224.143 181.169 223.774 182.05 223.094C182.932 222.414 183.563 221.461 183.845 220.384C184.127 219.308 184.043 218.168 183.607 217.145C183.171 216.121 182.407 215.27 181.435 214.726V214.726Z" fill="#F9A826"/>
<path d="M178.12 203.142C178.138 202.932 178.234 202.736 178.39 202.594C178.545 202.451 178.748 202.372 178.959 202.372C179.17 202.372 179.374 202.451 179.529 202.594C179.685 202.736 179.781 202.932 179.799 203.142V210.617H178.12V203.142Z" fill="white"/>
<path opacity="0.999" d="M338.461 211.595H200.433V213.223H338.461V211.595Z" fill="#E6E6E6"/>
<path d="M245.679 216.271C247.814 216.271 249.544 214.543 249.544 212.412C249.544 210.281 247.814 208.553 245.679 208.553C243.545 208.553 241.815 210.281 241.815 212.412C241.815 214.543 243.545 216.271 245.679 216.271Z" fill="#F9A826"/>
<path d="M245.679 211.595H200.433V213.223H245.679V211.595Z" fill="#F9A826"/>
<path d="M338.461 257.324H200.433V258.952H338.461V257.324Z" fill="#E6E6E6"/>
<path d="M279.869 262.002C282.004 262.002 283.734 260.274 283.734 258.142C283.734 256.011 282.004 254.283 279.869 254.283C277.735 254.283 276.005 256.011 276.005 258.142C276.005 260.274 277.735 262.002 279.869 262.002Z" fill="#F9A826"/>
<path d="M280.242 257.324H200.433V258.952H280.242V257.324Z" fill="#F9A826"/>
<path d="M338.461 300.012H200.433V301.64H338.461V300.012Z" fill="#E6E6E6"/>
<path d="M317.723 304.682C319.857 304.682 321.587 302.954 321.587 300.823C321.587 298.692 319.857 296.964 317.723 296.964C315.588 296.964 313.858 298.692 313.858 300.823C313.858 302.954 315.588 304.682 317.723 304.682Z" fill="#F9A826"/>
<path d="M318.095 300.012H200.433V301.64H318.095V300.012Z" fill="#F9A826"/>
<path d="M475.034 316.706C474.472 317.11 473.827 317.384 473.146 317.509C472.464 317.634 471.764 317.607 471.094 317.43C470.5 317.272 469.942 316.998 469.452 316.625C468.963 316.252 468.553 315.786 468.244 315.254C467.935 314.722 467.734 314.135 467.652 313.526C467.571 312.917 467.61 312.297 467.768 311.703C467.785 311.641 467.802 311.58 467.821 311.519C467.891 311.299 467.977 311.085 468.079 310.878L458.864 269.562C458.725 269.089 458.681 268.593 458.734 268.103C458.787 267.613 458.937 267.139 459.174 266.706C459.411 266.274 459.732 265.893 460.117 265.585C460.502 265.276 460.944 265.047 461.418 264.909C461.892 264.772 462.388 264.729 462.879 264.783C463.369 264.837 463.844 264.988 464.276 265.226C464.709 265.464 465.09 265.784 465.398 266.169C465.706 266.554 465.935 266.996 466.071 267.47L466.078 267.494L474.778 308.937C475.431 309.343 475.975 309.904 476.359 310.57C476.744 311.235 476.959 311.985 476.984 312.753C477.01 313.522 476.845 314.284 476.505 314.974C476.165 315.663 475.66 316.258 475.035 316.707L475.034 316.706Z" fill="#FEB8B8"/>
<path d="M487.272 405.352H482.274L479.893 386.099H487.271L487.272 405.352Z" fill="#A0616A"/>
<path d="M488.547 410.192H472.429V409.988C472.429 408.327 473.09 406.734 474.266 405.559C475.443 404.384 477.038 403.724 478.702 403.724H488.547L488.547 410.192Z" fill="#A0616A"/>
<path d="M487.272 405.352H482.274L479.893 386.099H487.271L487.272 405.352Z" fill="#FEB8B8"/>
<path d="M488.547 410.192H472.429V409.988C472.429 408.327 473.09 406.734 474.266 405.559C475.443 404.384 477.038 403.724 478.702 403.724H488.547L488.547 410.192Z" fill="#2F2E41"/>
<path d="M437.16 405.195L432.404 403.658L436.075 384.609L443.097 386.876L437.16 405.195Z" fill="#A0616A"/>
<path d="M436.882 410.19L421.549 405.236L421.61 405.042C422.122 403.461 423.242 402.149 424.723 401.392C426.205 400.636 427.926 400.499 429.509 401.01V401.01L438.875 404.036L436.882 410.19Z" fill="#A0616A"/>
<path d="M437.16 405.195L432.404 403.658L436.075 384.609L443.097 386.876L437.16 405.195Z" fill="#FEB8B8"/>
<path d="M436.882 410.19L421.549 405.236L421.61 405.042C422.122 403.461 423.242 402.149 424.723 401.392C426.205 400.636 427.926 400.499 429.509 401.01V401.01L438.875 404.036L436.882 410.19Z" fill="#2F2E41"/>
<path d="M458.831 258.411C463.488 258.411 467.263 254.64 467.263 249.99C467.263 245.339 463.488 241.569 458.831 241.569C454.173 241.569 450.398 245.339 450.398 249.99C450.398 254.64 454.173 258.411 458.831 258.411Z" fill="#FEB8B8"/>
<path d="M470.92 282.727C472.093 278.377 466.723 264.736 466.284 263.005C464.191 262.523 459.339 263.448 456.357 262.835C452.117 266.371 448.743 271.426 446.413 273.824C443.989 276.317 442.427 278.007 444.931 283.843C446.78 288.438 447.586 293.385 447.292 298.328L449.316 316.18C449.316 316.18 440.883 339.76 441.558 355.592L433.8 394.33C434.517 395.486 435.64 396.333 436.95 396.707C438.259 397.081 439.661 396.954 440.882 396.351C440.882 396.351 452.013 376.475 451.002 361.993L463.145 335.044C463.145 335.044 471.578 360.644 473.94 363.003L480.011 399.382C480.011 399.382 485.746 401.066 488.444 399.382C488.444 399.382 489.456 364.35 483.722 358.623C483.722 358.623 477.987 334.371 479.337 327.97C480.686 321.57 481.024 311.801 470.904 303.044C470.904 303.044 471.005 303.09 467.868 297.317L470.92 282.727Z" fill="#2F2E41"/>
<path d="M463.23 236.974C462.757 236.975 462.285 237.022 461.822 237.114C460.984 236.708 460.066 236.496 459.135 236.495H458.891C454.185 236.495 450.37 240.747 450.37 245.992H451.947L452.202 244.057L452.575 245.992H453.888C453.48 247.545 453.275 249.143 453.278 250.748V260.418H455.659L457.039 256.836L456.694 260.418H472.019L473.273 257.162L472.96 260.418H474.685V252.828C474.685 244.072 469.556 236.974 463.23 236.974Z" fill="#2F2E41"/>
<path d="M446.399 321.492C445.714 321.594 445.015 321.544 444.352 321.345C443.688 321.145 443.078 320.802 442.563 320.339V320.339C442.106 319.928 441.734 319.43 441.47 318.875C441.205 318.32 441.053 317.718 441.021 317.104C440.989 316.49 441.079 315.876 441.285 315.297C441.491 314.717 441.809 314.184 442.221 313.728C442.264 313.68 442.308 313.634 442.352 313.588C442.515 313.424 442.689 313.272 442.875 313.134L453.559 272.173C453.751 271.198 454.323 270.338 455.149 269.784C455.975 269.23 456.988 269.026 457.965 269.217C458.941 269.408 459.802 269.979 460.357 270.804C460.912 271.63 461.116 272.641 460.925 273.616L460.924 273.622L449.722 314.461C450.117 315.12 450.344 315.866 450.382 316.634C450.421 317.401 450.269 318.167 449.94 318.862C449.612 319.557 449.117 320.16 448.499 320.619C447.881 321.077 447.16 321.376 446.399 321.49V321.492Z" fill="#FEB8B8"/>
<path d="M51.6634 410.995C53.3018 410.995 54.63 409.258 54.63 407.116C54.63 404.974 53.3018 403.237 51.6634 403.237C50.025 403.237 48.6968 404.974 48.6968 407.116C48.6968 409.258 50.025 410.995 51.6634 410.995Z" fill="#F0F0F0"/>
<path d="M62.7726 363.766C64.7418 361.263 65.8123 358.172 65.8123 354.989C65.8123 351.806 64.7418 348.715 62.7726 346.213L62.7714 346.209C63.1762 345.692 63.5458 345.149 63.8777 344.582L56.0752 343.298L64.5121 343.362C65.32 341.603 65.7605 339.698 65.8069 337.764C65.8533 335.829 65.5045 333.906 64.7819 332.111L53.4724 337.976L63.9069 330.313C62.9295 328.624 61.6144 327.155 60.0434 325.996C58.4724 324.838 56.6793 324.015 54.7758 323.579C52.8724 323.142 50.8993 323.102 48.9797 323.461C47.0601 323.82 45.2351 324.57 43.6183 325.664C42.0016 326.758 40.6279 328.172 39.5827 329.82C38.5376 331.467 37.8435 333.312 37.5436 335.239C37.2437 337.166 37.3446 339.134 37.8398 341.021C38.3351 342.907 39.2141 344.672 40.4222 346.204C39.7935 347.001 39.2505 347.862 38.8019 348.773L48.9282 354.026L38.1303 350.434C37.3724 352.671 37.1849 355.062 37.5846 357.389C37.9844 359.717 38.9588 361.908 40.4198 363.766C38.9088 365.685 37.919 367.96 37.5459 370.373C37.1728 372.786 37.4291 375.254 38.2899 377.538C39.1508 379.823 40.5872 381.848 42.4603 383.416C44.3335 384.985 46.5801 386.045 48.9831 386.493C48.7925 387.024 48.6957 387.583 48.6969 388.147C48.6892 388.979 48.9041 389.798 49.3196 390.519C48.9113 391.243 48.6968 392.06 48.6969 392.891C48.6969 393.722 48.9115 394.539 49.32 395.263C48.9118 395.987 48.6973 396.803 48.6969 397.634C48.6965 398.464 48.9104 399.281 49.3179 400.005C48.9036 400.725 48.6892 401.543 48.6969 402.374C48.6969 404.516 50.025 406.252 51.6634 406.252C53.3018 406.252 54.6299 404.516 54.6299 402.374C54.2228 401.65 54.009 400.834 54.009 400.005C54.009 399.175 54.2228 398.359 54.6299 397.636C54.6376 396.804 54.4225 395.984 54.0069 395.263C54.4153 394.539 54.6299 393.722 54.6299 392.891C54.63 392.06 54.4155 391.243 54.0072 390.519C54.4227 389.798 54.6377 388.979 54.6299 388.147C54.6312 387.574 54.531 387.005 54.3339 386.466C56.7223 385.999 58.9505 384.927 60.8051 383.353C62.6597 381.78 64.0784 379.757 64.9254 377.478C65.7724 375.2 66.0193 372.742 65.6423 370.341C65.2654 367.94 64.2772 365.676 62.7726 363.766V363.766Z" fill="#F0F0F0"/>
<path opacity="0.05" d="M37.383 354.985C37.3769 358.169 38.4481 361.262 40.4228 363.762C38.7742 365.856 37.749 368.371 37.4642 371.02C37.1794 373.669 37.6467 376.344 38.8125 378.74C39.9783 381.136 41.7956 383.156 44.0568 384.569C46.318 385.983 48.9317 386.732 51.5993 386.732C54.2668 386.732 56.8806 385.983 59.1418 384.569C61.4029 383.156 63.2203 381.136 64.3861 378.74C65.5519 376.344 66.0191 373.669 65.7344 371.02C65.4496 368.371 64.4243 365.856 62.7757 363.762C64.6794 361.347 37.383 353.392 37.383 354.985Z" fill="black"/>
<path d="M27.4912 374.099L27.4874 374.095C27.7128 373.807 27.9187 373.504 28.1036 373.188L23.7565 372.472L28.4577 372.508C28.9077 371.529 29.1531 370.467 29.1788 369.39C29.2046 368.312 29.0103 367.24 28.6077 366.24L22.3071 369.508L28.1206 365.24C27.576 364.3 26.8433 363.481 25.968 362.836C25.0927 362.19 24.0937 361.732 23.0332 361.489C21.9727 361.246 20.8734 361.223 19.8039 361.423C18.7344 361.623 17.7176 362.041 16.8169 362.65C15.9161 363.26 15.1508 364.048 14.5685 364.966C13.9862 365.884 13.5994 366.911 13.4323 367.985C13.2653 369.059 13.3214 370.155 13.5974 371.206C13.8733 372.257 14.363 373.24 15.0361 374.094C14.6858 374.538 14.3832 375.018 14.1331 375.525L19.7752 378.452L13.7608 376.451C13.3385 377.697 13.2339 379.029 13.4566 380.326C13.6793 381.623 14.2221 382.844 15.0361 383.878C14.1936 384.947 13.6417 386.215 13.4337 387.56C13.2256 388.904 13.3685 390.279 13.8486 391.552C14.3286 392.825 15.1296 393.953 16.1739 394.826C17.2182 395.7 18.4705 396.289 19.8098 396.537C19.7016 396.833 19.6461 397.146 19.6458 397.461C19.8777 397.863 19.9997 398.318 19.9997 398.782C19.9997 399.246 19.8777 399.702 19.6458 400.104C19.8775 400.506 19.9994 400.962 19.9994 401.425C19.9994 401.889 19.8775 402.345 19.6458 402.747C19.8769 403.148 19.9985 403.603 19.9985 404.067C19.9985 404.53 19.8769 404.985 19.6458 405.387C19.8775 405.788 19.9994 406.244 19.9994 406.708C19.9994 407.171 19.8775 407.627 19.6458 408.029C19.6458 409.222 20.3857 410.19 21.2985 410.19C22.2111 410.19 22.9513 409.222 22.9513 408.029C22.7194 407.627 22.5974 407.171 22.5974 406.708C22.5974 406.244 22.7194 405.788 22.9513 405.387C22.72 404.985 22.5983 404.53 22.5983 404.067C22.5983 403.603 22.72 403.148 22.9513 402.747C22.7194 402.345 22.5974 401.889 22.5974 401.425C22.5974 400.962 22.7194 400.506 22.9513 400.104C22.7192 399.702 22.5971 399.246 22.5971 398.782C22.5971 398.318 22.7192 397.863 22.9513 397.461C22.9508 397.14 22.8931 396.823 22.781 396.522C24.1127 396.264 25.3556 395.669 26.3904 394.793C27.4252 393.917 28.2171 392.79 28.69 391.521C29.163 390.251 29.3011 388.881 29.0912 387.543C28.8813 386.205 28.3303 384.943 27.4912 383.879C28.5883 382.484 29.1847 380.762 29.1847 378.989C29.1847 377.215 28.5883 375.494 27.4912 374.099V374.099Z" fill="#F0F0F0"/>
<path d="M84.9015 384.639L84.898 384.635C85.0715 384.414 85.23 384.181 85.3723 383.938L82.0265 383.389L85.6447 383.416C85.9911 382.662 86.18 381.846 86.2 381.016C86.2199 380.187 86.0704 379.362 85.7607 378.592L80.911 381.107L85.3857 377.821C84.9671 377.096 84.4033 376.465 83.7296 375.967C83.0558 375.469 82.2866 375.115 81.4698 374.928C80.6531 374.74 79.8064 374.723 78.9826 374.876C78.1588 375.03 77.3756 375.352 76.6818 375.821C75.9881 376.291 75.3987 376.898 74.9504 377.605C74.5022 378.312 74.2047 379.104 74.0766 379.931C73.9484 380.758 73.9924 381.603 74.2057 382.412C74.419 383.222 74.797 383.978 75.3163 384.635C75.0466 384.977 74.8137 385.346 74.6214 385.737L78.9634 387.99L74.3343 386.45C74.0093 387.409 73.9289 388.434 74.1003 389.432C74.2718 390.431 74.6897 391.37 75.3163 392.167C74.6677 392.989 74.2428 393.965 74.0826 395C73.9224 396.035 74.0323 397.093 74.4018 398.073C74.7712 399.053 75.3877 399.921 76.1916 400.593C76.9954 401.266 77.9594 401.719 78.9903 401.911C78.9069 402.138 78.8641 402.379 78.8639 402.622C79.0426 402.931 79.1366 403.282 79.1366 403.639C79.1366 403.996 79.0426 404.347 78.8639 404.657C79.0424 404.966 79.1363 405.317 79.1363 405.674C79.1363 406.031 79.0424 406.381 78.8639 406.691C79.0418 407 79.1355 407.35 79.1355 407.706C79.1355 408.063 79.0418 408.413 78.8639 408.722C78.8639 409.641 79.4336 410.385 80.1362 410.385C80.8392 410.385 81.4086 409.641 81.4086 408.722C81.2308 408.413 81.1373 408.063 81.1373 407.706C81.1373 407.35 81.2308 407 81.4086 406.691C81.2303 406.381 81.1364 406.031 81.1364 405.674C81.1364 405.317 81.2303 404.966 81.4086 404.657C81.2301 404.347 81.1361 403.996 81.1361 403.639C81.1361 403.282 81.2301 402.931 81.4086 402.622C81.4084 402.375 81.364 402.13 81.2774 401.899C82.3023 401.7 83.2589 401.242 84.0553 400.567C84.8516 399.893 85.461 399.026 85.8249 398.049C86.1888 397.071 86.295 396.017 86.1333 394.987C85.9716 393.957 85.5475 392.986 84.9016 392.167C85.7462 391.093 86.2053 389.768 86.2053 388.403C86.2053 387.038 85.7461 385.713 84.9015 384.639V384.639Z" fill="#F0F0F0"/>
<path d="M253.229 77.3238C252.125 77.3187 251.057 76.9314 250.207 76.2279C249.356 75.5245 248.776 74.5484 248.566 73.4659C248.355 72.3835 248.527 71.2617 249.052 70.2915C249.577 69.3214 250.422 68.563 251.444 68.1455C252.466 67.7281 253.602 67.6773 254.657 68.002C255.712 68.3267 256.622 69.0066 257.232 69.9261C257.841 70.8455 258.113 71.9475 258 73.0444C257.887 74.1413 257.397 75.1652 256.613 75.9417C256.167 76.3828 255.639 76.7319 255.059 76.969C254.478 77.2062 253.856 77.3268 253.229 77.3238V77.3238Z" fill="white"/>
<path d="M506.319 410.996H0.681255C0.595461 411.006 0.508646 410.997 0.426471 410.971C0.344296 410.944 0.268611 410.901 0.20434 410.843C0.140068 410.786 0.0886611 410.715 0.0534665 410.637C0.0182718 410.558 7.62939e-05 410.473 7.62939e-05 410.387C7.62939e-05 410.3 0.0182718 410.215 0.0534665 410.137C0.0886611 410.058 0.140068 409.987 0.20434 409.93C0.268611 409.872 0.344296 409.829 0.426471 409.803C0.508646 409.776 0.595461 409.768 0.681255 409.777H506.319C506.405 409.768 506.491 409.776 506.574 409.803C506.656 409.829 506.731 409.872 506.796 409.93C506.86 409.987 506.911 410.058 506.947 410.137C506.982 410.215 507 410.3 507 410.387C507 410.473 506.982 410.558 506.947 410.637C506.911 410.715 506.86 410.786 506.796 410.843C506.731 410.901 506.656 410.944 506.574 410.971C506.491 410.997 506.405 411.006 506.319 410.996V410.996Z" fill="#E6E6E6"/>
<path d="M178.972 221.526C180.32 221.526 181.414 220.434 181.414 219.087C181.414 217.74 180.32 216.648 178.972 216.648C177.623 216.648 176.529 217.74 176.529 219.087C176.529 220.434 177.623 221.526 178.972 221.526Z" fill="white"/>
<path d="M184.793 255.668C184.833 256.374 184.729 257.08 184.486 257.744C184.244 258.408 183.868 259.015 183.382 259.529C182.896 260.042 182.311 260.452 181.661 260.731C181.011 261.011 180.311 261.155 179.603 261.155C178.896 261.155 178.195 261.011 177.546 260.731C176.896 260.452 176.31 260.042 175.824 259.529C175.338 259.015 174.963 258.408 174.72 257.744C174.477 257.08 174.373 256.374 174.414 255.668C174.414 252.638 179.298 249.571 179.298 244.084C179.298 241.222 184.793 252.638 184.793 255.668Z" fill="#F9A826"/>
<path d="M182.717 255.577C182.742 256.001 182.679 256.424 182.533 256.823C182.388 257.221 182.162 257.585 181.871 257.894C181.579 258.202 181.228 258.448 180.838 258.615C180.448 258.783 180.028 258.87 179.603 258.87C179.179 258.87 178.758 258.783 178.368 258.615C177.979 258.448 177.627 258.202 177.336 257.894C177.044 257.585 176.818 257.221 176.673 256.823C176.527 256.424 176.465 256.001 176.489 255.577C176.489 253.759 179.42 251.919 179.42 248.626C179.42 246.908 182.717 253.759 182.717 255.577Z" fill="white"/>
<path d="M178.969 290.762C174.786 290.762 171.416 293.902 171.416 297.786C171.425 298.944 171.725 300.081 172.288 301.093C172.851 302.105 173.66 302.96 174.64 303.578V305.852C174.649 306.129 174.768 306.39 174.971 306.579C175.173 306.767 175.442 306.868 175.719 306.858L175.721 306.858H182.217C182.493 306.868 182.763 306.768 182.965 306.58C183.168 306.391 183.287 306.13 183.297 305.854L183.297 305.852V303.578C184.279 302.961 185.09 302.107 185.654 301.095C186.219 300.083 186.519 298.945 186.527 297.786C186.527 293.902 183.151 290.762 178.969 290.762Z" fill="#F9A826"/>
<path d="M178.969 292.61C175.747 292.61 173.151 295.029 173.151 298.021C173.157 298.913 173.388 299.789 173.822 300.569C174.256 301.349 174.879 302.007 175.634 302.484V304.236C175.638 304.341 175.662 304.445 175.706 304.541C175.75 304.637 175.812 304.724 175.889 304.796C175.966 304.868 176.057 304.924 176.156 304.961C176.255 304.998 176.36 305.015 176.466 305.011H176.467H181.472C181.685 305.019 181.892 304.941 182.049 304.796C182.205 304.651 182.297 304.45 182.304 304.237V304.236V302.484C183.061 302.008 183.685 301.35 184.12 300.57C184.555 299.791 184.786 298.914 184.793 298.021C184.793 295.029 182.191 292.61 178.969 292.61Z" fill="white"/>
<path d="M182.025 296.719C182.002 296.759 182.036 296.828 182.12 296.913C182.203 296.998 182.328 297.091 182.468 297.172C182.609 297.253 182.752 297.315 182.867 297.345C182.983 297.374 183.06 297.368 183.083 297.329L183.939 295.847C183.962 295.808 183.928 295.738 183.845 295.653C183.762 295.568 183.636 295.475 183.496 295.394C183.356 295.314 183.213 295.252 183.097 295.222C182.982 295.193 182.905 295.198 182.882 295.238L182.025 296.719Z" fill="#F9A826"/>
<path d="M180.108 295.142C180.108 295.188 180.172 295.231 180.287 295.263C180.401 295.295 180.557 295.313 180.718 295.313C180.88 295.313 181.036 295.295 181.15 295.263C181.265 295.231 181.329 295.188 181.329 295.142V293.431C181.329 293.386 181.265 293.343 181.15 293.311C181.036 293.278 180.88 293.26 180.718 293.26C180.557 293.26 180.401 293.278 180.287 293.311C180.172 293.343 180.108 293.386 180.108 293.431V295.142Z" fill="#F9A826"/>
<path d="M177.055 295.142C177.055 295.188 177.12 295.231 177.234 295.263C177.349 295.295 177.504 295.313 177.666 295.313C177.828 295.313 177.983 295.295 178.098 295.263C178.212 295.231 178.276 295.188 178.276 295.142V293.431C178.276 293.386 178.212 293.343 178.098 293.311C177.983 293.278 177.828 293.26 177.666 293.26C177.504 293.26 177.349 293.278 177.234 293.311C177.12 293.343 177.055 293.386 177.055 293.431V295.142Z" fill="#F9A826"/>
<path d="M175.146 295.238C175.123 295.198 175.046 295.193 174.93 295.222C174.815 295.252 174.672 295.314 174.531 295.394C174.391 295.475 174.266 295.568 174.183 295.653C174.099 295.738 174.066 295.808 174.088 295.847L174.945 297.329C174.968 297.368 175.045 297.374 175.16 297.345C175.276 297.315 175.419 297.253 175.559 297.172C175.7 297.091 175.825 296.998 175.908 296.913C175.991 296.828 176.025 296.759 176.002 296.719L175.146 295.238Z" fill="#F9A826"/>
<path d="M175.224 304.235C175.062 304.235 174.906 304.299 174.792 304.413C174.677 304.528 174.613 304.683 174.613 304.845C174.613 305.006 174.677 305.161 174.792 305.276C174.906 305.39 175.062 305.454 175.224 305.454H181.329C181.491 305.454 181.646 305.39 181.761 305.276C181.875 305.161 181.94 305.006 181.94 304.845C181.94 304.683 181.875 304.528 181.761 304.413C181.646 304.299 181.491 304.235 181.329 304.235H175.224Z" fill="#F9A826"/>
<path d="M176.445 303.625C176.283 303.625 176.128 303.689 176.013 303.804C175.899 303.918 175.834 304.073 175.834 304.235C175.834 304.397 175.899 304.552 176.013 304.666C176.128 304.78 176.283 304.845 176.445 304.845H182.55C182.712 304.845 182.867 304.78 182.982 304.666C183.096 304.552 183.161 304.397 183.161 304.235C183.161 304.073 183.096 303.918 182.982 303.804C182.867 303.689 182.712 303.625 182.55 303.625H176.445Z" fill="#F9A826"/>
<path d="M175.224 303.016C175.062 303.016 174.906 303.08 174.792 303.194C174.677 303.308 174.613 303.463 174.613 303.625C174.613 303.787 174.677 303.942 174.792 304.056C174.906 304.171 175.062 304.235 175.224 304.235H181.329C181.491 304.235 181.646 304.171 181.761 304.056C181.875 303.942 181.94 303.787 181.94 303.625C181.94 303.463 181.875 303.308 181.761 303.194C181.646 303.08 181.491 303.016 181.329 303.016H175.224Z" fill="#F9A826"/>
<path d="M176.445 302.406C176.283 302.406 176.128 302.47 176.013 302.584C175.899 302.699 175.834 302.854 175.834 303.015C175.834 303.177 175.899 303.332 176.013 303.447C176.128 303.561 176.283 303.625 176.445 303.625H182.55C182.712 303.625 182.867 303.561 182.982 303.447C183.096 303.332 183.161 303.177 183.161 303.015C183.161 302.854 183.096 302.699 182.982 302.584C182.867 302.47 182.712 302.406 182.55 302.406H176.445Z" fill="#F9A826"/>
<path d="M175.834 302.406C175.672 302.406 175.517 302.47 175.402 302.584C175.288 302.699 175.224 302.854 175.224 303.015C175.224 303.177 175.288 303.332 175.402 303.447C175.517 303.561 175.672 303.625 175.834 303.625H181.94C182.101 303.625 182.257 303.561 182.371 303.447C182.486 303.332 182.55 303.177 182.55 303.015C182.55 302.854 182.486 302.699 182.371 302.584C182.257 302.47 182.101 302.406 181.94 302.406H175.834Z" fill="#F9A826"/>
<path d="M177.361 303.946C177.28 304.086 177.258 304.253 177.3 304.409C177.341 304.565 177.444 304.698 177.584 304.779C177.724 304.86 177.891 304.882 178.047 304.84C178.204 304.798 178.337 304.696 178.418 304.556L181.471 299.276C181.552 299.136 181.574 298.969 181.532 298.813C181.49 298.657 181.387 298.524 181.247 298.443C181.107 298.362 180.94 298.34 180.784 298.382C180.628 298.424 180.494 298.526 180.413 298.666L177.361 303.946Z" fill="#F9A826"/>
<path d="M175.024 262.07C174.781 262.07 174.548 262.166 174.377 262.338C174.205 262.509 174.108 262.742 174.108 262.984C174.108 263.227 174.205 263.46 174.377 263.631C174.548 263.803 174.781 263.899 175.024 263.899H183.572C183.815 263.899 184.047 263.803 184.219 263.631C184.391 263.46 184.487 263.227 184.487 262.984C184.487 262.742 184.391 262.509 184.219 262.338C184.047 262.166 183.815 262.07 183.572 262.07H175.024Z" fill="#F9A826"/>
<path d="M175.024 265.728C174.781 265.728 174.548 265.825 174.377 265.996C174.205 266.168 174.108 266.4 174.108 266.643C174.108 266.885 174.205 267.118 174.377 267.289C174.548 267.461 174.781 267.557 175.024 267.557H183.572C183.815 267.557 184.047 267.461 184.219 267.289C184.391 267.118 184.487 266.885 184.487 266.643C184.487 266.4 184.391 266.168 184.219 265.996C184.047 265.825 183.815 265.728 183.572 265.728H175.024Z" fill="#F9A826"/>
<path d="M256.225 152.021C256.563 152.021 256.836 151.748 256.836 151.411C256.836 151.075 256.563 150.802 256.225 150.802C255.888 150.802 255.615 151.075 255.615 151.411C255.615 151.748 255.888 152.021 256.225 152.021Z" fill="#F9A826"/>
<path d="M269.844 140.39L253.944 125.733C253.832 125.629 253.684 125.572 253.53 125.572C253.377 125.572 253.229 125.629 253.116 125.733L245.846 132.437V129.463C245.846 129.301 245.782 129.146 245.667 129.032C245.553 128.917 245.398 128.853 245.236 128.853H244.015C243.853 128.853 243.697 128.917 243.583 129.032C243.468 129.146 243.404 129.301 243.404 129.463V134.689L237.222 140.39C237.132 140.473 237.069 140.581 237.041 140.701C237.014 140.82 237.023 140.945 237.067 141.06C237.112 141.174 237.19 141.272 237.292 141.341C237.393 141.41 237.513 141.447 237.636 141.447H240.697C240.859 141.447 241.014 141.512 241.128 141.626C241.243 141.74 241.307 141.895 241.307 142.057V156.927C241.307 157.089 241.372 157.244 241.486 157.358C241.601 157.473 241.756 157.537 241.918 157.537H265.143C265.304 157.537 265.46 157.473 265.574 157.358C265.689 157.244 265.753 157.089 265.753 156.927V142.057C265.753 141.895 265.817 141.74 265.932 141.626C266.046 141.511 266.202 141.447 266.364 141.447H269.43C269.553 141.447 269.673 141.41 269.774 141.341C269.876 141.272 269.954 141.174 269.999 141.06C270.043 140.945 270.053 140.82 270.025 140.701C269.997 140.581 269.934 140.473 269.844 140.39V140.39ZM250.111 146.806H256.949C257.111 146.806 257.266 146.871 257.381 146.985C257.495 147.099 257.56 147.254 257.56 147.416V156.318H249.501V147.416C249.501 147.254 249.565 147.099 249.679 146.985C249.794 146.871 249.949 146.806 250.111 146.806Z" fill="#F9A826"/>
</g>
<defs>
<clipPath id="clip0_2_2">
<rect width="507" height="411" fill="white"/>
</clipPath>
</defs>
</svg>
